<?xml version="1.0" encoding="UTF-8"?> <svg xmlns="http://www.w3.org/2000/svg" width="144" height="145" viewBox="0 0 144 145" fill="none"> <circle cx="72.3441" cy="72.5963" r="71.6273" fill="white"></circle> <path d="M65.5694 67.3777V64.3043C65.5694 63.9381 65.4239 63.587 65.165 63.3281C64.9061 63.0692 64.555 62.9237 64.1888 62.9237C63.8226 62.9237 63.4715 63.0692 63.2126 63.3281C62.9537 63.587 62.8082 63.9381 62.8082 64.3043V67.3777C62.8082 67.7439 62.9537 68.0951 63.2126 68.354C63.4715 68.6129 63.8226 68.7583 64.1888 68.7583C64.555 68.7583 64.9061 68.6129 65.165 68.354C65.4239 68.0951 65.5694 67.7439 65.5694 67.3777Z" fill="#5CBF48" stroke="#5CBF48" stroke-width="0.2"></path> <path d="M81.8292 67.3777V64.3043C81.8292 63.9381 81.6837 63.587 81.4248 63.3281C81.1659 63.0692 80.8147 62.9237 80.4486 62.9237C80.0824 62.9237 79.7312 63.0692 79.4723 63.3281C79.2134 63.587 79.068 63.9381 79.068 64.3043V67.3777C79.068 67.7439 79.2134 68.0951 79.4723 68.354C79.7313 68.6129 80.0824 68.7583 80.4486 68.7583C80.8147 68.7583 81.1659 68.6129 81.4248 68.354C81.6837 68.0951 81.8292 67.7439 81.8292 67.3777Z" fill="#5CBF48" stroke="#5CBF48" stroke-width="0.2"></path> <path d="M75.7993 77.587C76.7214 76.665 77.2394 75.4144 77.2394 74.1104C77.2394 73.7442 77.0939 73.393 76.835 73.1341C76.5761 72.8752 76.2249 72.7298 75.8588 72.7298C75.4926 72.7298 75.1415 72.8752 74.8825 73.1341C74.6236 73.393 74.4782 73.7442 74.4782 74.1104C74.4782 74.682 74.2511 75.2303 73.8468 75.6346C73.4426 76.0388 72.8943 76.2659 72.3226 76.2659C71.7509 76.2659 71.2027 76.0388 70.7984 75.6346C70.3942 75.2303 70.1671 74.682 70.1671 74.1104C70.1671 73.7442 70.0216 73.393 69.7627 73.1341C69.5038 72.8752 69.1526 72.7298 68.7865 72.7298C68.4203 72.7298 68.0691 72.8752 67.8102 73.1341C67.5513 73.393 67.4059 73.7442 67.4059 74.1104C67.4059 75.4144 67.9239 76.665 68.8459 77.587C69.768 78.5091 71.0186 79.0271 72.3226 79.0271C73.6266 79.0271 74.8772 78.5091 75.7993 77.587Z" fill="#5CBF48" stroke="#5CBF48" stroke-width="0.2"></path> <mask id="path-5-outside-1" maskUnits="userSpaceOnUse" x="46.3613" y="31.4014" width="52" height="82" fill="black"> <rect fill="white" x="46.3613" y="31.4014" width="52" height="82"></rect> <path d="M88.0954 88.6964H86.0812L80.9404 85.9028V83.4908C83.3953 82.2334 85.5453 80.4539 87.2394 78.2772C88.9335 76.1005 90.1306 73.5794 90.7468 70.8908C92.1008 70.7285 93.3824 70.1905 94.4465 69.3376C95.5106 68.4848 96.3148 67.3511 96.7681 66.0649C97.2214 64.7787 97.3056 63.3914 97.0113 62.0598C96.717 60.7282 96.0559 59.5056 95.1028 58.5302C95.3001 58.2897 95.4076 57.9881 95.407 57.677V47.1038C95.393 44.288 94.3239 41.5798 92.4108 39.5138C90.4977 37.4477 87.8795 36.1739 85.0732 35.9438C84.2565 34.8451 83.1943 33.9526 81.9714 33.3376C80.7485 32.7225 79.3987 32.4019 78.0298 32.4014H63.7503C59.8996 32.4057 56.2078 33.9373 53.4849 36.6601C50.762 39.383 49.2304 43.0748 49.2261 46.9256V57.6842C49.2263 57.9912 49.331 58.2889 49.5231 58.5284C48.572 59.5058 47.9129 60.7296 47.6202 62.0616C47.3274 63.3936 47.4127 64.781 47.8664 66.0671C48.32 67.3533 49.1241 68.4871 50.1877 69.3407C51.2514 70.1943 52.5325 70.7336 53.8863 70.898C54.5034 73.5862 55.7009 76.1069 57.3949 78.2835C59.0889 80.46 61.2384 82.2398 63.6927 83.498V85.91L58.5519 88.6964H56.5917C54.1446 88.6993 51.7984 89.6727 50.068 91.4031C48.3376 93.1335 47.3642 95.4797 47.3613 97.9268V111.441C47.3613 111.799 47.5036 112.143 47.7567 112.396C48.0099 112.649 48.3533 112.791 48.7113 112.791H54.2481C54.6062 112.791 54.9496 112.649 55.2027 112.396C55.4559 112.143 55.5981 111.799 55.5981 111.441C55.5981 111.083 55.4559 110.74 55.2027 110.487C54.9496 110.233 54.6062 110.091 54.2481 110.091H50.0613V97.9268C50.0632 96.1956 50.7519 94.5359 51.9763 93.3119C53.2006 92.0879 54.8605 91.3997 56.5917 91.3982H58.4457L66.7617 97.5956C66.9099 97.7054 67.0789 97.7839 67.2584 97.8263C67.4379 97.8687 67.6241 97.8741 67.8057 97.8422L68.5563 100.783L66.7365 110.091H60.5481C60.1901 110.091 59.8467 110.233 59.5935 110.487C59.3404 110.74 59.1981 111.083 59.1981 111.441C59.1981 111.799 59.3404 112.143 59.5935 112.396C59.8467 112.649 60.1901 112.791 60.5481 112.791H95.9758C96.3338 112.791 96.6772 112.649 96.9304 112.396C97.1835 112.143 97.3258 111.799 97.3258 111.441V97.9268C97.3229 95.4797 96.3495 93.1335 94.6191 91.4031C92.8887 89.6727 90.5425 88.6993 88.0954 88.6964ZM83.2354 90.2264L77.209 94.7174L74.401 91.7852L79.6624 88.2842L83.2354 90.2264ZM74.5522 95.8442L73.6522 99.3974H70.9881L70.0882 95.8442L72.3166 93.5042L74.5522 95.8442ZM66.3927 85.9874V84.632C70.2403 85.8993 74.3928 85.8993 78.2404 84.632V85.9874L72.3166 89.933L66.3927 85.9874ZM88.279 67.1072C88.2792 67.1392 88.2731 67.1709 88.261 67.2005C88.2488 67.2301 88.2309 67.257 88.2083 67.2796C88.1857 67.3022 88.1588 67.3201 88.1292 67.3322C88.0997 67.3443 88.0679 67.3504 88.036 67.3502H77.2936C77.2615 67.3504 77.2297 67.3443 77.2 67.3322C77.1703 67.3201 77.1433 67.3023 77.1206 67.2797C77.0978 67.2571 77.0797 67.2302 77.0674 67.2006C77.0551 67.171 77.0488 67.1393 77.0488 67.1072V59.2736C77.0488 59.2415 77.0551 59.2098 77.0674 59.1802C77.0797 59.1506 77.0978 59.1237 77.1206 59.1011C77.1433 59.0785 77.1703 59.0607 77.2 59.0486C77.2297 59.0365 77.2615 59.0304 77.2936 59.0306H88.036C88.0679 59.0304 88.0997 59.0365 88.1292 59.0486C88.1588 59.0607 88.1857 59.0786 88.2083 59.1012C88.2309 59.1238 88.2488 59.1507 88.261 59.1803C88.2731 59.2099 88.2792 59.2416 88.279 59.2736V67.1072ZM94.4836 63.635C94.482 64.6994 94.1128 65.7307 93.4385 66.5543C92.7641 67.3778 91.826 67.9432 90.7828 68.1548C90.9125 67.8208 90.9791 67.4655 90.979 67.1072V59.2736C90.979 59.234 90.979 59.1962 90.979 59.1584C91.9788 59.4066 92.867 59.9821 93.502 60.7933C94.1371 61.6045 94.4826 62.6048 94.4836 63.635ZM92.707 47.1038V56.3306H90.736C90.0501 53.4285 88.6987 50.7257 86.7886 48.4358C86.7886 48.4178 86.7886 48.4016 86.7886 48.3836C86.8192 47.8436 86.8084 48.0632 86.8084 41.1836C86.8051 40.4286 86.7078 39.677 86.5186 38.9462C86.5186 38.9462 86.5186 38.9354 86.5186 38.93C88.2951 39.4402 89.8584 40.5125 90.9741 41.9862C92.0898 43.4598 92.6978 45.2554 92.707 47.1038ZM86.0056 51.9242C86.8714 53.2859 87.5273 54.7701 87.9514 56.327H82.843C84.2397 55.1386 85.3253 53.6273 86.0056 51.9242ZM50.1495 63.6242C50.1466 62.592 50.4913 61.5888 51.128 60.7764C51.7648 59.964 52.6565 59.3896 53.6595 59.1458C53.6595 59.1854 53.6595 59.2232 53.6595 59.2628V67.0964C53.6603 67.4547 53.7268 67.8097 53.8557 68.144C52.8133 67.9339 51.8754 67.3706 51.2001 66.5491C50.5249 65.7276 50.1538 64.6983 50.1495 63.635V63.6242ZM51.9261 56.3198V46.9058C51.9299 43.771 53.1769 40.7657 55.3936 38.549C57.6102 36.3324 60.6155 35.0854 63.7503 35.0816H78.0298C79.6426 35.0835 81.1888 35.7251 82.3291 36.8657C83.4693 38.0064 84.1105 39.5527 84.112 41.1656V47.7176C84.1096 49.998 83.2028 52.1843 81.5904 53.797C79.9781 55.4097 77.792 56.3169 75.5116 56.3198H51.9261ZM74.3506 61.8404H70.2843C70.2843 58.9964 70.2844 59.2358 70.2718 59.0306H74.3614C74.3452 59.2358 74.3506 58.9964 74.3506 61.8404ZM56.3505 67.1072V59.2736C56.3505 59.2092 56.3761 59.1473 56.4217 59.1018C56.4673 59.0562 56.5291 59.0306 56.5935 59.0306H67.3377C67.4022 59.0306 67.464 59.0562 67.5096 59.1018C67.5551 59.1473 67.5807 59.2092 67.5807 59.2736V67.1072C67.5807 67.1717 67.5551 67.2335 67.5096 67.279C67.464 67.3246 67.4022 67.3502 67.3377 67.3502H56.5971C56.5327 67.3502 56.4709 67.3246 56.4253 67.279C56.3797 67.2335 56.3541 67.1717 56.3541 67.1072H56.3505ZM56.4603 70.0448C56.5053 70.0448 56.5485 70.0448 56.5935 70.0448H67.3377C68.118 70.0439 68.866 69.7335 69.4177 69.1818C69.9694 68.6301 70.2798 67.882 70.2808 67.1018V64.5404H74.3506V67.1072C74.351 67.8876 74.6613 68.6359 75.2131 69.1877C75.7649 69.7395 76.5132 70.0497 77.2936 70.0502H88.036C88.081 70.0502 88.1242 70.0502 88.1692 70.0502C87.4035 73.6875 85.4103 76.9509 82.524 79.293C79.6376 81.6351 76.0336 82.9133 72.3166 82.9133C68.5995 82.9133 64.9955 81.6351 62.1091 79.293C59.2228 76.9509 57.2296 73.6875 56.4639 70.0502L56.4603 70.0448ZM67.4151 94.7174L61.3941 90.2264L64.9725 88.2842L70.2267 91.787L67.4151 94.7174ZM69.4762 110.091L71.0566 102.094H73.5766L75.148 110.091H69.4762ZM94.6222 110.091H77.9056L76.0768 100.785L76.8274 97.8422C77.009 97.8735 77.1951 97.8678 77.3745 97.8254C77.5539 97.783 77.7229 97.7049 77.8714 97.5956L86.1874 91.3964H88.0954C89.8268 91.3983 91.4867 92.087 92.711 93.3112C93.9352 94.5355 94.6239 96.1954 94.6258 97.9268L94.6222 110.091Z"></path> </mask> <path d="M88.0954 88.6964H86.0812L80.9404 85.9028V83.4908C83.3953 82.2334 85.5453 80.4539 87.2394 78.2772C88.9335 76.1005 90.1306 73.5794 90.7468 70.8908C92.1008 70.7285 93.3824 70.1905 94.4465 69.3376C95.5106 68.4848 96.3148 67.3511 96.7681 66.0649C97.2214 64.7787 97.3056 63.3914 97.0113 62.0598C96.717 60.7282 96.0559 59.5056 95.1028 58.5302C95.3001 58.2897 95.4076 57.9881 95.407 57.677V47.1038C95.393 44.288 94.3239 41.5798 92.4108 39.5138C90.4977 37.4477 87.8795 36.1739 85.0732 35.9438C84.2565 34.8451 83.1943 33.9526 81.9714 33.3376C80.7485 32.7225 79.3987 32.4019 78.0298 32.4014H63.7503C59.8996 32.4057 56.2078 33.9373 53.4849 36.6601C50.762 39.383 49.2304 43.0748 49.2261 46.9256V57.6842C49.2263 57.9912 49.331 58.2889 49.5231 58.5284C48.572 59.5058 47.9129 60.7296 47.6202 62.0616C47.3274 63.3936 47.4127 64.781 47.8664 66.0671C48.32 67.3533 49.1241 68.4871 50.1877 69.3407C51.2514 70.1943 52.5325 70.7336 53.8863 70.898C54.5034 73.5862 55.7009 76.1069 57.3949 78.2835C59.0889 80.46 61.2384 82.2398 63.6927 83.498V85.91L58.5519 88.6964H56.5917C54.1446 88.6993 51.7984 89.6727 50.068 91.4031C48.3376 93.1335 47.3642 95.4797 47.3613 97.9268V111.441C47.3613 111.799 47.5036 112.143 47.7567 112.396C48.0099 112.649 48.3533 112.791 48.7113 112.791H54.2481C54.6062 112.791 54.9496 112.649 55.2027 112.396C55.4559 112.143 55.5981 111.799 55.5981 111.441C55.5981 111.083 55.4559 110.74 55.2027 110.487C54.9496 110.233 54.6062 110.091 54.2481 110.091H50.0613V97.9268C50.0632 96.1956 50.7519 94.5359 51.9763 93.3119C53.2006 92.0879 54.8605 91.3997 56.5917 91.3982H58.4457L66.7617 97.5956C66.9099 97.7054 67.0789 97.7839 67.2584 97.8263C67.4379 97.8687 67.6241 97.8741 67.8057 97.8422L68.5563 100.783L66.7365 110.091H60.5481C60.1901 110.091 59.8467 110.233 59.5935 110.487C59.3404 110.74 59.1981 111.083 59.1981 111.441C59.1981 111.799 59.3404 112.143 59.5935 112.396C59.8467 112.649 60.1901 112.791 60.5481 112.791H95.9758C96.3338 112.791 96.6772 112.649 96.9304 112.396C97.1835 112.143 97.3258 111.799 97.3258 111.441V97.9268C97.3229 95.4797 96.3495 93.1335 94.6191 91.4031C92.8887 89.6727 90.5425 88.6993 88.0954 88.6964ZM83.2354 90.2264L77.209 94.7174L74.401 91.7852L79.6624 88.2842L83.2354 90.2264ZM74.5522 95.8442L73.6522 99.3974H70.9881L70.0882 95.8442L72.3166 93.5042L74.5522 95.8442ZM66.3927 85.9874V84.632C70.2403 85.8993 74.3928 85.8993 78.2404 84.632V85.9874L72.3166 89.933L66.3927 85.9874ZM88.279 67.1072C88.2792 67.1392 88.2731 67.1709 88.261 67.2005C88.2488 67.2301 88.2309 67.257 88.2083 67.2796C88.1857 67.3022 88.1588 67.3201 88.1292 67.3322C88.0997 67.3443 88.0679 67.3504 88.036 67.3502H77.2936C77.2615 67.3504 77.2297 67.3443 77.2 67.3322C77.1703 67.3201 77.1433 67.3023 77.1206 67.2797C77.0978 67.2571 77.0797 67.2302 77.0674 67.2006C77.0551 67.171 77.0488 67.1393 77.0488 67.1072V59.2736C77.0488 59.2415 77.0551 59.2098 77.0674 59.1802C77.0797 59.1506 77.0978 59.1237 77.1206 59.1011C77.1433 59.0785 77.1703 59.0607 77.2 59.0486C77.2297 59.0365 77.2615 59.0304 77.2936 59.0306H88.036C88.0679 59.0304 88.0997 59.0365 88.1292 59.0486C88.1588 59.0607 88.1857 59.0786 88.2083 59.1012C88.2309 59.1238 88.2488 59.1507 88.261 59.1803C88.2731 59.2099 88.2792 59.2416 88.279 59.2736V67.1072ZM94.4836 63.635C94.482 64.6994 94.1128 65.7307 93.4385 66.5543C92.7641 67.3778 91.826 67.9432 90.7828 68.1548C90.9125 67.8208 90.9791 67.4655 90.979 67.1072V59.2736C90.979 59.234 90.979 59.1962 90.979 59.1584C91.9788 59.4066 92.867 59.9821 93.502 60.7933C94.1371 61.6045 94.4826 62.6048 94.4836 63.635ZM92.707 47.1038V56.3306H90.736C90.0501 53.4285 88.6987 50.7257 86.7886 48.4358C86.7886 48.4178 86.7886 48.4016 86.7886 48.3836C86.8192 47.8436 86.8084 48.0632 86.8084 41.1836C86.8051 40.4286 86.7078 39.677 86.5186 38.9462C86.5186 38.9462 86.5186 38.9354 86.5186 38.93C88.2951 39.4402 89.8584 40.5125 90.9741 41.9862C92.0898 43.4598 92.6978 45.2554 92.707 47.1038ZM86.0056 51.9242C86.8714 53.2859 87.5273 54.7701 87.9514 56.327H82.843C84.2397 55.1386 85.3253 53.6273 86.0056 51.9242ZM50.1495 63.6242C50.1466 62.592 50.4913 61.5888 51.128 60.7764C51.7648 59.964 52.6565 59.3896 53.6595 59.1458C53.6595 59.1854 53.6595 59.2232 53.6595 59.2628V67.0964C53.6603 67.4547 53.7268 67.8097 53.8557 68.144C52.8133 67.9339 51.8754 67.3706 51.2001 66.5491C50.5249 65.7276 50.1538 64.6983 50.1495 63.635V63.6242ZM51.9261 56.3198V46.9058C51.9299 43.771 53.1769 40.7657 55.3936 38.549C57.6102 36.3324 60.6155 35.0854 63.7503 35.0816H78.0298C79.6426 35.0835 81.1888 35.7251 82.3291 36.8657C83.4693 38.0064 84.1105 39.5527 84.112 41.1656V47.7176C84.1096 49.998 83.2028 52.1843 81.5904 53.797C79.9781 55.4097 77.792 56.3169 75.5116 56.3198H51.9261ZM74.3506 61.8404H70.2843C70.2843 58.9964 70.2844 59.2358 70.2718 59.0306H74.3614C74.3452 59.2358 74.3506 58.9964 74.3506 61.8404ZM56.3505 67.1072V59.2736C56.3505 59.2092 56.3761 59.1473 56.4217 59.1018C56.4673 59.0562 56.5291 59.0306 56.5935 59.0306H67.3377C67.4022 59.0306 67.464 59.0562 67.5096 59.1018C67.5551 59.1473 67.5807 59.2092 67.5807 59.2736V67.1072C67.5807 67.1717 67.5551 67.2335 67.5096 67.279C67.464 67.3246 67.4022 67.3502 67.3377 67.3502H56.5971C56.5327 67.3502 56.4709 67.3246 56.4253 67.279C56.3797 67.2335 56.3541 67.1717 56.3541 67.1072H56.3505ZM56.4603 70.0448C56.5053 70.0448 56.5485 70.0448 56.5935 70.0448H67.3377C68.118 70.0439 68.866 69.7335 69.4177 69.1818C69.9694 68.6301 70.2798 67.882 70.2808 67.1018V64.5404H74.3506V67.1072C74.351 67.8876 74.6613 68.6359 75.2131 69.1877C75.7649 69.7395 76.5132 70.0497 77.2936 70.0502H88.036C88.081 70.0502 88.1242 70.0502 88.1692 70.0502C87.4035 73.6875 85.4103 76.9509 82.524 79.293C79.6376 81.6351 76.0336 82.9133 72.3166 82.9133C68.5995 82.9133 64.9955 81.6351 62.1091 79.293C59.2228 76.9509 57.2296 73.6875 56.4639 70.0502L56.4603 70.0448ZM67.4151 94.7174L61.3941 90.2264L64.9725 88.2842L70.2267 91.787L67.4151 94.7174ZM69.4762 110.091L71.0566 102.094H73.5766L75.148 110.091H69.4762ZM94.6222 110.091H77.9056L76.0768 100.785L76.8274 97.8422C77.009 97.8735 77.1951 97.8678 77.3745 97.8254C77.5539 97.783 77.7229 97.7049 77.8714 97.5956L86.1874 91.3964H88.0954C89.8268 91.3983 91.4867 92.087 92.711 93.3112C93.9352 94.5355 94.6239 96.1954 94.6258 97.9268L94.6222 110.091Z" fill="#5CBF48"></path> <path d="M88.0954 88.6964H86.0812L80.9404 85.9028V83.4908C83.3953 82.2334 85.5453 80.4539 87.2394 78.2772C88.9335 76.1005 90.1306 73.5794 90.7468 70.8908C92.1008 70.7285 93.3824 70.1905 94.4465 69.3376C95.5106 68.4848 96.3148 67.3511 96.7681 66.0649C97.2214 64.7787 97.3056 63.3914 97.0113 62.0598C96.717 60.7282 96.0559 59.5056 95.1028 58.5302C95.3001 58.2897 95.4076 57.9881 95.407 57.677V47.1038C95.393 44.288 94.3239 41.5798 92.4108 39.5138C90.4977 37.4477 87.8795 36.1739 85.0732 35.9438C84.2565 34.8451 83.1943 33.9526 81.9714 33.3376C80.7485 32.7225 79.3987 32.4019 78.0298 32.4014H63.7503C59.8996 32.4057 56.2078 33.9373 53.4849 36.6601C50.762 39.383 49.2304 43.0748 49.2261 46.9256V57.6842C49.2263 57.9912 49.331 58.2889 49.5231 58.5284C48.572 59.5058 47.9129 60.7296 47.6202 62.0616C47.3274 63.3936 47.4127 64.781 47.8664 66.0671C48.32 67.3533 49.1241 68.4871 50.1877 69.3407C51.2514 70.1943 52.5325 70.7336 53.8863 70.898C54.5034 73.5862 55.7009 76.1069 57.3949 78.2835C59.0889 80.46 61.2384 82.2398 63.6927 83.498V85.91L58.5519 88.6964H56.5917C54.1446 88.6993 51.7984 89.6727 50.068 91.4031C48.3376 93.1335 47.3642 95.4797 47.3613 97.9268V111.441C47.3613 111.799 47.5036 112.143 47.7567 112.396C48.0099 112.649 48.3533 112.791 48.7113 112.791H54.2481C54.6062 112.791 54.9496 112.649 55.2027 112.396C55.4559 112.143 55.5981 111.799 55.5981 111.441C55.5981 111.083 55.4559 110.74 55.2027 110.487C54.9496 110.233 54.6062 110.091 54.2481 110.091H50.0613V97.9268C50.0632 96.1956 50.7519 94.5359 51.9763 93.3119C53.2006 92.0879 54.8605 91.3997 56.5917 91.3982H58.4457L66.7617 97.5956C66.9099 97.7054 67.0789 97.7839 67.2584 97.8263C67.4379 97.8687 67.6241 97.8741 67.8057 97.8422L68.5563 100.783L66.7365 110.091H60.5481C60.1901 110.091 59.8467 110.233 59.5935 110.487C59.3404 110.74 59.1981 111.083 59.1981 111.441C59.1981 111.799 59.3404 112.143 59.5935 112.396C59.8467 112.649 60.1901 112.791 60.5481 112.791H95.9758C96.3338 112.791 96.6772 112.649 96.9304 112.396C97.1835 112.143 97.3258 111.799 97.3258 111.441V97.9268C97.3229 95.4797 96.3495 93.1335 94.6191 91.4031C92.8887 89.6727 90.5425 88.6993 88.0954 88.6964ZM83.2354 90.2264L77.209 94.7174L74.401 91.7852L79.6624 88.2842L83.2354 90.2264ZM74.5522 95.8442L73.6522 99.3974H70.9881L70.0882 95.8442L72.3166 93.5042L74.5522 95.8442ZM66.3927 85.9874V84.632C70.2403 85.8993 74.3928 85.8993 78.2404 84.632V85.9874L72.3166 89.933L66.3927 85.9874ZM88.279 67.1072C88.2792 67.1392 88.2731 67.1709 88.261 67.2005C88.2488 67.2301 88.2309 67.257 88.2083 67.2796C88.1857 67.3022 88.1588 67.3201 88.1292 67.3322C88.0997 67.3443 88.0679 67.3504 88.036 67.3502H77.2936C77.2615 67.3504 77.2297 67.3443 77.2 67.3322C77.1703 67.3201 77.1433 67.3023 77.1206 67.2797C77.0978 67.2571 77.0797 67.2302 77.0674 67.2006C77.0551 67.171 77.0488 67.1393 77.0488 67.1072V59.2736C77.0488 59.2415 77.0551 59.2098 77.0674 59.1802C77.0797 59.1506 77.0978 59.1237 77.1206 59.1011C77.1433 59.0785 77.1703 59.0607 77.2 59.0486C77.2297 59.0365 77.2615 59.0304 77.2936 59.0306H88.036C88.0679 59.0304 88.0997 59.0365 88.1292 59.0486C88.1588 59.0607 88.1857 59.0786 88.2083 59.1012C88.2309 59.1238 88.2488 59.1507 88.261 59.1803C88.2731 59.2099 88.2792 59.2416 88.279 59.2736V67.1072ZM94.4836 63.635C94.482 64.6994 94.1128 65.7307 93.4385 66.5543C92.7641 67.3778 91.826 67.9432 90.7828 68.1548C90.9125 67.8208 90.9791 67.4655 90.979 67.1072V59.2736C90.979 59.234 90.979 59.1962 90.979 59.1584C91.9788 59.4066 92.867 59.9821 93.502 60.7933C94.1371 61.6045 94.4826 62.6048 94.4836 63.635ZM92.707 47.1038V56.3306H90.736C90.0501 53.4285 88.6987 50.7257 86.7886 48.4358C86.7886 48.4178 86.7886 48.4016 86.7886 48.3836C86.8192 47.8436 86.8084 48.0632 86.8084 41.1836C86.8051 40.4286 86.7078 39.677 86.5186 38.9462C86.5186 38.9462 86.5186 38.9354 86.5186 38.93C88.2951 39.4402 89.8584 40.5125 90.9741 41.9862C92.0898 43.4598 92.6978 45.2554 92.707 47.1038ZM86.0056 51.9242C86.8714 53.2859 87.5273 54.7701 87.9514 56.327H82.843C84.2397 55.1386 85.3253 53.6273 86.0056 51.9242ZM50.1495 63.6242C50.1466 62.592 50.4913 61.5888 51.128 60.7764C51.7648 59.964 52.6565 59.3896 53.6595 59.1458C53.6595 59.1854 53.6595 59.2232 53.6595 59.2628V67.0964C53.6603 67.4547 53.7268 67.8097 53.8557 68.144C52.8133 67.9339 51.8754 67.3706 51.2001 66.5491C50.5249 65.7276 50.1538 64.6983 50.1495 63.635V63.6242ZM51.9261 56.3198V46.9058C51.9299 43.771 53.1769 40.7657 55.3936 38.549C57.6102 36.3324 60.6155 35.0854 63.7503 35.0816H78.0298C79.6426 35.0835 81.1888 35.7251 82.3291 36.8657C83.4693 38.0064 84.1105 39.5527 84.112 41.1656V47.7176C84.1096 49.998 83.2028 52.1843 81.5904 53.797C79.9781 55.4097 77.792 56.3169 75.5116 56.3198H51.9261ZM74.3506 61.8404H70.2843C70.2843 58.9964 70.2844 59.2358 70.2718 59.0306H74.3614C74.3452 59.2358 74.3506 58.9964 74.3506 61.8404ZM56.3505 67.1072V59.2736C56.3505 59.2092 56.3761 59.1473 56.4217 59.1018C56.4673 59.0562 56.5291 59.0306 56.5935 59.0306H67.3377C67.4022 59.0306 67.464 59.0562 67.5096 59.1018C67.5551 59.1473 67.5807 59.2092 67.5807 59.2736V67.1072C67.5807 67.1717 67.5551 67.2335 67.5096 67.279C67.464 67.3246 67.4022 67.3502 67.3377 67.3502H56.5971C56.5327 67.3502 56.4709 67.3246 56.4253 67.279C56.3797 67.2335 56.3541 67.1717 56.3541 67.1072H56.3505ZM56.4603 70.0448C56.5053 70.0448 56.5485 70.0448 56.5935 70.0448H67.3377C68.118 70.0439 68.866 69.7335 69.4177 69.1818C69.9694 68.6301 70.2798 67.882 70.2808 67.1018V64.5404H74.3506V67.1072C74.351 67.8876 74.6613 68.6359 75.2131 69.1877C75.7649 69.7395 76.5132 70.0497 77.2936 70.0502H88.036C88.081 70.0502 88.1242 70.0502 88.1692 70.0502C87.4035 73.6875 85.4103 76.9509 82.524 79.293C79.6376 81.6351 76.0336 82.9133 72.3166 82.9133C68.5995 82.9133 64.9955 81.6351 62.1091 79.293C59.2228 76.9509 57.2296 73.6875 56.4639 70.0502L56.4603 70.0448ZM67.4151 94.7174L61.3941 90.2264L64.9725 88.2842L70.2267 91.787L67.4151 94.7174ZM69.4762 110.091L71.0566 102.094H73.5766L75.148 110.091H69.4762ZM94.6222 110.091H77.9056L76.0768 100.785L76.8274 97.8422C77.009 97.8735 77.1951 97.8678 77.3745 97.8254C77.5539 97.783 77.7229 97.7049 77.8714 97.5956L86.1874 91.3964H88.0954C89.8268 91.3983 91.4867 92.087 92.711 93.3112C93.9352 94.5355 94.6239 96.1954 94.6258 97.9268L94.6222 110.091Z" stroke="#5CBF48" stroke-width="0.4" mask="url(#path-5-outside-1)"></path> </svg> 