<?xml version="1.0" encoding="UTF-8"?> <svg xmlns="http://www.w3.org/2000/svg" width="144" height="145" viewBox="0 0 144 145" fill="none"> <circle cx="71.971" cy="72.5963" r="71.6273" fill="white"></circle> <path d="M110.634 42.6506L101.92 33.9368C100.929 32.9467 99.613 32.4014 98.2127 32.4014C96.8123 32.4014 95.4958 32.9467 94.5057 33.9369C92.4617 35.9811 92.4617 39.3069 94.5057 41.351L95.1556 42.0009L89.7787 47.3779L83.0985 40.6977C82.1082 39.7074 80.7918 39.1621 79.3914 39.1621C77.9912 39.1621 76.6745 39.7074 75.6844 40.6977C74.0031 42.3791 73.7061 44.9274 74.7908 46.9166L47.3245 74.3826C44.1056 77.6015 44.1056 82.8391 47.3245 86.0582L48.005 86.7387L42.1527 92.591C40.2932 94.4506 40.2932 97.4762 42.1527 99.3359L42.5834 99.7665L32.2391 110.111C31.626 110.724 31.626 111.718 32.2391 112.332C32.5456 112.638 32.9476 112.791 33.3494 112.791C33.7512 112.791 34.1531 112.638 34.4596 112.331L44.804 101.987L45.2347 102.418C46.1645 103.347 47.3857 103.812 48.6071 103.812C49.8285 103.812 51.0498 103.347 51.9796 102.418L57.8319 96.5654L58.5124 97.2459C60.1219 98.8552 62.236 99.6599 64.35 99.6599C66.4642 99.6599 68.5784 98.8552 70.1879 97.2459L72.9458 94.488C73.5589 93.8748 73.5589 92.8806 72.9458 92.2675C72.3328 91.6544 71.3385 91.6544 70.7253 92.2675L67.9674 95.0254C65.9728 97.0201 62.7275 97.0201 60.733 95.0254L49.5453 83.8377C47.775 82.0674 47.5773 79.3126 48.9494 77.3208L53.1132 81.4846C53.4198 81.7912 53.8216 81.9445 54.2234 81.9445C54.6252 81.9445 55.0272 81.7911 55.3337 81.4846C55.9468 80.8715 55.9469 79.8773 55.3337 79.2641L51.1091 75.0394L54.2261 71.9224L58.4506 76.147C58.7573 76.4536 59.1591 76.6069 59.5609 76.6069C59.9627 76.6069 60.3646 76.4535 60.6711 76.147C61.2842 75.5339 61.2844 74.5396 60.6711 73.9265L56.4466 69.7018L59.5635 66.5848L63.7883 70.8094C64.0949 71.116 64.4967 71.2693 64.8985 71.2693C65.3003 71.2693 65.7022 71.1159 66.0087 70.8094C66.6218 70.1962 66.6218 69.202 66.0087 68.5889L61.7842 64.3644L64.901 61.2474L69.1257 65.4719C69.4324 65.7786 69.8341 65.9318 70.2359 65.9318C70.6377 65.9318 71.0397 65.7784 71.3462 65.4719C71.9593 64.8588 71.9593 63.8646 71.3462 63.2515L67.1216 59.0269L68.8503 57.2982C73.4054 57.5618 77.0308 61.3497 77.0308 65.9698C77.0308 71.3771 80.6794 75.9451 85.6432 77.3497L80.7179 82.275C80.1047 82.8881 80.1047 83.8823 80.7179 84.4956C81.3312 85.1087 82.3254 85.1087 82.9385 84.4956L97.653 69.7813C98.415 70.1988 99.2733 70.4216 100.166 70.4216C101.567 70.4216 102.883 69.8763 103.873 68.8861C104.864 67.8959 105.409 66.5795 105.409 65.1791C105.409 63.7789 104.864 62.4623 103.873 61.4722L97.1933 54.792L102.57 49.415L103.22 50.0649C104.242 51.0868 105.585 51.5978 106.927 51.5978C108.27 51.5978 109.612 51.0868 110.634 50.0647C112.678 48.0207 112.678 44.6947 110.634 42.6506ZM49.7591 100.197C49.124 100.832 48.0904 100.832 47.4554 100.197L44.3733 97.1152C43.7382 96.4801 43.7382 95.4467 44.3733 94.8116L50.2256 88.9593L55.6114 94.3451L49.7591 100.197ZM88.351 74.6417C83.7959 74.3781 80.1705 70.59 80.1705 65.9701C80.1705 60.5628 76.5217 55.9947 71.5581 54.5901L76.8603 49.288L95.2826 67.7101L88.351 74.6417ZM102.268 65.1791C102.268 65.7407 102.049 66.2686 101.652 66.6657C101.255 67.0628 100.727 67.2813 100.166 67.2813C99.6042 67.2813 99.0763 67.0626 98.6792 66.6657L77.9706 45.9571C77.9703 45.9568 77.9702 45.9566 77.9699 45.9563L77.9047 45.8912C77.0849 45.0714 77.0849 43.7376 77.9047 42.918C78.3018 42.5209 78.8298 42.3022 79.3913 42.3022C79.9529 42.3022 80.4808 42.5209 80.8779 42.918L101.652 63.6925C102.049 64.0898 102.268 64.6176 102.268 65.1791ZM94.9723 52.5714L91.9991 49.5982L97.376 44.2212L100.349 47.1944L94.9723 52.5714ZM108.413 47.8442C107.593 48.664 106.26 48.664 105.44 47.8442L96.7261 39.1304C95.9064 38.3107 95.9064 36.9768 96.7261 36.1571C97.1231 35.76 97.6511 35.5414 98.2127 35.5414C98.7742 35.5414 99.3021 35.7602 99.6993 36.1572L108.413 44.8711C109.233 45.6908 109.233 47.0246 108.413 47.8442Z" fill="#5CBF48"></path> <path d="M76.8318 89.952C77.699 89.952 78.4019 89.249 78.4019 88.3819C78.4019 87.5147 77.699 86.8118 76.8318 86.8118C75.9647 86.8118 75.2617 87.5147 75.2617 88.3819C75.2617 89.249 75.9647 89.952 76.8318 89.952Z" fill="#5CBF48"></path> </svg> 