<?xml version="1.0" encoding="UTF-8"?> <svg xmlns="http://www.w3.org/2000/svg" width="145" height="145" viewBox="0 0 145 145" fill="none"> <circle cx="72.555" cy="72.5963" r="71.6273" fill="white"></circle> <path d="M83.8606 69.9136V71.3381C83.8606 72.0345 83.2908 72.6043 82.5944 72.6043C81.8979 72.6043 81.3281 72.0345 81.3281 71.3381V69.9136C81.3281 69.2172 81.8979 68.6474 82.5944 68.6474C83.2908 68.6474 83.8606 69.2172 83.8606 69.9136Z" fill="#5CBF48"></path> <path d="M93.4714 95.1591C90.4166 95.1591 87.9316 97.644 87.9316 100.699C87.9316 103.754 90.4166 106.239 93.4714 106.239C96.5262 106.239 99.0112 103.754 99.0112 100.699C99.0112 97.644 96.5262 95.1591 93.4714 95.1591ZM93.4714 103.69C91.8095 103.69 90.4641 102.345 90.4641 100.683C90.4641 99.0211 91.8095 97.6757 93.4714 97.6757C95.1333 97.6757 96.4787 99.0211 96.4787 100.683C96.4787 102.345 95.1333 103.69 93.4714 103.69Z" fill="#5CBF48"></path> <path d="M92.3302 88.4404H92.1655V51.2683L92.1655 51.2678C92.1615 49.8429 91.6814 48.082 90.9605 46.2329C90.2384 44.3808 89.2691 42.4268 88.2752 40.6113C86.296 36.9963 84.2132 33.9204 83.7722 33.2749L83.7609 33.2524L83.7614 33.2521L83.7549 33.2415C83.5071 32.8343 83.0795 32.5838 82.5979 32.5838C82.1226 32.5838 81.6999 32.8279 81.4507 33.2257L81.4314 33.245L81.4215 33.2549L81.4136 33.2665C80.9853 33.893 78.8928 36.9763 76.9068 40.6054C75.9139 42.4199 74.9461 44.3735 74.2261 46.2264C73.5074 48.0763 73.0303 49.8393 73.0303 51.2683V88.4404H72.8638C72.5643 88.4404 72.2843 88.4365 72.0752 88.4325C71.9499 88.4302 71.8476 88.4277 71.7828 88.4262C71.7413 88.4252 71.7152 88.4246 71.7083 88.4246C64.9307 88.4246 59.4184 93.9203 59.4184 100.683C59.4184 107.446 64.9307 112.941 71.7083 112.941C76.1468 112.941 80.2646 110.538 82.4438 106.66L82.4446 106.659L82.5858 106.401L82.7362 106.66C82.7364 106.661 82.7366 106.661 82.7367 106.661C84.916 110.538 89.0336 112.941 93.4717 112.941C100.249 112.941 105.762 107.446 105.762 100.683C105.762 93.9203 100.249 88.4246 93.4717 88.4246C93.4554 88.4246 92.9327 88.4246 92.3302 88.4404ZM83.9983 59.8952V38.8774L84.3204 39.4258L84.321 39.4267C85.467 41.3473 86.7182 43.6053 87.6825 45.7388C88.6497 47.879 89.3172 49.8711 89.3172 51.2683V62.562L89.0305 62.3006C89.0305 62.3005 89.0304 62.3005 89.0304 62.3005C87.6634 61.0461 85.9592 60.2263 84.1429 59.9208C84.1427 59.9207 84.1425 59.9207 84.1423 59.9207L83.9983 59.8952ZM80.8593 39.4263L80.8596 39.4258L81.1659 38.9043V59.9111L81.0234 59.9362C81.0229 59.9363 81.0225 59.9364 81.022 59.9365C79.188 60.2263 77.4997 61.063 76.1337 62.3164L76.1324 62.3176L75.8628 62.5709V51.2683C75.8628 49.8633 76.5342 47.8713 77.5034 45.7331C78.4697 43.6015 79.7209 41.3473 80.8593 39.4263ZM81.1805 100.849C81.1 105.983 76.8939 110.125 71.7242 110.125C66.5044 110.125 62.2666 105.886 62.2666 100.699C62.2666 95.5112 66.5044 91.2729 71.7242 91.2729C72.0003 91.2729 72.5733 91.2768 73.1148 91.2847C73.6611 91.2927 74.1625 91.3046 74.3042 91.3196L74.307 91.3198C74.7103 91.3549 75.0995 91.2319 75.4005 90.9663C75.7045 90.6981 75.8628 90.3076 75.8628 89.92V78.7123L76.1324 78.9656L76.1337 78.9668C77.5007 80.2212 79.2049 81.0411 81.0212 81.3466C81.0215 81.3466 81.0217 81.3467 81.0219 81.3467L81.1659 81.3721V100.699V100.849H81.1805ZM89.0463 78.9351L89.3331 78.6737V89.8883C89.3331 90.2968 89.5108 90.6679 89.792 90.9316L89.7919 90.9316L89.7953 90.9346C90.0963 91.2002 90.4855 91.3232 90.8889 91.2882L90.8916 91.2879C91.0334 91.273 91.5347 91.2611 92.083 91.2531C92.6265 91.2452 93.2035 91.2412 93.4875 91.2412C98.7073 91.2412 102.945 95.4796 102.945 100.667C102.945 105.855 98.6912 110.125 93.4717 110.125C88.252 110.125 84.0142 105.886 84.0142 100.683V81.3405L84.1581 81.3151C84.1583 81.315 84.1585 81.315 84.1587 81.315C85.975 81.0095 87.6792 80.1896 89.0462 78.9353C89.0462 78.9352 89.0463 78.9352 89.0463 78.9351ZM82.5979 78.6113H82.5821C78.8821 78.6113 75.8628 75.592 75.8628 71.892V69.3595C75.8628 65.6595 78.8821 62.6402 82.5821 62.6402H82.5979C86.298 62.6402 89.3172 65.6595 89.3172 69.3595V71.892C89.3172 75.592 86.298 78.6113 82.5979 78.6113Z" fill="#5CBF48" stroke="#5CBF48" stroke-width="0.3"></path> <path d="M71.7194 95.1591C68.6647 95.1591 66.1797 97.644 66.1797 100.699C66.1797 103.754 68.6647 106.239 71.7194 106.239C74.7742 106.239 77.2592 103.754 77.2592 100.699C77.2592 97.644 74.7742 95.1591 71.7194 95.1591ZM71.7194 103.69C70.0575 103.69 68.7121 102.345 68.7121 100.683C68.7121 99.0211 70.0575 97.6757 71.7194 97.6757C73.3814 97.6757 74.7267 99.0211 74.7267 100.683C74.7267 102.345 73.3655 103.69 71.7194 103.69Z" fill="#5CBF48"></path> <path d="M55.517 50.9117C56.2963 50.9117 56.9333 50.2747 56.9333 49.4955V33.6676C56.9333 32.8883 56.2963 32.2514 55.517 32.2514C47.7263 32.2514 41.391 38.5702 41.391 46.3457V105.146C41.391 109.424 44.8774 112.894 49.1542 112.894C53.4311 112.894 56.9174 109.424 56.9174 105.146V63.8039C56.9174 63.4349 56.7772 63.0633 56.5095 62.7956C56.2424 62.5286 55.887 62.3877 55.5012 62.3877C54.7219 62.3877 54.085 63.0246 54.085 63.8039V77.6457H44.2235V46.3457C44.2235 40.786 48.3783 35.9904 53.907 35.2091C53.9072 35.2091 53.9075 35.209 53.9077 35.209L54.1008 35.1838V49.4955C54.1008 50.2747 54.7378 50.9117 55.517 50.9117ZM49.1542 110.061C46.4352 110.061 44.2235 107.849 44.2235 105.146V87.2842H54.1008V105.146C54.1008 107.864 51.8897 110.061 49.1542 110.061ZM54.1008 80.4782V84.4359H44.2235V80.4782H54.1008Z" fill="#5CBF48" stroke="#5CBF48" stroke-width="0.3"></path> <path d="M54.153 56.2556L54.153 56.2556L54.1526 56.2569C53.9749 56.8257 54.1881 57.444 54.6472 57.7973C55.1262 58.1696 55.7987 58.1871 56.2952 57.8502C56.8441 57.4783 57.0735 56.7537 56.8085 56.1174C56.595 55.6017 56.065 55.2494 55.4987 55.2494H55.4986H55.4985H55.4984H55.4983H55.4982H55.4981H55.498H55.4979H55.4979H55.4978H55.4977H55.4976H55.4975H55.4974H55.4973H55.4972H55.4971H55.497H55.4969H55.4968H55.4967H55.4966H55.4965H55.4964H55.4963H55.4962H55.4961H55.496H55.4959H55.4958H55.4957H55.4956H55.4955H55.4953H55.4952H55.4951H55.495H55.4949H55.4948H55.4947H55.4946H55.4945H55.4944H55.4943H55.4942H55.4941H55.494H55.4939H55.4937H55.4936H55.4935H55.4934H55.4933H55.4932H55.4931H55.493H55.4929H55.4928H55.4926H55.4925H55.4924H55.4923H55.4922H55.4921H55.492H55.4919H55.4917H55.4916H55.4915H55.4914H55.4913H55.4912H55.4911H55.4909H55.4908H55.4907H55.4906H55.4905H55.4904H55.4902H55.4901H55.49H55.4899H55.4898H55.4897H55.4895H55.4894H55.4893H55.4892H55.4891H55.4889H55.4888H55.4887H55.4886H55.4885H55.4883H55.4882H55.4881H55.488H55.4879H55.4877H55.4876H55.4875H55.4874H55.4872H55.4871H55.487H55.4869H55.4867H55.4866H55.4865H55.4864H55.4862H55.4861H55.486H55.4859H55.4857H55.4856H55.4855H55.4854H55.4852H55.4851H55.485H55.4849H55.4847H55.4846H55.4845H55.4844H55.4842H55.4841H55.484H55.4838H55.4837H55.4836H55.4835H55.4833H55.4832H55.4831H55.4829H55.4828H55.4827H55.4826H55.4824H55.4823H55.4822H55.482H55.4819H55.4818H55.4816H55.4815H55.4814H55.4812H55.4811H55.481H55.4809H55.4807H55.4806H55.4805H55.4803H55.4802H55.4801H55.4799H55.4798H55.4797H55.4795H55.4794H55.4793H55.4791H55.479H55.4789H55.4787H55.4786H55.4785H55.4783H55.4782H55.4781H55.4779H55.4778H55.4776H55.4775H55.4774H55.4772H55.4771H55.477H55.4768H55.4767H55.4766H55.4764H55.4763H55.4762H55.476H55.4759H55.4757H55.4756H55.4755H55.4753H55.4752H55.4751H55.4749H55.4748H55.4747H55.4745H55.4744H55.4742H55.4741H55.474H55.4738H55.4737H55.4736H55.4734H55.4733H55.4731H55.473H55.4729H55.4727H55.4726H55.4725H55.4723H55.4722H55.472H55.4719H55.4718H55.4716H55.4715H55.4713H55.4712H55.4711H55.4709H55.4708H55.4707H55.4705H55.4704H55.4702H55.4701H55.47H55.4698H55.4697H55.4695H55.4694H55.4693H55.4691H55.469H55.4689H55.4687H55.4686H55.4684H55.4683H55.4682H55.468H55.4679H55.4677H55.4676H55.4675H55.4673H55.4672H55.467H55.4669H55.4668H55.4666H55.4665H55.4663H55.4662H55.4661H55.4659H55.4658H55.4657H55.4655H55.4654H55.4652H55.4651H55.465H55.4648H55.4647H55.4645H55.4644H55.4643H55.4641H55.464H55.4638H55.4637H55.4636H55.4634H55.4633H55.4632H55.463H55.4629H55.4627H55.4626H55.4625H55.4623H55.4622H55.462H55.4619H55.4618H55.4616H55.4615H55.4614H55.4612H55.4611H55.4609H55.4608H55.4607H55.4605H55.4604H55.4603H55.4601H55.46H55.4598H55.4597H55.4596H55.4594H55.4593H55.4592H55.459H55.4589H55.4587H55.4586H55.4585H55.4583H55.4582H55.4581H55.4579H55.4578H55.4577H55.4575H55.4574H55.4573H55.4571H55.457H55.4568H55.4567H55.4566H55.4564H55.4563H55.4562H55.456H55.4559H55.4558H55.4556H55.4555H55.4554H55.4552H55.4551H55.455H55.4548H55.4547H55.4546H55.4544H55.4543H55.4542H55.454H55.4539H55.4538H55.4536H55.4535H55.4534H55.4532H55.4531H55.453H55.4528H55.4527H55.4526H55.4524H55.4523H55.4522H55.4521H55.4519H55.4518H55.4517H55.4515H55.4514H55.4513H55.4511H55.451H55.4509H55.4508H55.4506H55.4505H55.4504H55.4502H55.4501H55.45H55.4499H55.4497H55.4496H55.4495H55.4493H55.4492H55.4491H55.449H55.4488H55.4487H55.4486H55.4485H55.4483H55.4482H55.4481H55.448H55.4478H55.4477H55.4476H55.4475H55.4473H55.4472H55.4471H55.447H55.4468H55.4467H55.4466H55.4465H55.4464H55.4462H55.4461H55.446H55.4459H55.4458H55.4456H55.4455H55.4454H55.4453H55.4451H55.445H55.4449H55.4448H55.4447H55.4446H55.4444H55.4443H55.4442H55.4441H55.444H55.4438H55.4437H55.4436H55.4435H55.4434H55.4433H55.4431H55.443H55.4429H55.4428H55.4427H55.4426H55.4425H55.4423H55.4422H55.4421H55.442H55.4419H55.4418H55.4417H55.4416H55.4414H55.4413H55.4412H55.4411H55.441H55.4409H55.4408H55.4407H55.4406H55.4404H55.4403H55.4402H55.4401H55.44H55.4399H55.4398H55.4397H55.4396H55.4395H55.4394H55.4393H55.4392H55.4391H55.4389H55.4388H55.4387H55.4386H55.4385H55.4384H55.4383H55.4382H55.4381H55.438H55.4379H55.4378H55.4377H55.4376H55.4375H55.4374H55.4373H55.4372H55.4371H55.437H55.4369H55.4368H55.4367H55.4366H55.4365H55.4364H55.4363H55.4362H55.4361H55.436H55.436H55.4359H55.4358H55.4357H55.4356H55.4355H55.4354V55.2491L55.4263 55.2497C54.8384 55.2853 54.329 55.7099 54.153 56.2556Z" fill="#5CBF48" stroke="#5CBF48" stroke-width="0.3"></path> </svg> 