<?xml version="1.0" encoding="UTF-8"?> <svg xmlns="http://www.w3.org/2000/svg" width="144" height="145" viewBox="0 0 144 145" fill="none"> <circle cx="72.1605" cy="72.5963" r="71.6273" fill="white"></circle> <mask id="path-2-outside-1" maskUnits="userSpaceOnUse" x="29.0273" y="34.9963" width="88" height="75" fill="black"> <rect fill="white" x="29.0273" y="34.9963" width="88" height="75"></rect> <path d="M115.302 81.2916C115.297 81.2712 115.292 81.2508 115.286 81.2306C114.44 78.6227 113.112 76.2303 111.34 74.1204C111.307 74.0811 111.271 74.0451 111.234 74.0107C108.465 70.7565 104.742 68.3389 100.501 67.1941L100.544 67.0903C100.603 66.9495 100.659 66.8084 100.714 66.6667C100.723 66.643 100.731 66.6191 100.741 66.5953C100.786 66.4754 100.831 66.3555 100.874 66.235C100.877 66.2275 100.88 66.2197 100.882 66.2121C102.37 62.0395 102.263 57.5259 100.56 53.4011C99.2654 50.2658 97.156 47.6255 94.4642 45.6994C94.428 45.6733 94.3911 45.6478 94.3545 45.622C94.1733 45.4944 93.9902 45.3692 93.8038 45.2481C93.6756 45.1646 93.5462 45.0824 93.4154 45.0019C93.3172 44.9416 93.2185 44.8821 93.1189 44.8237C92.9285 44.7114 92.7361 44.6012 92.5402 44.4954C92.4964 44.4718 92.452 44.4494 92.408 44.4262C92.1825 44.3068 91.9543 44.1909 91.722 44.0802C91.7038 44.0717 91.6853 44.0636 91.6673 44.055C91.4124 43.9347 91.1541 43.8194 90.8913 43.7102C81.8748 39.9632 71.5058 44.1714 67.6274 53.0934C66.7445 43.519 58.669 35.9963 48.8681 35.9963C44.8929 35.9963 41.0914 37.2198 37.8748 39.5344C37.3085 39.942 37.1798 40.7312 37.5871 41.2976C37.9945 41.8637 38.784 41.9927 39.3502 41.5851C42.1343 39.5817 45.4254 38.5228 48.868 38.5228C57.8638 38.5228 65.1822 45.8413 65.1822 54.837V58.9673L61.0484 68.9149C61.0482 68.9151 61.0482 68.9154 61.0481 68.9156L60.0232 71.3817H32.5538V54.837C32.5538 51.4536 33.5797 48.2088 35.5207 45.4535C35.9225 44.883 35.7858 44.0951 35.2155 43.6932C34.6448 43.2915 33.8569 43.4283 33.4552 43.9986C31.2127 47.182 30.0273 50.9299 30.0273 54.837V90.4529C30.0273 100.842 38.4793 109.294 48.868 109.294C53.1132 109.294 57.0341 107.881 60.1877 105.503C61.4156 106.445 62.7718 107.237 64.2393 107.847C66.4516 108.766 68.7768 109.226 71.1026 109.226C73.4146 109.226 75.7273 108.771 77.9287 107.862C79.5594 107.189 81.0527 106.291 82.3851 105.209C85.9124 107.767 90.2459 109.278 94.9262 109.278C106.732 109.278 116.337 99.6731 116.337 87.867C116.337 85.5739 115.973 83.3644 115.302 81.2916ZM108.357 74.6058L76.553 92.2357C76.2195 90.8329 76.0418 89.3704 76.0418 87.867C76.0418 77.4543 84.5132 68.9828 94.926 68.9828C100.175 68.983 104.931 71.1365 108.357 74.6058ZM69.8438 54.3327C70.5997 52.7171 71.489 51.1799 72.6971 49.8606C73.5438 48.9361 74.5407 48.087 75.5845 47.4022C75.6126 47.3836 75.6413 47.3658 75.6695 47.3476C76.6953 46.6838 77.8798 46.1085 79.0287 45.712C79.5549 45.5304 80.1363 45.3647 80.6771 45.2429C80.7115 45.2352 80.746 45.2281 80.7803 45.2207C82.0316 44.948 83.2696 44.8336 84.5555 44.8766C90.5263 45.0758 95.9438 48.8419 98.2245 54.3652C99.7902 58.1574 99.7855 62.3322 98.2111 66.1208L97.9806 66.6753C96.9825 66.5322 95.963 66.4565 94.9258 66.4565C88.1104 66.4565 82.0289 69.6575 78.1049 74.6349L63.8661 68.718C65.1591 65.6065 66.4521 62.4949 67.745 59.3835C68.4377 57.7171 69.0712 55.984 69.8438 54.3327ZM32.5538 90.4529V73.9083H58.9735L54.5861 84.4666C52.7528 88.8783 52.7472 93.7402 54.5705 98.1559C55.4483 100.282 56.7028 102.179 58.2567 103.783C55.5996 105.66 52.3615 106.767 48.868 106.767C39.8723 106.767 32.5538 99.4485 32.5538 90.4529ZM71.0827 106.69C69.122 106.69 67.1292 106.312 65.2088 105.514C61.4201 103.939 58.4714 100.984 56.9057 97.1919C55.34 93.3996 55.3447 89.2247 56.9192 85.4361L62.8969 71.0511L76.6294 76.7576C74.6543 79.9986 73.5155 83.8023 73.5155 87.8674C73.5155 90.1583 73.8786 92.3658 74.5478 94.4368C74.5539 94.4597 74.5594 94.4828 74.5668 94.5055C75.4129 97.1111 76.7396 99.5024 78.5104 101.613C78.5458 101.655 78.5839 101.694 78.6235 101.73C79.1725 102.375 79.7592 102.987 80.3798 103.563C77.7188 105.574 74.4483 106.69 71.0827 106.69ZM94.926 106.751C89.6763 106.751 84.9207 104.597 81.4947 101.128L100.791 90.4325C101.402 90.0943 101.622 89.3256 101.284 88.7154C100.946 88.1054 100.177 87.8844 99.5667 88.2229L79.8095 99.1735C78.7887 97.8121 77.9479 96.3085 77.321 94.6989L110.042 76.5604C111.063 77.9223 111.904 79.4266 112.532 81.0369L104.596 85.4353C103.986 85.7735 103.765 86.5422 104.104 87.1524C104.442 87.7626 105.211 87.9836 105.821 87.6449L113.299 83.4997C113.633 84.9022 113.81 86.3643 113.81 87.8672C113.81 98.28 105.339 106.751 94.926 106.751Z"></path> </mask> <path d="M115.302 81.2916C115.297 81.2712 115.292 81.2508 115.286 81.2306C114.44 78.6227 113.112 76.2303 111.34 74.1204C111.307 74.0811 111.271 74.0451 111.234 74.0107C108.465 70.7565 104.742 68.3389 100.501 67.1941L100.544 67.0903C100.603 66.9495 100.659 66.8084 100.714 66.6667C100.723 66.643 100.731 66.6191 100.741 66.5953C100.786 66.4754 100.831 66.3555 100.874 66.235C100.877 66.2275 100.88 66.2197 100.882 66.2121C102.37 62.0395 102.263 57.5259 100.56 53.4011C99.2654 50.2658 97.156 47.6255 94.4642 45.6994C94.428 45.6733 94.3911 45.6478 94.3545 45.622C94.1733 45.4944 93.9902 45.3692 93.8038 45.2481C93.6756 45.1646 93.5462 45.0824 93.4154 45.0019C93.3172 44.9416 93.2185 44.8821 93.1189 44.8237C92.9285 44.7114 92.7361 44.6012 92.5402 44.4954C92.4964 44.4718 92.452 44.4494 92.408 44.4262C92.1825 44.3068 91.9543 44.1909 91.722 44.0802C91.7038 44.0717 91.6853 44.0636 91.6673 44.055C91.4124 43.9347 91.1541 43.8194 90.8913 43.7102C81.8748 39.9632 71.5058 44.1714 67.6274 53.0934C66.7445 43.519 58.669 35.9963 48.8681 35.9963C44.8929 35.9963 41.0914 37.2198 37.8748 39.5344C37.3085 39.942 37.1798 40.7312 37.5871 41.2976C37.9945 41.8637 38.784 41.9927 39.3502 41.5851C42.1343 39.5817 45.4254 38.5228 48.868 38.5228C57.8638 38.5228 65.1822 45.8413 65.1822 54.837V58.9673L61.0484 68.9149C61.0482 68.9151 61.0482 68.9154 61.0481 68.9156L60.0232 71.3817H32.5538V54.837C32.5538 51.4536 33.5797 48.2088 35.5207 45.4535C35.9225 44.883 35.7858 44.0951 35.2155 43.6932C34.6448 43.2915 33.8569 43.4283 33.4552 43.9986C31.2127 47.182 30.0273 50.9299 30.0273 54.837V90.4529C30.0273 100.842 38.4793 109.294 48.868 109.294C53.1132 109.294 57.0341 107.881 60.1877 105.503C61.4156 106.445 62.7718 107.237 64.2393 107.847C66.4516 108.766 68.7768 109.226 71.1026 109.226C73.4146 109.226 75.7273 108.771 77.9287 107.862C79.5594 107.189 81.0527 106.291 82.3851 105.209C85.9124 107.767 90.2459 109.278 94.9262 109.278C106.732 109.278 116.337 99.6731 116.337 87.867C116.337 85.5739 115.973 83.3644 115.302 81.2916ZM108.357 74.6058L76.553 92.2357C76.2195 90.8329 76.0418 89.3704 76.0418 87.867C76.0418 77.4543 84.5132 68.9828 94.926 68.9828C100.175 68.983 104.931 71.1365 108.357 74.6058ZM69.8438 54.3327C70.5997 52.7171 71.489 51.1799 72.6971 49.8606C73.5438 48.9361 74.5407 48.087 75.5845 47.4022C75.6126 47.3836 75.6413 47.3658 75.6695 47.3476C76.6953 46.6838 77.8798 46.1085 79.0287 45.712C79.5549 45.5304 80.1363 45.3647 80.6771 45.2429C80.7115 45.2352 80.746 45.2281 80.7803 45.2207C82.0316 44.948 83.2696 44.8336 84.5555 44.8766C90.5263 45.0758 95.9438 48.8419 98.2245 54.3652C99.7902 58.1574 99.7855 62.3322 98.2111 66.1208L97.9806 66.6753C96.9825 66.5322 95.963 66.4565 94.9258 66.4565C88.1104 66.4565 82.0289 69.6575 78.1049 74.6349L63.8661 68.718C65.1591 65.6065 66.4521 62.4949 67.745 59.3835C68.4377 57.7171 69.0712 55.984 69.8438 54.3327ZM32.5538 90.4529V73.9083H58.9735L54.5861 84.4666C52.7528 88.8783 52.7472 93.7402 54.5705 98.1559C55.4483 100.282 56.7028 102.179 58.2567 103.783C55.5996 105.66 52.3615 106.767 48.868 106.767C39.8723 106.767 32.5538 99.4485 32.5538 90.4529ZM71.0827 106.69C69.122 106.69 67.1292 106.312 65.2088 105.514C61.4201 103.939 58.4714 100.984 56.9057 97.1919C55.34 93.3996 55.3447 89.2247 56.9192 85.4361L62.8969 71.0511L76.6294 76.7576C74.6543 79.9986 73.5155 83.8023 73.5155 87.8674C73.5155 90.1583 73.8786 92.3658 74.5478 94.4368C74.5539 94.4597 74.5594 94.4828 74.5668 94.5055C75.4129 97.1111 76.7396 99.5024 78.5104 101.613C78.5458 101.655 78.5839 101.694 78.6235 101.73C79.1725 102.375 79.7592 102.987 80.3798 103.563C77.7188 105.574 74.4483 106.69 71.0827 106.69ZM94.926 106.751C89.6763 106.751 84.9207 104.597 81.4947 101.128L100.791 90.4325C101.402 90.0943 101.622 89.3256 101.284 88.7154C100.946 88.1054 100.177 87.8844 99.5667 88.2229L79.8095 99.1735C78.7887 97.8121 77.9479 96.3085 77.321 94.6989L110.042 76.5604C111.063 77.9223 111.904 79.4266 112.532 81.0369L104.596 85.4353C103.986 85.7735 103.765 86.5422 104.104 87.1524C104.442 87.7626 105.211 87.9836 105.821 87.6449L113.299 83.4997C113.633 84.9022 113.81 86.3643 113.81 87.8672C113.81 98.28 105.339 106.751 94.926 106.751Z" fill="#5CBF48"></path> <path d="M115.302 81.2916C115.297 81.2712 115.292 81.2508 115.286 81.2306C114.44 78.6227 113.112 76.2303 111.34 74.1204C111.307 74.0811 111.271 74.0451 111.234 74.0107C108.465 70.7565 104.742 68.3389 100.501 67.1941L100.544 67.0903C100.603 66.9495 100.659 66.8084 100.714 66.6667C100.723 66.643 100.731 66.6191 100.741 66.5953C100.786 66.4754 100.831 66.3555 100.874 66.235C100.877 66.2275 100.88 66.2197 100.882 66.2121C102.37 62.0395 102.263 57.5259 100.56 53.4011C99.2654 50.2658 97.156 47.6255 94.4642 45.6994C94.428 45.6733 94.3911 45.6478 94.3545 45.622C94.1733 45.4944 93.9902 45.3692 93.8038 45.2481C93.6756 45.1646 93.5462 45.0824 93.4154 45.0019C93.3172 44.9416 93.2185 44.8821 93.1189 44.8237C92.9285 44.7114 92.7361 44.6012 92.5402 44.4954C92.4964 44.4718 92.452 44.4494 92.408 44.4262C92.1825 44.3068 91.9543 44.1909 91.722 44.0802C91.7038 44.0717 91.6853 44.0636 91.6673 44.055C91.4124 43.9347 91.1541 43.8194 90.8913 43.7102C81.8748 39.9632 71.5058 44.1714 67.6274 53.0934C66.7445 43.519 58.669 35.9963 48.8681 35.9963C44.8929 35.9963 41.0914 37.2198 37.8748 39.5344C37.3085 39.942 37.1798 40.7312 37.5871 41.2976C37.9945 41.8637 38.784 41.9927 39.3502 41.5851C42.1343 39.5817 45.4254 38.5228 48.868 38.5228C57.8638 38.5228 65.1822 45.8413 65.1822 54.837V58.9673L61.0484 68.9149C61.0482 68.9151 61.0482 68.9154 61.0481 68.9156L60.0232 71.3817H32.5538V54.837C32.5538 51.4536 33.5797 48.2088 35.5207 45.4535C35.9225 44.883 35.7858 44.0951 35.2155 43.6932C34.6448 43.2915 33.8569 43.4283 33.4552 43.9986C31.2127 47.182 30.0273 50.9299 30.0273 54.837V90.4529C30.0273 100.842 38.4793 109.294 48.868 109.294C53.1132 109.294 57.0341 107.881 60.1877 105.503C61.4156 106.445 62.7718 107.237 64.2393 107.847C66.4516 108.766 68.7768 109.226 71.1026 109.226C73.4146 109.226 75.7273 108.771 77.9287 107.862C79.5594 107.189 81.0527 106.291 82.3851 105.209C85.9124 107.767 90.2459 109.278 94.9262 109.278C106.732 109.278 116.337 99.6731 116.337 87.867C116.337 85.5739 115.973 83.3644 115.302 81.2916ZM108.357 74.6058L76.553 92.2357C76.2195 90.8329 76.0418 89.3704 76.0418 87.867C76.0418 77.4543 84.5132 68.9828 94.926 68.9828C100.175 68.983 104.931 71.1365 108.357 74.6058ZM69.8438 54.3327C70.5997 52.7171 71.489 51.1799 72.6971 49.8606C73.5438 48.9361 74.5407 48.087 75.5845 47.4022C75.6126 47.3836 75.6413 47.3658 75.6695 47.3476C76.6953 46.6838 77.8798 46.1085 79.0287 45.712C79.5549 45.5304 80.1363 45.3647 80.6771 45.2429C80.7115 45.2352 80.746 45.2281 80.7803 45.2207C82.0316 44.948 83.2696 44.8336 84.5555 44.8766C90.5263 45.0758 95.9438 48.8419 98.2245 54.3652C99.7902 58.1574 99.7855 62.3322 98.2111 66.1208L97.9806 66.6753C96.9825 66.5322 95.963 66.4565 94.9258 66.4565C88.1104 66.4565 82.0289 69.6575 78.1049 74.6349L63.8661 68.718C65.1591 65.6065 66.4521 62.4949 67.745 59.3835C68.4377 57.7171 69.0712 55.984 69.8438 54.3327ZM32.5538 90.4529V73.9083H58.9735L54.5861 84.4666C52.7528 88.8783 52.7472 93.7402 54.5705 98.1559C55.4483 100.282 56.7028 102.179 58.2567 103.783C55.5996 105.66 52.3615 106.767 48.868 106.767C39.8723 106.767 32.5538 99.4485 32.5538 90.4529ZM71.0827 106.69C69.122 106.69 67.1292 106.312 65.2088 105.514C61.4201 103.939 58.4714 100.984 56.9057 97.1919C55.34 93.3996 55.3447 89.2247 56.9192 85.4361L62.8969 71.0511L76.6294 76.7576C74.6543 79.9986 73.5155 83.8023 73.5155 87.8674C73.5155 90.1583 73.8786 92.3658 74.5478 94.4368C74.5539 94.4597 74.5594 94.4828 74.5668 94.5055C75.4129 97.1111 76.7396 99.5024 78.5104 101.613C78.5458 101.655 78.5839 101.694 78.6235 101.73C79.1725 102.375 79.7592 102.987 80.3798 103.563C77.7188 105.574 74.4483 106.69 71.0827 106.69ZM94.926 106.751C89.6763 106.751 84.9207 104.597 81.4947 101.128L100.791 90.4325C101.402 90.0943 101.622 89.3256 101.284 88.7154C100.946 88.1054 100.177 87.8844 99.5667 88.2229L79.8095 99.1735C78.7887 97.8121 77.9479 96.3085 77.321 94.6989L110.042 76.5604C111.063 77.9223 111.904 79.4266 112.532 81.0369L104.596 85.4353C103.986 85.7735 103.765 86.5422 104.104 87.1524C104.442 87.7626 105.211 87.9836 105.821 87.6449L113.299 83.4997C113.633 84.9022 113.81 86.3643 113.81 87.8672C113.81 98.28 105.339 106.751 94.926 106.751Z" stroke="#5CBF48" stroke-width="0.4" mask="url(#path-2-outside-1)"></path> </svg> 