<?xml version="1.0" encoding="UTF-8"?>
<svg xmlns="http://www.w3.org/2000/svg" width="54" height="71" viewBox="0 0 54 71" fill="none"> <path d="M48.6007 64.2543L17.4095 63.7727L3.2793 68.6823L5.82101 53.432L6.66824 10.223L51.5718 9.37573V60.2099L48.6007 64.2543Z" fill="white"/> <path d="M28.6993 11.0701C27.1912 11.0701 25.717 11.4179 24.4631 12.0696C23.2091 12.7212 22.2318 13.6475 21.6547 14.7312C21.0775 15.8148 20.9265 17.0073 21.2207 18.1577C21.515 19.3082 22.2412 20.3649 23.3076 21.1943C24.374 22.0237 25.7326 22.5886 27.2118 22.8174C28.6909 23.0463 30.2241 22.9288 31.6174 22.4799C33.0107 22.0311 34.2016 21.2709 35.0394 20.2956C35.8773 19.3203 36.3245 18.1737 36.3245 17.0007C36.3224 15.4283 35.5184 13.9208 34.0888 12.8089C32.6593 11.697 30.721 11.0717 28.6993 11.0701ZM28.6993 19.8691C27.9731 19.8671 27.2639 19.6977 26.6613 19.3824C26.0588 19.0672 25.5898 18.6201 25.3137 18.0976C25.0376 17.5752 24.9667 17.0009 25.1099 16.4471C25.2532 15.8934 25.6042 15.385 26.1187 14.9863C26.6331 14.5876 27.2879 14.3164 28.0004 14.207C28.7128 14.0975 29.4511 14.1547 30.1218 14.3713C30.7925 14.588 31.3656 14.9543 31.7688 15.4241C32.172 15.8939 32.3872 16.4461 32.3872 17.0109C32.3817 17.7694 31.991 18.4954 31.3002 19.0308C30.6094 19.5662 29.6745 19.8675 28.6993 19.8691Z" fill="#5CB9EA"/> <path d="M44.6954 39.8762H14.3894C13.9142 39.8762 13.4584 40.0547 13.1224 40.3725C12.7864 40.6903 12.5977 41.1213 12.5977 41.5707C12.5977 42.0201 12.7864 42.4511 13.1224 42.7689C13.4584 43.0866 13.9142 43.2652 14.3894 43.2652H44.6954C45.1706 43.2652 45.6263 43.0866 45.9624 42.7689C46.2984 42.4511 46.4871 42.0201 46.4871 41.5707C46.4871 41.1213 46.2984 40.6903 45.9624 40.3725C45.6263 40.0547 45.1706 39.8762 44.6954 39.8762Z" fill="#5CB9EA"/> <path d="M44.6954 46.6539H14.3894C13.9142 46.6539 13.4584 46.8325 13.1224 47.1502C12.7864 47.468 12.5977 47.899 12.5977 48.3484C12.5977 48.7978 12.7864 49.2288 13.1224 49.5466C13.4584 49.8644 13.9142 50.0429 14.3894 50.0429H44.6954C45.1706 50.0429 45.6263 49.8644 45.9624 49.5466C46.2984 49.2288 46.4871 48.7978 46.4871 48.3484C46.4871 47.899 46.2984 47.468 45.9624 47.1502C45.6263 46.8325 45.1706 46.6539 44.6954 46.6539Z" fill="#5CB9EA"/> <path d="M44.6954 53.4318H14.3894C13.9142 53.4318 13.4584 53.6103 13.1224 53.9281C12.7864 54.2458 12.5977 54.6768 12.5977 55.1262C12.5977 55.5756 12.7864 56.0066 13.1224 56.3244C13.4584 56.6422 13.9142 56.8207 14.3894 56.8207H44.6954C45.1706 56.8207 45.6263 56.6422 45.9624 56.3244C46.2984 56.0066 46.4871 55.5756 46.4871 55.1262C46.4871 54.6768 46.2984 54.2458 45.9624 53.9281C45.6263 53.6103 45.1706 53.4318 44.6954 53.4318Z" fill="#5CB9EA"/> <path d="M51.5402 45.4294C51.7668 45.4297 51.9912 45.3852 52.2006 45.2985C52.41 45.2118 52.6003 45.0846 52.7605 44.9242C52.9207 44.7637 53.0478 44.5732 53.1343 44.3635C53.2209 44.1538 53.2653 43.929 53.265 43.7021V11.8332C53.265 10.4542 52.7188 9.13153 51.7461 8.15534C50.7735 7.17916 49.4539 6.62921 48.0769 6.62616H41.2491L38.9493 4.32316C38.4121 3.7858 37.6838 3.48397 36.9245 3.48397C36.1651 3.48397 35.4368 3.7858 34.8996 4.32316L34.0487 5.1983C33.8877 5.12691 33.7244 5.06012 33.5611 4.99564V3.77044C33.5605 3.39311 33.4857 3.0196 33.3409 2.67125C33.1961 2.32291 32.9841 2.00655 32.7171 1.74028C32.4502 1.474 32.1334 1.26302 31.785 1.11939C31.4366 0.975758 31.0633 0.902298 30.6865 0.903207H26.5585C25.8004 0.905641 25.074 1.20865 24.5383 1.74597C24.0026 2.28328 23.7012 3.01117 23.7 3.77044V4.99564C23.5367 5.05782 23.3758 5.12691 23.2125 5.1983L22.3409 4.32316C21.8033 3.78636 21.0751 3.48492 20.316 3.48492C19.5569 3.48492 18.8287 3.78636 18.2911 4.32316L15.9914 6.62616H9.67182C8.2946 6.62738 6.97417 7.17596 6.00055 8.15142C5.02692 9.12687 4.47971 10.4494 4.4791 11.8286V54.8256L0.916852 65.6774C0.709116 66.3066 0.680041 66.9812 0.832873 67.626C0.985705 68.2708 1.31443 68.8605 1.78238 69.3291C2.25032 69.7977 2.83909 70.1269 3.48297 70.2799C4.12686 70.433 4.80054 70.4039 5.42887 70.1958L6.91218 69.7053L16.2467 66.6331H48.0769C49.4519 66.6301 50.7698 66.0817 51.7421 65.108C52.7144 64.1343 53.262 62.8145 53.265 61.4375V51.7649C53.265 51.3068 53.0833 50.8675 52.7598 50.5436C52.4364 50.2197 51.9977 50.0377 51.5402 50.0377C51.0828 50.0377 50.6441 50.2197 50.3206 50.5436C49.9972 50.8675 49.8154 51.3068 49.8154 51.7649V61.4375C49.8148 61.9003 49.631 62.344 49.3042 62.6712C48.9774 62.9985 48.5344 63.1826 48.0723 63.1832H15.9776C15.7947 63.1836 15.6131 63.2131 15.4395 63.2707L6.91218 66.0689C5.40128 66.5663 4.29512 66.9279 4.28592 66.9279C4.03985 66.9279 3.92717 67.4668 6.91218 58.4206L7.83206 55.6455C7.88805 55.4713 7.91675 55.2895 7.91715 55.1066V11.8332C7.91684 11.6026 7.96206 11.3742 8.05019 11.1611C8.13832 10.9481 8.26762 10.7545 8.43068 10.5917C8.59374 10.4288 8.78733 10.2998 9.00033 10.2121C9.21333 10.1244 9.44153 10.0797 9.67182 10.0807H14.6599C14.9243 11.0019 15.5683 11.4901 16.249 12.1718C16.1777 12.333 16.111 12.4965 16.0466 12.66H14.8255C14.4481 12.6588 14.0742 12.7322 13.7252 12.876C13.3762 13.0198 13.059 13.2311 12.7917 13.4979C12.5244 13.7647 12.3124 14.0817 12.1677 14.4307C12.023 14.7797 11.9485 15.1539 11.9485 15.5319V19.6773C11.9491 20.4381 12.2512 21.1676 12.7885 21.7056C13.3257 22.2437 14.0542 22.5462 14.814 22.5468H16.0351C16.0995 22.7103 16.1662 22.8715 16.2375 23.035C15.3636 23.9079 15.221 24.023 15.0071 24.3477V24.3616C14.702 24.8276 14.5395 25.3727 14.5395 25.9299C14.5395 26.4871 14.702 27.0322 15.0071 27.4982C15.3935 28.0832 17.1827 29.7598 18.2934 30.8698C18.3122 30.8894 18.3322 30.9079 18.3532 30.9251C18.8938 31.4385 19.6133 31.7201 20.3583 31.7098C21.1032 31.6995 21.8147 31.3981 22.3409 30.8698L23.2056 30.0039C23.3689 30.0753 23.5298 30.1421 23.6931 30.2066C23.6931 31.3811 23.6931 31.4962 23.7092 31.7242C23.7825 32.4297 24.1139 33.0831 24.6395 33.5585C25.1652 34.0339 25.848 34.2977 26.5562 34.299H30.6957C31.4551 34.2978 32.183 33.995 32.7197 33.457C33.2565 32.9191 33.5582 32.1899 33.5588 31.4295V30.2066C33.7221 30.1421 33.8854 30.0753 34.0464 30.0039C34.9341 30.8929 35.5412 31.7104 36.9348 31.7104C38.5032 31.7104 39.0183 30.8123 41.8792 27.945C41.9459 27.8782 42.0103 27.8091 42.07 27.7377C42.1298 27.6664 42.1206 27.6664 42.1505 27.6272C42.5202 27.1345 42.7196 26.5346 42.7186 25.9184C42.7186 24.5205 41.893 23.9033 41.0145 23.0258C41.0858 22.8646 41.1525 22.7011 41.2169 22.5376H42.4403C43.1985 22.5339 43.9244 22.2297 44.4592 21.6916C44.994 21.1534 45.2942 20.425 45.2942 19.6657V15.5203C45.293 14.7603 44.991 14.0317 44.4543 13.4942C43.9176 12.9568 43.1901 12.6543 42.4311 12.6531H41.2077C41.1433 12.4896 41.0766 12.3261 41.0053 12.1649C41.6952 11.474 42.3253 11.0019 42.5944 10.0737H48.0769C48.5392 10.075 48.9822 10.2596 49.309 10.5872C49.6357 10.9148 49.8194 11.3587 49.82 11.8217V43.7044C49.8207 44.1613 50.002 44.5994 50.3244 44.9227C50.6468 45.246 51.084 45.4282 51.5402 45.4294ZM41.8447 16.1191V19.0808H39.9704C39.5947 19.0806 39.2291 19.2034 38.9294 19.4304C38.6297 19.6573 38.4122 19.9761 38.31 20.3382C38.0949 21.0973 37.7915 21.8285 37.4062 22.5168C37.2208 22.846 37.1483 23.227 37.1998 23.6014C37.2513 23.9757 37.424 24.3229 37.6914 24.5895L39.016 25.9184L36.9256 28.0118L35.601 26.683C35.3342 26.4159 34.9875 26.2436 34.6137 26.1924C34.24 26.1413 33.8598 26.2141 33.5312 26.3997C32.8426 26.7863 32.1109 27.0901 31.3511 27.3048C30.9895 27.4071 30.6712 27.6249 30.4446 27.9251C30.2179 28.2252 30.0953 28.5913 30.0955 28.9675V30.8445H27.1496V28.9652C27.1485 28.8812 27.1416 28.7973 27.1289 28.7142C27.13 28.7027 27.13 28.6912 27.1289 28.6797C27.0758 28.3555 26.9314 28.0532 26.7126 27.8085C26.4938 27.5637 26.2098 27.3865 25.8939 27.2979C25.135 27.0828 24.4041 26.779 23.7161 26.3928C23.3876 26.2072 23.0074 26.1344 22.6336 26.1855C22.2599 26.2367 21.9131 26.409 21.6464 26.6761L20.3218 28.0049L18.2313 25.9115L19.5605 24.5895C19.8286 24.3233 20.0018 23.9761 20.0533 23.6015C20.1049 23.2269 20.0319 22.8458 19.8457 22.5168C19.4592 21.8275 19.1558 21.0946 18.9419 20.3336C18.8398 19.9713 18.6224 19.6522 18.3227 19.4248C18.0231 19.1975 17.6575 19.0742 17.2815 19.0739H15.3981V16.1191H17.2723C17.6485 16.1195 18.0144 15.9966 18.3142 15.7691C18.6141 15.5416 18.8313 15.2221 18.9327 14.8594C19.1476 14.0987 19.4509 13.3659 19.8365 12.6761C20.0227 12.3472 20.0957 11.966 20.0441 11.5915C19.9926 11.2169 19.8194 10.8697 19.5513 10.6034L18.2267 9.27461L20.3172 7.18118L21.6418 8.51001C21.9083 8.77747 22.2549 8.95019 22.6286 9.00176C23.0024 9.05333 23.3827 8.98091 23.7115 8.79558C24.3999 8.40847 25.1317 8.10465 25.8916 7.8905C26.2525 7.7889 26.5705 7.57231 26.7975 7.27353C27.0245 6.97476 27.1481 6.61006 27.1496 6.23465V4.3577H30.107V6.23465C30.1066 6.61134 30.2294 6.97779 30.4565 7.27804C30.6837 7.57829 31.0027 7.79582 31.3649 7.89741C32.1241 8.11156 32.8552 8.41539 33.5427 8.80249C33.8715 8.98782 34.2519 9.06024 34.6256 9.00867C34.9994 8.9571 35.346 8.78438 35.6125 8.51692L36.9371 7.18809L39.0298 9.28382L37.7029 10.6103C37.4358 10.8772 37.2634 11.2243 37.2119 11.5986C37.1604 11.9729 37.2327 12.3538 37.4177 12.683C37.8051 13.372 38.1085 14.105 38.3215 14.8663C38.4237 15.2284 38.6412 15.5472 38.9409 15.7741C39.2406 16.0011 39.6062 16.1239 39.9819 16.1237L41.8447 16.1191Z" fill="#5CB9EA"/> <path d="M28.7002 34.7927C38.5264 34.7927 46.4921 27.2063 46.4921 17.8479C46.4921 8.48961 38.5264 0.903198 28.7002 0.903198C18.8739 0.903198 10.9082 8.48961 10.9082 17.8479C10.9082 27.2063 18.8739 34.7927 28.7002 34.7927Z" fill="white"/> <path d="M28.7049 0.903199C25.1857 0.902303 21.7453 1.89539 18.8187 3.75686C15.8922 5.61832 13.611 8.26455 12.2637 11.3608C10.9164 14.4571 10.5635 17.8644 11.2497 21.1517C11.9358 24.4391 13.6302 27.4587 16.1185 29.8289C18.6068 32.199 21.7773 33.8131 25.2288 34.467C28.6804 35.1209 32.2581 34.7853 35.5094 33.5026C38.7607 32.2199 41.5396 30.0477 43.4945 27.2607C45.4494 24.4738 46.4926 21.1973 46.4921 17.8457C46.4871 13.3541 44.6116 9.04785 41.277 5.87163C37.9424 2.6954 33.4211 0.908593 28.7049 0.903199ZM43.0041 17.8457C43.0037 20.5396 42.1644 23.1728 40.5926 25.4125C39.0207 27.6521 36.7868 29.3975 34.1733 30.428C31.5599 31.4585 28.6843 31.7278 25.9101 31.2018C23.136 30.6758 20.5879 29.3782 18.5881 27.473C16.5884 25.5678 15.2267 23.1406 14.6753 20.4984C14.1239 17.8562 14.4077 15.1176 15.4905 12.629C16.5734 10.1403 18.4069 8.01334 20.759 6.51707C23.1111 5.0208 25.8764 4.22241 28.7049 4.22285C32.4968 4.22705 36.132 5.6638 38.8128 8.21779C41.4936 10.7718 43.001 14.2344 43.0041 17.8457Z" fill="#5CB9EA"/> <path d="M32.9073 14.4592V9.2913C32.9076 9.07979 32.866 8.8703 32.7849 8.67483C32.7038 8.47936 32.5849 8.30176 32.4348 8.1522C32.2847 8.00263 32.1065 7.88405 31.9104 7.80324C31.7143 7.72243 31.5041 7.68099 31.2919 7.68128H27.7969C27.3685 7.68128 26.9576 7.8509 26.6546 8.15284C26.3517 8.45478 26.1815 8.86429 26.1815 9.2913V14.4592H20.9941C20.566 14.4598 20.1557 14.6296 19.8532 14.9315C19.5508 15.2334 19.3809 15.6426 19.3809 16.0692V19.627C19.3806 19.8384 19.4221 20.0477 19.503 20.243C19.584 20.4383 19.7028 20.6158 19.8526 20.7654C20.0024 20.9149 20.1804 21.0335 20.3762 21.1145C20.5721 21.1954 20.7821 21.2371 20.9941 21.2371H26.1815V26.4049C26.1815 26.8319 26.3517 27.2415 26.6546 27.5434C26.9576 27.8453 27.3685 28.015 27.7969 28.015H31.2919C31.7203 28.015 32.1312 27.8453 32.4342 27.5434C32.7371 27.2415 32.9073 26.8319 32.9073 26.4049V21.2371H38.0925C38.3053 21.2382 38.5162 21.1974 38.7131 21.117C38.91 21.0366 39.0889 20.9181 39.2397 20.7685C39.3905 20.6188 39.51 20.4409 39.5915 20.245C39.673 20.0491 39.7148 19.8391 39.7145 19.627V16.0692C39.7148 15.8577 39.6732 15.6482 39.5922 15.4527C39.5111 15.2573 39.3921 15.0797 39.242 14.9301C39.092 14.7805 38.9138 14.6619 38.7177 14.5811C38.5215 14.5003 38.3113 14.4589 38.0991 14.4592H32.9073Z" fill="#5CBF48"/> </svg>