<?xml version="1.0" encoding="UTF-8"?>
<svg xmlns="http://www.w3.org/2000/svg" width="69" height="65" viewBox="0 0 69 65" fill="none"> <path d="M32.9022 45.5319C32.1709 45.5319 31.5771 46.1256 31.5771 46.857C31.5771 47.5883 32.1709 48.182 32.9022 48.182C33.6336 48.182 34.2273 47.5883 34.2273 46.857C34.2273 46.1256 33.6336 45.5319 32.9022 45.5319Z" fill="#5CB9EA"/> <path d="M32.9022 21.6803C32.1703 21.6803 31.5771 22.2735 31.5771 23.0054V41.5567C31.5771 42.2886 32.1703 42.8818 32.9022 42.8818C33.6341 42.8818 34.2273 42.2886 34.2273 41.5567V23.0054C34.2273 22.2735 33.6341 21.6803 32.9022 21.6803Z" fill="#5CB9EA"/> <path d="M55.4282 24.3306H50.1278C49.3959 24.3306 48.8027 24.9238 48.8027 25.6557C48.8027 26.3876 49.3959 26.9808 50.1278 26.9808H55.4282C56.1601 26.9808 56.7533 26.3876 56.7533 25.6557C56.7533 24.9238 56.1601 24.3306 55.4282 24.3306Z" fill="#5CB9EA"/> <path d="M67.3536 19.0302H39.5267V16.1522C41.0692 15.6051 42.1769 14.132 42.1769 12.4047V9.75453C42.1769 7.56243 40.3937 5.77925 38.2016 5.77925H32.9012V4.45416C32.9012 2.26206 31.118 0.478882 28.9259 0.478882H14.0849C11.8928 0.478882 10.1096 2.26206 10.1096 4.45416V5.77925H4.80926C2.61717 5.77925 0.833984 7.56243 0.833984 9.75453V12.4047C0.833984 14.132 1.94168 15.6051 3.48417 16.1522V53.7103C1.94168 54.2575 0.833984 55.7306 0.833984 57.4579V60.1081C0.833984 62.3001 2.61717 64.0833 4.80926 64.0833H38.2016C40.3937 64.0833 42.1769 62.3001 42.1769 60.1081V57.4579C42.1769 55.7306 41.0692 54.2575 39.5267 53.7103V50.8324H54.1027C54.1053 50.8324 54.2228 50.8324 54.3791 50.8308C55.0049 50.8257 55.5417 50.3831 55.6664 49.7697C56.0189 48.0321 56.7405 46.4285 57.8109 45.0025C60.0879 41.9703 63.5662 40.2317 67.3536 40.2317C68.0855 40.2317 68.6787 39.6385 68.6787 38.9066V20.3553C68.6787 19.6234 68.0855 19.0302 67.3536 19.0302ZM6.13435 53.4826V48.1822H22.3005C23.0324 48.1822 23.6256 47.589 23.6256 46.8571V23.0055C23.6256 22.2736 23.0324 21.6804 22.3005 21.6804H6.13435V16.38H36.8765V53.4826H6.13435ZM6.13435 24.3305H20.9754V45.532H6.13435V24.3305ZM12.7598 4.45416C12.7598 3.72329 13.354 3.12907 14.0849 3.12907H28.9259C29.6568 3.12907 30.251 3.72329 30.251 4.45416V5.77925H12.7598V4.45416ZM3.48417 9.75453C3.48417 9.02366 4.07839 8.42944 4.80926 8.42944H38.2016C38.9325 8.42944 39.5267 9.02366 39.5267 9.75453V12.4047C39.5267 13.1356 38.9325 13.7298 38.2016 13.7298H4.80926C4.07839 13.7298 3.48417 13.1356 3.48417 12.4047V9.75453ZM39.5267 60.1081C39.5267 60.8389 38.9325 61.4331 38.2016 61.4331H4.80926C4.07839 61.4331 3.48417 60.8389 3.48417 60.1081V57.4579C3.48417 56.727 4.07839 56.1328 4.80926 56.1328H38.2016C38.9325 56.1328 39.5267 56.727 39.5267 57.4579V60.1081ZM56.1095 42.8818H50.1274C49.3955 42.8818 48.8023 43.475 48.8023 44.2069C48.8023 44.9388 49.3955 45.5305 50.1274 45.5305H54.3729C53.9402 46.3788 53.5866 47.2691 53.3273 48.1822H39.5267V45.532H43.502C44.2339 45.532 44.8271 44.9388 44.8271 44.2069C44.8271 43.475 44.2339 42.8818 43.502 42.8818H39.5267V26.9807H43.502C44.2339 26.9807 44.8271 26.3875 44.8271 25.6556C44.8271 24.9237 44.2339 24.3305 43.502 24.3305H39.5267V21.6804H66.0285V24.3305H62.0533C61.3214 24.3305 60.7282 24.9237 60.7282 25.6556C60.7282 26.3875 61.3214 26.9807 62.0533 26.9807H66.0285V37.64C62.1418 37.9857 58.6085 39.8466 56.1095 42.8818Z" fill="#5CB9EA"/> <mask id="mask0" mask-type="alpha" maskUnits="userSpaceOnUse" x="0" y="0" width="69" height="65"> <path d="M32.912 45.5161C32.1806 45.5161 31.5869 46.1098 31.5869 46.8412C31.5869 47.5726 32.1806 48.1663 32.912 48.1663C33.6434 48.1663 34.2371 47.5726 34.2371 46.8412C34.2371 46.1098 33.6434 45.5161 32.912 45.5161Z" fill="#5CB9EA"/> <path d="M32.912 21.6646C32.1801 21.6646 31.5869 22.2577 31.5869 22.9896V41.5409C31.5869 42.2728 32.1801 42.866 32.912 42.866C33.6439 42.866 34.2371 42.2728 34.2371 41.5409V22.9896C34.2371 22.2577 33.6439 21.6646 32.912 21.6646Z" fill="#5CB9EA"/> <path d="M55.438 24.3148H50.1376C49.4057 24.3148 48.8125 24.908 48.8125 25.6399C48.8125 26.3718 49.4057 26.965 50.1376 26.965H55.438C56.1699 26.965 56.7631 26.3718 56.7631 25.6399C56.7631 24.908 56.1699 24.3148 55.438 24.3148Z" fill="#5CB9EA"/> <path d="M67.3634 19.0144H39.5365V16.1365C41.0789 15.5894 42.1866 14.1162 42.1866 12.389V9.73878C42.1866 7.54669 40.4035 5.7635 38.2114 5.7635H32.911V4.43841C32.911 2.24632 31.1278 0.463135 28.9357 0.463135H14.0947C11.9026 0.463135 10.1194 2.24632 10.1194 4.43841V5.7635H4.81903C2.62693 5.7635 0.84375 7.54669 0.84375 9.73878V12.389C0.84375 14.1162 1.95144 15.5894 3.49394 16.1365V53.6946C1.95144 54.2417 0.84375 55.7148 0.84375 57.4421V60.0923C0.84375 62.2844 2.62693 64.0676 4.81903 64.0676H38.2114C40.4035 64.0676 42.1866 62.2844 42.1866 60.0923V57.4421C42.1866 55.7148 41.0789 54.2417 39.5365 53.6946V50.8167H54.1125C54.1151 50.8167 54.2326 50.8167 54.3889 50.8151C55.0147 50.8099 55.5514 50.3674 55.6762 49.754C56.0287 48.0164 56.7502 46.4128 57.8207 44.9868C60.0976 41.9546 63.576 40.2159 67.3634 40.2159C68.0953 40.2159 68.6885 39.6227 68.6885 38.8908V20.3395C68.6885 19.6076 68.0953 19.0144 67.3634 19.0144ZM6.14412 53.4668V48.1665H22.3103C23.0422 48.1665 23.6353 47.5733 23.6353 46.8414V22.9897C23.6353 22.2578 23.0422 21.6646 22.3103 21.6646H6.14412V16.3642H36.8863V53.4668H6.14412ZM6.14412 24.3148H20.9852V45.5163H6.14412V24.3148ZM12.7696 4.43841C12.7696 3.70754 13.3638 3.11332 14.0947 3.11332H28.9357C29.6666 3.11332 30.2608 3.70754 30.2608 4.43841V5.7635H12.7696V4.43841ZM3.49394 9.73878C3.49394 9.00791 4.08816 8.41369 4.81903 8.41369H38.2114C38.9422 8.41369 39.5365 9.00791 39.5365 9.73878V12.389C39.5365 13.1198 38.9422 13.7141 38.2114 13.7141H4.81903C4.08816 13.7141 3.49394 13.1198 3.49394 12.389V9.73878ZM39.5365 60.0923C39.5365 60.8232 38.9422 61.4174 38.2114 61.4174H4.81903C4.08816 61.4174 3.49394 60.8232 3.49394 60.0923V57.4421C3.49394 56.7112 4.08816 56.117 4.81903 56.117H38.2114C38.9422 56.117 39.5365 56.7112 39.5365 57.4421V60.0923ZM56.1193 42.8661H50.1372C49.4053 42.8661 48.8121 43.4593 48.8121 44.1912C48.8121 44.9231 49.4053 45.5147 50.1372 45.5147H54.3827C53.9499 46.3631 53.5964 47.2534 53.3371 48.1665H39.5365V45.5163H43.5117C44.2436 45.5163 44.8368 44.9231 44.8368 44.1912C44.8368 43.4593 44.2436 42.8661 43.5117 42.8661H39.5365V26.965H43.5117C44.2436 26.965 44.8368 26.3718 44.8368 25.6399C44.8368 24.908 44.2436 24.3148 43.5117 24.3148H39.5365V21.6646H66.0383V24.3148H62.063C61.3311 24.3148 60.7379 24.908 60.7379 25.6399C60.7379 26.3718 61.3311 26.965 62.063 26.965H66.0383V37.6242C62.1515 37.97 58.6183 39.8308 56.1193 42.8661Z" fill="#5CB9EA"/> </mask> <g mask="url(#mask0)"> <path d="M39.5332 18.7928C40.6266 18.0118 43.0012 16.3187 43.751 15.7938H70.6486V51.5011H39.5332V18.7928Z" fill="#5CBF48"/> </g> </svg>