<?xml version="1.0" encoding="UTF-8"?>
<svg xmlns="http://www.w3.org/2000/svg" width="48" height="63" viewBox="0 0 48 63" fill="none"> <path d="M0.283203 14.9433V16.069H2.53453V13.8176H1.40887C0.787223 13.8176 0.283203 14.3216 0.283203 14.9433Z" fill="#5CBF48"/> <path fill-rule="evenodd" clip-rule="evenodd" d="M0.183594 16.169V14.9433C0.183594 14.2664 0.732386 13.7177 1.40926 13.7177H2.63492V16.169H0.183594ZM0.283594 16.069V14.9433C0.283594 14.3217 0.787614 13.8177 1.40926 13.8177H2.53492V16.069H0.283594Z" fill="#5CBF48"/> <path d="M0.283203 36.8646H2.53453V39.1753H0.283203V36.8646Z" fill="#5CBF48"/> <path fill-rule="evenodd" clip-rule="evenodd" d="M0.183594 36.7646H2.63492V39.2753H0.183594V36.7646ZM0.283594 36.8646V39.1753H2.53492V36.8646H0.283594Z" fill="#5CBF48"/> <path d="M0.283203 32.2427H2.53453V34.5534H0.283203V32.2427Z" fill="#5CBF48"/> <path fill-rule="evenodd" clip-rule="evenodd" d="M0.183594 32.1427H2.63492V34.6534H0.183594V32.1427ZM0.283594 32.2427V34.5534H2.53492V32.2427H0.283594Z" fill="#5CBF48"/> <path d="M0.283203 46.1074H2.53453V48.4181H0.283203V46.1074Z" fill="#5CBF48"/> <path fill-rule="evenodd" clip-rule="evenodd" d="M0.183594 46.0074H2.63492V48.5181H0.183594V46.0074ZM0.283594 46.1074V48.4181H2.53492V46.1074H0.283594Z" fill="#5CBF48"/> <path d="M0.283203 41.4855H2.53453V43.7962H0.283203V41.4855Z" fill="#5CBF48"/> <path fill-rule="evenodd" clip-rule="evenodd" d="M0.183594 41.3855H2.63492V43.8962H0.183594V41.3855ZM0.283594 41.4855V43.7962H2.53492V41.4855H0.283594Z" fill="#5CBF48"/> <path d="M0.283203 27.623H2.53453V29.9326H0.283203V27.623Z" fill="#5CBF48"/> <path fill-rule="evenodd" clip-rule="evenodd" d="M0.183594 27.5231H2.63492V30.0327H0.183594V27.5231ZM0.283594 27.6231V29.9327H2.53492V27.6231H0.283594Z" fill="#5CBF48"/> <path d="M0.283203 55.3491H2.53453V57.6604H0.283203V55.3491Z" fill="#5CBF48"/> <path fill-rule="evenodd" clip-rule="evenodd" d="M0.183594 55.2491H2.63492V57.7604H0.183594V55.2491ZM0.283594 55.3491V57.6604H2.53492V55.3491H0.283594Z" fill="#5CBF48"/> <path d="M0.283203 23.0011H2.53453V25.3118H0.283203V23.0011Z" fill="#5CBF48"/> <path fill-rule="evenodd" clip-rule="evenodd" d="M0.183594 22.9011H2.63492V25.4118H0.183594V22.9011ZM0.283594 23.0011V25.3118H2.53492V23.0011H0.283594Z" fill="#5CBF48"/> <path d="M0.283203 50.7283H2.53453V53.0379H0.283203V50.7283Z" fill="#5CBF48"/> <path fill-rule="evenodd" clip-rule="evenodd" d="M0.183594 50.6283H2.63492V53.1379H0.183594V50.6283ZM0.283594 50.7283V53.0379H2.53492V50.7283H0.283594Z" fill="#5CBF48"/> <path d="M0.283203 18.3802H2.53453V20.6909H0.283203V18.3802Z" fill="#5CBF48"/> <path fill-rule="evenodd" clip-rule="evenodd" d="M0.183594 18.2803H2.63492V20.791H0.183594V18.2803ZM0.283594 18.3803V20.691H2.53492V18.3803H0.283594Z" fill="#5CBF48"/> <path d="M0.283203 61.0955C0.283203 61.7172 0.787223 62.2212 1.40887 62.2212H2.53453V59.9698H0.283203V61.0955Z" fill="#5CBF48"/> <path fill-rule="evenodd" clip-rule="evenodd" d="M2.63492 62.3212H1.40926C0.732386 62.3212 0.183594 61.7724 0.183594 61.0955V59.8699H2.63492V62.3212ZM0.283594 61.0955C0.283594 61.7172 0.787614 62.2212 1.40926 62.2212H2.53492V59.9699H0.283594V61.0955Z" fill="#5CBF48"/> <path d="M9.28906 59.9698H11.5404V62.2212H9.28906V59.9698Z" fill="#5CBF48"/> <path fill-rule="evenodd" clip-rule="evenodd" d="M9.18945 59.8699H11.6408V62.3212H9.18945V59.8699ZM9.28945 59.9699V62.2212H11.5408V59.9699H9.28945Z" fill="#5CBF48"/> <path d="M13.791 59.9698H16.0423V62.2212H13.791V59.9698Z" fill="#5CBF48"/> <path fill-rule="evenodd" clip-rule="evenodd" d="M13.6914 59.8699H16.1427V62.3212H13.6914V59.8699ZM13.7914 59.9699V62.2212H16.0427V59.9699H13.7914Z" fill="#5CBF48"/> <path d="M22.7969 59.9698H25.0482V62.2212H22.7969V59.9698Z" fill="#5CBF48"/> <path fill-rule="evenodd" clip-rule="evenodd" d="M22.6963 59.8699H25.1476V62.3212H22.6963V59.8699ZM22.7963 59.9699V62.2212H25.0476V59.9699H22.7963Z" fill="#5CBF48"/> <path d="M27.2998 59.9698H29.5511V62.2212H27.2998V59.9698Z" fill="#5CBF48"/> <path fill-rule="evenodd" clip-rule="evenodd" d="M27.2002 59.8699H29.6515V62.3212H27.2002V59.8699ZM27.3002 59.9699V62.2212H29.5515V59.9699H27.3002Z" fill="#5CBF48"/> <path d="M18.2939 59.9698H20.5453V62.2212H18.2939V59.9698Z" fill="#5CBF48"/> <path fill-rule="evenodd" clip-rule="evenodd" d="M18.1943 59.8699H20.6457V62.3212H18.1943V59.8699ZM18.2943 59.9699V62.2212H20.5457V59.9699H18.2943Z" fill="#5CBF48"/> <path d="M4.78613 59.9698H7.03746V62.2212H4.78613V59.9698Z" fill="#5CBF48"/> <path fill-rule="evenodd" clip-rule="evenodd" d="M4.68555 59.8699H7.13687V62.3212H4.68555V59.8699ZM4.78555 59.9699V62.2212H7.03687V59.9699H4.78555Z" fill="#5CBF48"/> <path d="M31.8018 62.2212H32.9274C33.5491 62.2212 34.0531 61.7172 34.0531 61.0955V59.9698H31.8018V62.2212Z" fill="#5CBF48"/> <path fill-rule="evenodd" clip-rule="evenodd" d="M31.7021 62.3212V59.8699H34.1535V61.0955C34.1535 61.7724 33.6047 62.3212 32.9278 62.3212H31.7021ZM31.8021 62.2212V59.9699H34.0535V61.0955C34.0535 61.7172 33.5495 62.2212 32.9278 62.2212H31.8021Z" fill="#5CBF48"/> <path d="M31.8018 56.5929H34.0531V58.8442H31.8018V56.5929Z" fill="#5CBF48"/> <path fill-rule="evenodd" clip-rule="evenodd" d="M31.7021 56.4929H34.1535V58.9442H31.7021V56.4929ZM31.8021 56.5929V58.8442H34.0535V56.5929H31.8021Z" fill="#5CBF48"/> <path d="M3.66016 13.8176H5.91148V16.069H3.66016V13.8176Z" fill="#5CBF48"/> <path fill-rule="evenodd" clip-rule="evenodd" d="M3.56055 13.7177H6.01187V16.169H3.56055V13.7177ZM3.66055 13.8177V16.069H5.91187V13.8177H3.66055Z" fill="#5CBF48"/> <path d="M47.4878 13.4505C47.4773 13.4148 47.4647 13.3796 47.4504 13.345C47.3976 13.2268 47.3251 13.1185 47.2355 13.0251L34.8532 0.642775C34.7597 0.552084 34.6504 0.478982 34.5311 0.426766C34.5003 0.413025 34.4679 0.401482 34.4355 0.392139C34.3349 0.355862 34.2293 0.334426 34.1227 0.32893C34.0936 0.320685 34.0754 0.309692 34.054 0.309692H14.9177C14.2961 0.309692 13.7921 0.813713 13.7921 1.43536V7.06367H8.16375C7.54211 7.06367 7.03809 7.56769 7.03809 8.18934V54.3415C7.03809 54.9632 7.54211 55.4672 8.16375 55.4672H39.6823C40.304 55.4672 40.808 54.9632 40.808 54.3415V48.7132H46.4363C47.058 48.7132 47.562 48.2092 47.562 47.5876V13.8177C47.562 13.7929 47.5493 13.7726 47.5482 13.7479C47.5416 13.6467 47.5213 13.5467 47.4878 13.4505ZM35.1797 4.15278L43.7189 12.692H35.1797V4.15278ZM38.5567 53.2159H9.28941V9.315H13.7921V47.5876C13.7921 48.2092 14.2961 48.7132 14.9177 48.7132H38.5567V53.2159ZM45.3106 46.4619H16.0434V2.56102H32.9283V13.8177C32.9283 14.4393 33.4324 14.9433 34.054 14.9433H45.3106V46.4619Z" fill="#5CB9EA"/> <path fill-rule="evenodd" clip-rule="evenodd" d="M47.4498 13.345C47.4641 13.3796 47.4767 13.4148 47.4872 13.4505C47.5207 13.5467 47.541 13.6467 47.5476 13.7479C47.5482 13.7597 47.5514 13.7706 47.5545 13.7814C47.558 13.7931 47.5614 13.8048 47.5614 13.8177V47.5876C47.5614 48.2092 47.0574 48.7133 46.4357 48.7133H40.8074V54.3416C40.8074 54.9632 40.3034 55.4672 39.6817 55.4672H8.16316C7.54152 55.4672 7.0375 54.9632 7.0375 54.3416V8.18936C7.0375 7.56772 7.54152 7.0637 8.16316 7.0637H13.7915V1.43538C13.7915 0.813737 14.2955 0.309717 14.9171 0.309717H34.0534C34.0672 0.309717 34.0796 0.314263 34.0945 0.3197C34.1027 0.322719 34.1117 0.326011 34.1221 0.328954C34.2288 0.334451 34.3343 0.355887 34.4349 0.392163C34.4673 0.401507 34.4997 0.413049 34.5305 0.42679C34.6498 0.479006 34.7592 0.552108 34.8526 0.642799L47.2349 13.0251C47.3245 13.1185 47.397 13.2268 47.4498 13.345ZM34.4657 0.296992C34.3609 0.259515 34.2512 0.236756 34.14 0.229813C34.1376 0.22897 34.1352 0.228081 34.1323 0.227026C34.1286 0.225652 34.1241 0.223998 34.1178 0.221802C34.1042 0.217075 34.0814 0.209717 34.0534 0.209717H14.9171C14.2403 0.209717 13.6915 0.758509 13.6915 1.43538V6.9637H8.16316C7.48629 6.9637 6.9375 7.51249 6.9375 8.18936V54.3416C6.9375 55.0184 7.48629 55.5672 8.16316 55.5672H39.6817C40.3586 55.5672 40.9074 55.0184 40.9074 54.3416V48.8133H46.4357C47.1126 48.8133 47.6614 48.2645 47.6614 47.5876V13.8177C47.6614 13.7892 47.654 13.7651 47.6509 13.7547C47.648 13.7449 47.6475 13.7424 47.6475 13.7424L47.6474 13.7414C47.6403 13.632 47.6184 13.5239 47.5824 13.42M35.1791 4.1528V12.692H43.7183L35.1791 4.1528ZM35.2791 4.39422L43.4769 12.592H35.2791V4.39422ZM9.38883 53.1159H38.4561V48.8133H14.9171C14.2403 48.8133 13.6915 48.2645 13.6915 47.5876V9.41503H9.38883V53.1159ZM16.1428 46.3619H45.2101V15.0433H34.0534C33.3766 15.0433 32.8278 14.4946 32.8278 13.8177V2.66104H16.1428V46.3619ZM38.5561 53.2159V48.7133H14.9171C14.2955 48.7133 13.7915 48.2092 13.7915 47.5876V9.31503H9.28883V53.2159H38.5561ZM45.3101 46.4619V14.9433H34.0534C33.4318 14.9433 32.9278 14.4393 32.9278 13.8177V2.56104H16.0428V46.4619H45.3101Z" fill="#5CB9EA"/> <path d="M22.7969 27.3257C22.7969 31.6777 26.3245 35.2053 30.6765 35.2053C35.0286 35.2053 38.5562 31.6777 38.5562 27.3257C38.5562 22.9736 35.0286 19.446 30.6765 19.446C26.3267 19.451 22.8018 22.9758 22.7969 27.3257ZM36.3048 27.3257C36.3048 30.4339 33.7847 32.954 30.6765 32.954C27.5683 32.954 25.0482 30.4339 25.0482 27.3257C25.0482 24.2175 27.5683 21.6974 30.6765 21.6974C33.7836 21.7012 36.301 24.2186 36.3048 27.3257Z" fill="#5CBF48"/> <path fill-rule="evenodd" clip-rule="evenodd" d="M22.6963 27.3257V27.3256C22.7013 22.9206 26.2708 19.3511 30.6758 19.3461L30.6759 19.3461C35.0832 19.3461 38.6556 22.9184 38.6556 27.3257C38.6556 31.733 35.0832 35.3054 30.6759 35.3054C26.2687 35.3054 22.6963 31.733 22.6963 27.3257ZM30.6759 19.4461C35.028 19.4461 38.5556 22.9737 38.5556 27.3257C38.5556 31.6778 35.028 35.2054 30.6759 35.2054C26.3239 35.2054 22.7963 31.6778 22.7963 27.3257C22.8012 22.9759 26.3261 19.451 30.6759 19.4461ZM30.6759 32.854C33.7289 32.854 36.2042 30.3788 36.2043 27.3258C36.2005 24.2739 33.7278 21.8012 30.6758 21.7974C27.6229 21.7975 25.1476 24.2728 25.1476 27.3257C25.1476 30.3787 27.6229 32.854 30.6759 32.854ZM36.3043 27.3257C36.3043 30.4339 33.7842 32.954 30.6759 32.954C27.5677 32.954 25.0476 30.4339 25.0476 27.3257C25.0476 24.2175 27.5677 21.6974 30.6759 21.6974C33.7831 21.7012 36.3004 24.2186 36.3043 27.3257Z" fill="#5CBF48"/> <path d="M29.5511 23.9486V26.1999H27.2998V28.4513H29.5511V30.7026H31.8025V28.4513H34.0538V26.1999H31.8025V23.9486H29.5511Z" fill="#5CBF48"/> <path fill-rule="evenodd" clip-rule="evenodd" d="M29.4515 23.8486H31.9028V26.1H34.1542V28.5513H31.9028V30.8026H29.4515V28.5513H27.2002V26.1H29.4515V23.8486ZM29.5515 23.9486H31.8028V26.2H34.0542V28.4513H31.8028V30.7026H29.5515V28.4513H27.3002V26.2H29.5515V23.9486Z" fill="#5CBF48"/> </svg>