<?xml version="1.0" encoding="UTF-8"?>
<svg xmlns="http://www.w3.org/2000/svg" width="63" height="63" viewBox="0 0 63 63" fill="none"> <path d="M29.2101 0.559692H61.8334V53.4106H41.4665H41.2165V53.6606V61.9712H0.421875V17.2916L8.59321 9.12041H20.7888H21.0388V8.87041V8.73103L29.2101 0.559692ZM30.5594 4.23708V3.63352L30.1326 4.06031L24.5394 9.65362L24.1126 10.0804H24.7162H30.3094H30.5594V9.8304V4.23708ZM9.94246 12.7977V12.1941L9.51568 12.6209L3.92249 18.2142L3.49572 18.641H4.09926H9.69246H9.94246V18.391V12.7977ZM37.8389 58.8436H38.0889V58.5936V53.6605V53.4105H37.8389H21.0388V43.7844V43.5344H20.7888H9.26929V40.4068H20.7888H21.0388V40.1568V36.5291V36.2791H20.7888H9.26929V33.1515H20.7888H21.0388V32.9015V29.2739V29.0239H20.7888H9.26929V25.8962H20.7888H21.0388V25.6462V12.498V12.248H20.7888H13.3201H13.0701V12.498V21.7686H3.7995H3.5495V22.0186V58.5936V58.8436H3.7995H37.8389ZM58.4557 50.283H58.7057V50.033V3.93732V3.68732H58.4557H33.937H33.687V3.93732V13.208H24.4164H24.1664V13.458V50.033V50.283H24.4164H58.4557Z" fill="#5CB9EA" stroke="white" stroke-width="0.5"/> <path d="M29.8857 17.3354H52.9854V20.4631H29.8857V17.3354Z" fill="#5CBF48" stroke="white" stroke-width="0.5"/> <path d="M29.8857 24.5908H52.9854V27.7184H29.8857V24.5908Z" fill="#5CBF48" stroke="white" stroke-width="0.5"/> <path d="M29.8857 31.8459H52.9854V34.9736H29.8857V31.8459Z" fill="#5CBF48" stroke="white" stroke-width="0.5"/> <rect x="9.52344" y="26.1489" width="11.7573" height="2.62798" fill="#5CBF48"/> <rect x="9.52344" y="33.4098" width="11.7573" height="2.62798" fill="#5CBF48"/> <rect x="9.52344" y="40.6707" width="11.7573" height="2.62798" fill="#5CBF48"/> </svg>