<?xml version="1.0" encoding="UTF-8"?>
<svg xmlns="http://www.w3.org/2000/svg" width="65" height="65" viewBox="0 0 65 65" fill="none"> <path d="M32.1069 0.413135C14.5438 0.413135 0.254687 14.7022 0.254687 32.2654C0.254687 49.8285 14.5438 64.1176 32.1069 64.1176C49.6701 64.1176 63.9592 49.8285 63.9592 32.2654C63.9592 14.7022 49.6701 0.413135 32.1069 0.413135ZM32.1069 61.7859C15.8292 61.7859 2.58637 48.5431 2.58637 32.2654C2.58637 15.9876 15.8292 2.74482 32.1069 2.74482C48.3847 2.74482 61.6275 15.9876 61.6275 32.2654C61.6275 48.5431 48.3847 61.7859 32.1069 61.7859Z" fill="#5CB9EA" stroke="#5CB9EA" stroke-width="0.1"/> <path d="M32.1066 24.9622C28.0797 24.9622 24.8035 28.2385 24.8035 32.2653C24.8035 36.2922 28.0798 39.5684 32.1066 39.5684C36.1335 39.5684 39.4097 36.2921 39.4097 32.2653C39.4097 28.2384 36.1335 24.9622 32.1066 24.9622ZM32.1066 37.2367C29.3653 37.2367 27.1352 35.0066 27.1352 32.2653C27.1352 29.5239 29.3653 27.2939 32.1066 27.2939C34.848 27.2939 37.078 29.5239 37.078 32.2653C37.078 35.0066 34.848 37.2367 32.1066 37.2367Z" fill="#5CB9EA" stroke="#5CBF48" stroke-width="0.1"/> <path d="M32.1063 20.4987C25.6178 20.4987 20.3396 25.7769 20.3396 32.2653C20.3396 38.7537 25.6178 44.0319 32.1063 44.0319C38.5947 44.0319 43.8729 38.7537 43.8729 32.2653C43.8729 25.7769 38.5947 20.4987 32.1063 20.4987ZM32.1063 41.7003C26.9044 41.7003 22.6713 37.4672 22.6713 32.2653C22.6713 27.0634 26.9044 22.8304 32.1063 22.8304C37.3081 22.8304 41.5412 27.0634 41.5412 32.2653C41.5412 37.4672 37.3081 41.7003 32.1063 41.7003Z" fill="#5CBF48" stroke="#5CBF48" stroke-width="0.1"/> <path d="M32.1066 24.9623C28.0797 24.9623 24.8035 28.2387 24.8035 32.2654C24.8035 36.2923 28.0798 39.5685 32.1066 39.5685C36.1335 39.5685 39.4097 36.2922 39.4097 32.2654C39.4097 28.2385 36.1335 24.9623 32.1066 24.9623ZM32.1066 37.2368C29.3653 37.2368 27.1352 35.0068 27.1352 32.2654C27.1352 29.5241 29.3653 27.294 32.1066 27.294C34.848 27.294 37.078 29.5241 37.078 32.2654C37.078 35.0068 34.848 37.2368 32.1066 37.2368Z" fill="#5CB9EA" stroke="#5CB9EA" stroke-width="0.1"/> <mask id="path-5-outside-1" maskUnits="userSpaceOnUse" x="5.8584" y="8.48096" width="15" height="18" fill="black"> <rect fill="white" x="5.8584" y="8.48096" width="15" height="18"/> <path d="M19.9697 10.0267C19.6539 9.49689 18.9694 9.32248 18.4399 9.63861C12.8191 12.9851 8.72206 18.2713 6.90311 24.524C6.73099 25.1157 7.07098 25.7347 7.66269 25.9069C7.76616 25.9373 7.87192 25.9515 7.97424 25.9515C8.45824 25.9515 8.90383 25.6354 9.04489 25.1474C10.7058 19.4395 14.448 14.612 19.5815 11.5565C20.1114 11.2415 20.2845 10.5561 19.9697 10.0267Z"/> </mask> <path d="M19.9697 10.0267C19.6539 9.49689 18.9694 9.32248 18.4399 9.63861C12.8191 12.9851 8.72206 18.2713 6.90311 24.524C6.73099 25.1157 7.07098 25.7347 7.66269 25.9069C7.76616 25.9373 7.87192 25.9515 7.97424 25.9515C8.45824 25.9515 8.90383 25.6354 9.04489 25.1474C10.7058 19.4395 14.448 14.612 19.5815 11.5565C20.1114 11.2415 20.2845 10.5561 19.9697 10.0267Z" fill="#5CBF48"/> <path d="M19.9697 10.0267L20.0557 9.97554L20.0556 9.97545L19.9697 10.0267ZM18.4399 9.63861L18.4911 9.72453L18.4912 9.72447L18.4399 9.63861ZM6.90311 24.524L6.80709 24.4961L6.80709 24.4961L6.90311 24.524ZM7.66269 25.9069L7.69089 25.8109L7.69062 25.8108L7.66269 25.9069ZM9.04489 25.1474L8.94887 25.1195L8.94882 25.1197L9.04489 25.1474ZM19.5815 11.5565L19.5304 11.4705L19.5304 11.4705L19.5815 11.5565ZM20.0556 9.97545C19.7116 9.39843 18.9657 9.20817 18.3887 9.55275L18.4912 9.72447C18.973 9.43679 19.5962 9.59535 19.8838 10.0779L20.0556 9.97545ZM18.3888 9.55268C12.7463 12.912 8.63315 18.2189 6.80709 24.4961L6.99913 24.5519C8.81097 18.3236 12.8919 13.0581 18.4911 9.72453L18.3888 9.55268ZM6.80709 24.4961C6.61954 25.1408 6.99001 25.8153 7.63476 26.0029L7.69062 25.8108C7.15195 25.6541 6.84243 25.0906 6.99913 24.5519L6.80709 24.4961ZM7.6345 26.0028C7.74749 26.036 7.86276 26.0515 7.97424 26.0515V25.8515C7.88108 25.8515 7.78484 25.8385 7.69089 25.8109L7.6345 26.0028ZM7.97424 26.0515C8.50136 26.0515 8.98714 25.7072 9.14095 25.1752L8.94882 25.1197C8.82051 25.5635 8.41512 25.8515 7.97424 25.8515V26.0515ZM9.14091 25.1754C10.7947 19.4919 14.5208 14.685 19.6327 11.6424L19.5304 11.4705C14.3752 14.5389 10.6169 19.3871 8.94887 25.1195L9.14091 25.1754ZM19.6326 11.6424C20.2101 11.2991 20.3986 10.5523 20.0557 9.97554L19.8838 10.0778C20.1704 10.5599 20.0127 11.1838 19.5304 11.4705L19.6326 11.6424Z" fill="#5CBF48" mask="url(#path-5-outside-1)"/> </svg>