<?xml version="1.0" encoding="UTF-8"?>
<svg xmlns="http://www.w3.org/2000/svg" width="49" height="49" viewBox="0 0 49 49" fill="none"> <g clip-path="url(#clip0)"> <path d="M22.2168 2.09229H26.2168V10.0923H22.2168V2.09229Z" fill="#99E6FD"/> <path d="M18.2168 0.0922852H30.2168V4.09229H18.2168V0.0922852Z" fill="#5CB9EA"/> <path d="M34.7959 12.6775L38.7954 8.67799L41.6234 11.506L37.6239 15.5055L34.7959 12.6775Z" fill="#99E6FD"/> <path d="M6.7998 11.5066L9.62781 8.67859L13.6273 12.6781L10.7993 15.5061L6.7998 11.5066Z" fill="#99E6FD"/> <path d="M24.2168 46.0923C34.1579 46.0923 42.2168 38.0334 42.2168 28.0923C42.2168 18.1512 34.1579 10.0923 24.2168 10.0923C14.2757 10.0923 6.2168 18.1512 6.2168 28.0923C6.2168 38.0334 14.2757 46.0923 24.2168 46.0923Z" fill="white"/> <path d="M24.2168 48.0923C20.2612 48.0923 16.3944 46.9193 13.1054 44.7217C9.81642 42.5241 7.25297 39.4005 5.73922 35.746C4.22546 32.0914 3.8294 28.0701 4.6011 24.1905C5.3728 20.3109 7.27762 16.7472 10.0747 13.9502C12.8717 11.1531 16.4354 9.24829 20.315 8.47659C24.1946 7.70488 28.216 8.10095 31.8705 9.6147C35.525 11.1285 38.6486 13.6919 40.8462 16.9809C43.0438 20.2699 44.2168 24.1367 44.2168 28.0923C44.2108 33.3948 42.1018 38.4784 38.3524 42.2279C34.6029 45.9773 29.5193 48.0863 24.2168 48.0923ZM24.2168 12.0923C21.0523 12.0923 17.9589 13.0307 15.3277 14.7888C12.6965 16.5469 10.6457 19.0457 9.43473 21.9694C8.22373 24.893 7.90688 28.11 8.52424 31.2137C9.14161 34.3174 10.6655 37.1684 12.9031 39.406C15.1407 41.6436 17.9917 43.1675 21.0954 43.7849C24.1991 44.4022 27.4161 44.0854 30.3397 42.8744C33.2634 41.6634 35.7622 39.6126 37.5203 36.9814C39.2784 34.3502 40.2168 31.2568 40.2168 28.0923C40.212 23.8503 38.5248 19.7834 35.5253 16.7838C32.5257 13.7843 28.4588 12.0971 24.2168 12.0923Z" fill="#5CB9EA"/> <path d="M24.2168 16.0923V28.0923H12.2168C12.2168 30.4657 12.9206 32.7857 14.2392 34.7591C15.5577 36.7325 17.4319 38.2706 19.6246 39.1788C21.8173 40.0871 24.2301 40.3247 26.5579 39.8617C28.8857 39.3987 31.0239 38.2558 32.7021 36.5776C34.3803 34.8993 35.5232 32.7611 35.9862 30.4334C36.4492 28.1056 36.2116 25.6928 35.3034 23.5001C34.3951 21.3074 32.857 19.4332 30.8836 18.1147C28.9103 16.7961 26.5902 16.0923 24.2168 16.0923Z" fill="url(#paint0_linear)"/> </g> <defs> <linearGradient id="paint0_linear" x1="16.9743" y1="37.8203" x2="33.9448" y2="20.8498" gradientUnits="userSpaceOnUse"> <stop stop-color="#5CB9EA"/> <stop offset="1" stop-color="#5CBF48" stop-opacity="0.38"/> </linearGradient> <clipPath id="clip0"> <rect width="48" height="48" fill="white" transform="translate(0.216797 0.0922852)"/> </clipPath> </defs> </svg>