<?xml version="1.0" encoding="UTF-8"?> <svg xmlns="http://www.w3.org/2000/svg" width="93" height="131" viewBox="0 0 93 131" fill="none"> <path d="M92.3755 130.482H2.95103V111.119L44.1426 67.8146C54.2938 56.2551 59.3695 47.0721 59.3695 40.2655C59.3695 34.7498 58.1666 30.5544 55.7608 27.6792C53.355 24.804 49.8637 23.3664 45.2869 23.3664C40.7687 23.3664 37.1013 25.3028 34.2848 29.1755C31.4683 32.9895 30.06 37.7717 30.06 43.5221H0.310547C0.310547 35.6593 2.27624 28.4127 6.20764 21.7821C10.139 15.0929 15.596 9.87058 22.5787 6.11522C29.5613 2.35986 37.3654 0.482178 45.991 0.482178C59.8389 0.482178 70.4888 3.6801 77.9409 10.0759C85.4516 16.4718 89.207 25.6548 89.207 37.625C89.207 42.6713 88.2681 47.6002 86.3904 52.4118C84.5128 57.1646 81.5789 62.1816 77.5888 67.4625C73.6574 72.6848 67.2909 79.6968 58.4893 88.4984L41.9422 107.598H92.3755V130.482Z" fill="url(#paint0_linear)"></path> <defs> <linearGradient id="paint0_linear" x1="46.343" y1="0.482178" x2="46.343" y2="130.482" gradientUnits="userSpaceOnUse"> <stop stop-color="#7DD1FE" stop-opacity="0.76"></stop> <stop offset="0.817708" stop-color="#78C7F1" stop-opacity="0"></stop> </linearGradient> </defs> </svg> 