<?xml version="1.0" encoding="UTF-8"?> <svg xmlns="http://www.w3.org/2000/svg" width="93" height="131" viewBox="0 0 93 131" fill="none"> <path d="M30.8004 53.2811H44.608C55.5499 53.2811 61.0208 47.926 61.0208 37.2156C61.0208 33.0473 59.7182 29.6605 57.113 27.0553C54.5078 24.3922 50.8315 23.0607 46.0843 23.0607C42.2054 23.0607 38.8186 24.1896 35.924 26.4474C33.0872 28.7053 31.6688 31.5131 31.6688 34.871H2.40358C2.40358 28.2132 4.25617 22.2791 7.96136 17.0687C11.6665 11.8583 16.7901 7.80571 23.3321 4.91104C29.932 1.95846 37.1687 0.482178 45.0422 0.482178C59.1103 0.482178 70.168 3.69527 78.2152 10.1215C86.2624 16.5476 90.286 25.3764 90.286 36.6078C90.286 42.0498 88.6071 47.2023 85.2493 52.0653C81.9493 56.8705 77.1152 60.7783 70.7469 63.7888C77.4626 66.2203 82.7309 69.9255 86.5519 74.9044C90.3728 79.8253 92.2833 85.9331 92.2833 93.2277C92.2833 104.517 87.9413 113.548 79.2573 120.322C70.5732 127.095 59.1682 130.482 45.0422 130.482C36.7634 130.482 29.0636 128.919 21.9427 125.793C14.8796 122.609 9.52449 118.238 5.87719 112.68C2.2299 107.064 0.40625 100.696 0.40625 93.575H29.8451C29.8451 97.4539 31.4083 100.812 34.5345 103.649C37.6608 106.485 41.5107 107.904 46.0843 107.904C51.2368 107.904 55.3472 106.485 58.4156 103.649C61.484 100.754 63.0181 97.0776 63.0181 92.6198C63.0181 86.2515 61.4261 81.7358 58.2419 79.0727C55.0578 76.4096 50.6579 75.078 45.0422 75.078H30.8004V53.2811Z" fill="url(#paint0_linear)"></path> <defs> <linearGradient id="paint0_linear" x1="46.3448" y1="0.482178" x2="46.3448" y2="130.482" gradientUnits="userSpaceOnUse"> <stop stop-color="#7DD1FE" stop-opacity="0.76"></stop> <stop offset="0.817708" stop-color="#78C7F1" stop-opacity="0"></stop> </linearGradient> </defs> </svg> 