<?xml version="1.0" encoding="UTF-8"?> <svg xmlns="http://www.w3.org/2000/svg" width="91" height="131" viewBox="0 0 91 131" fill="none"> <path d="M3.02404 66.0214L10.8628 0.49292H85.8154V23.5688H34.9956L32.0891 49.0227C34.2029 47.7897 36.9626 46.7034 40.3682 45.7639C43.8325 44.8244 47.2088 44.3547 50.4969 44.3547C63.2386 44.3547 73.015 48.142 79.8262 55.7165C86.6961 63.2323 90.1311 73.8014 90.1311 87.4238C90.1311 95.6442 88.2815 103.101 84.5823 109.795C80.9418 116.43 75.8041 121.539 69.169 125.12C62.534 128.702 54.6952 130.493 45.6528 130.493C37.6085 130.493 30.0633 128.849 23.0173 125.561C15.9712 122.214 10.4518 117.663 6.459 111.909C2.46623 106.096 0.4992 99.5489 0.557917 92.268H30.3276C30.6212 96.9654 32.1184 100.694 34.8194 103.454C37.5204 106.213 41.0728 107.593 45.4766 107.593C55.4585 107.593 60.4495 100.195 60.4495 85.3981C60.4495 71.7169 54.3429 64.8764 42.1297 64.8764C35.2011 64.8764 30.034 67.1076 26.6284 71.5702L3.02404 66.0214Z" fill="url(#paint0_linear)"></path> <defs> <linearGradient id="paint0_linear" x1="45.3439" y1="0.49292" x2="45.3439" y2="130.493" gradientUnits="userSpaceOnUse"> <stop stop-color="#7DD1FE" stop-opacity="0.76"></stop> <stop offset="0.817708" stop-color="#78C7F1" stop-opacity="0"></stop> </linearGradient> </defs> </svg> 