<?xml version="1.0" encoding="UTF-8"?> <svg xmlns="http://www.w3.org/2000/svg" width="92" height="131" viewBox="0 0 92 131" fill="none"> <path d="M72.1349 0.49292V23.5056H70.8323C59.8904 23.5056 50.8879 26.1398 43.8249 31.4081C36.8198 36.6185 32.5067 43.8841 30.8857 53.205C37.4856 46.7209 45.8222 43.4789 55.8957 43.4789C66.8376 43.4789 75.5506 47.4735 82.0347 55.4629C88.5187 63.4522 91.7608 73.9309 91.7608 86.8991C91.7608 94.9463 89.8503 102.328 86.0293 109.043C82.2662 115.759 76.969 121.027 70.1375 124.848C63.364 128.611 55.8378 130.493 47.559 130.493C38.5855 130.493 30.5673 128.467 23.5043 124.414C16.4413 120.304 10.9414 114.456 7.00461 106.872C3.06784 99.2883 1.04157 90.5464 0.925781 80.6466V68.9231C0.925781 55.8971 3.70467 44.2026 9.26245 33.8396C14.8781 23.4188 22.8674 15.2558 33.2304 9.35064C43.5933 3.44549 55.0852 0.49292 67.706 0.49292H72.1349ZM45.7354 65.8837C41.8565 65.8837 38.6145 66.7811 36.0093 68.5758C33.4041 70.3705 31.4646 72.5704 30.191 75.1756V83.9465C30.191 99.9251 35.7198 107.914 46.7775 107.914C51.2353 107.914 54.9405 105.917 57.893 101.922C60.9035 97.9278 62.4087 92.92 62.4087 86.8991C62.4087 80.7045 60.8746 75.6677 57.8062 71.7888C54.7957 67.8521 50.7721 65.8837 45.7354 65.8837Z" fill="url(#paint0_linear)"></path> <defs> <linearGradient id="paint0_linear" x1="46.3433" y1="0.49292" x2="46.3433" y2="130.493" gradientUnits="userSpaceOnUse"> <stop stop-color="#7DD1FE" stop-opacity="0.76"></stop> <stop offset="0.817708" stop-color="#78C7F1" stop-opacity="0"></stop> </linearGradient> </defs> </svg> 