<?xml version="1.0" encoding="UTF-8"?> <svg xmlns="http://www.w3.org/2000/svg" width="67" height="67" viewBox="0 0 67 67" fill="none"> <rect x="0.970947" y="0.820679" width="65.64" height="65.64" rx="32.82" fill="white"></rect> <g clip-path="url(#clip0)"> <path d="M53.7478 31.9689L37.1232 16.1247C35.6976 14.7659 33.3781 14.7659 31.9526 16.1246L15.328 31.9689C14.8767 32.3991 14.8704 33.1024 15.3139 33.54C15.7575 33.9775 16.4828 33.9837 16.934 33.5536L18.2278 32.3206V44.9702C18.2278 47.6364 20.4647 49.8055 23.2142 49.8055H45.8615C48.611 49.8055 50.848 47.6364 50.848 44.9702V32.3206L52.1417 33.5536C52.3648 33.7662 52.6548 33.8722 52.9447 33.8722C53.2412 33.8722 53.5376 33.7613 53.7618 33.5401C54.2054 33.1024 54.1991 32.3991 53.7478 31.9689ZM48.5566 44.9702C48.5566 46.4113 47.3475 47.5837 45.8615 47.5837H23.2142C21.7282 47.5837 20.5191 46.4113 20.5191 44.9702V30.1368L33.5587 17.7093C33.6937 17.5806 33.8499 17.4841 34.0166 17.4198C34.4751 17.2429 35.0136 17.3092 35.412 17.6188C35.4482 17.6469 35.4833 17.677 35.517 17.7093L48.5567 30.1367V44.9702H48.5566Z" fill="#5CB9EA"></path> <path d="M31.0954 28.0843V31.6594H27.4084C26.7756 31.6594 26.2627 32.1568 26.2627 32.7703V37.2042C26.2627 37.8177 26.7756 38.3151 27.4084 38.3151H31.0954V41.8901C31.0954 42.5037 31.6083 43.0011 32.241 43.0011H36.8134C37.4461 43.0011 37.9591 42.5037 37.9591 41.8901V38.3151H41.6455C42.2782 38.3151 42.7912 37.8177 42.7912 37.2042V32.7703C42.7912 32.1568 42.2782 31.6594 41.6455 31.6594H37.9591V28.0843C37.9591 27.4708 37.4461 26.9734 36.8134 26.9734H32.241C31.6083 26.9734 31.0954 27.4708 31.0954 28.0843ZM33.3867 32.7703V29.1953H35.6678V32.7703C35.6678 33.3839 36.1807 33.8813 36.8134 33.8813H40.4998V36.0932H36.8134C36.1807 36.0932 35.6678 36.5906 35.6678 37.2042V40.7792H33.3867V37.2042C33.3867 36.5906 32.8737 36.0932 32.241 36.0932H28.554V33.8813H32.241C32.8737 33.8813 33.3867 33.3839 33.3867 32.7703Z" fill="#5CB9EA"></path> </g> <defs> <clipPath id="clip0"> <rect width="39.105" height="37.92" fill="white" transform="translate(14.9854 13.4956)"></rect> </clipPath> </defs> </svg> 