<?xml version="1.0" encoding="UTF-8"?> <svg xmlns="http://www.w3.org/2000/svg" width="66" height="66" viewBox="0 0 66 66" fill="none"> <rect x="0.157227" y="0.272461" width="65.64" height="65.64" rx="32.82" fill="white"></rect> <path d="M23.2316 34.2758L23.2312 34.2758L17.1194 34.2758C16.91 34.2758 16.7091 34.1926 16.561 34.0445C16.4129 33.8964 16.3297 33.6955 16.3297 33.4861V33.4859C16.3309 32.3455 15.8906 31.2489 15.101 30.4259L15.1007 30.4256C14.9941 30.3137 14.9226 30.1731 14.8952 30.021C14.8677 29.8689 14.8855 29.7122 14.9462 29.5701L15.0837 29.6289L14.9462 29.5701C15.007 29.428 15.1082 29.3069 15.2371 29.2217C15.366 29.1366 15.5171 29.0911 15.6717 29.091L15.6718 29.091H22.0457L27.8161 25.4226L27.8164 25.4225C27.943 25.3424 28.0898 25.2999 28.2396 25.3001M23.2316 34.2758L28.2395 25.4501M23.2316 34.2758C23.3813 34.2754 23.5278 34.2328 23.6543 34.1528L23.6545 34.1526L29.4333 30.4843M23.2316 34.2758L29.3897 30.3343M28.2396 25.3001C28.2396 25.3001 28.2397 25.3001 28.2397 25.3001L28.2395 25.4501M28.2396 25.3001H28.2395V25.4501M28.2396 25.3001H35.2475C35.457 25.3001 35.6578 25.3833 35.8059 25.5314C35.954 25.6795 36.0372 25.8803 36.0372 26.0898V29.6945C36.0372 29.904 35.954 30.1049 35.8059 30.253C35.6578 30.401 35.457 30.4843 35.2475 30.4843H29.4333M28.2395 25.4501H35.2475C35.4172 25.4501 35.5799 25.5175 35.6999 25.6374C35.8198 25.7574 35.8872 25.9201 35.8872 26.0898V29.6945C35.8872 29.8642 35.8198 30.0269 35.6999 30.1469C35.5799 30.2669 35.4172 30.3343 35.2475 30.3343H29.3897M29.4333 30.4843L29.4701 30.4609L29.3897 30.3343M29.4333 30.4843H29.3897V30.3343M17.8583 32.6964C17.765 31.9871 17.5449 31.3007 17.2091 30.6698H22.2754H22.2755L17.8583 32.6964ZM17.8583 32.6964H23.0015L28.7796 29.028C28.9063 28.9475 29.0534 28.9048 29.2036 28.9048C29.2036 28.9048 29.2036 28.9048 29.2036 28.9048L34.4578 28.9048V26.8789H28.4718L22.6995 30.5466L17.8583 32.6964Z" fill="#5CB9EA" stroke="#5CB9EA" stroke-width="0.3"></path> <path d="M15.6718 37.8817H15.6717C15.5171 37.8816 15.366 37.8361 15.2371 37.751C15.1082 37.6658 15.007 37.5447 14.9462 37.4026C14.8855 37.2605 14.8677 37.1038 14.8952 36.9517C14.9226 36.7996 14.9941 36.659 15.1007 36.5471L15.101 36.5468C15.8905 35.724 16.3308 34.6276 16.3297 33.4874L16.3297 33.4872C16.3297 33.2778 16.4129 33.0769 16.561 32.9288C16.7091 32.7807 16.91 32.6975 17.1194 32.6975H23.2312H23.2313C23.381 32.6977 23.5275 32.74 23.6541 32.8198L23.6545 32.82V32.82L29.4333 36.4885H35.2475C35.457 36.4885 35.6578 36.5717 35.8059 36.7198C35.954 36.8678 36.0372 37.0687 36.0372 37.2782V40.8836V40.8839C36.0368 41.093 35.9534 41.2935 35.8054 41.4412C35.6573 41.589 35.4567 41.672 35.2475 41.672H28.2424H28.2421L15.6718 37.8817ZM15.6718 37.8817H22.0457H15.6718ZM34.4578 40.0926V38.0666H29.2036H29.2036V37.9166C29.0819 37.9167 28.9627 37.882 28.86 37.8168L34.4578 40.0926ZM34.4578 40.0926H28.4718L22.6995 36.4255C22.6995 36.4255 22.6995 36.4255 22.6995 36.4255C22.5727 36.3449 22.4257 36.3022 22.2755 36.3023C22.2755 36.3023 22.2754 36.3023 22.2754 36.3023L17.2091 36.3023C17.5449 35.6714 17.765 34.985 17.8583 34.2757H23.0015L28.7796 37.9434L34.4578 40.0926ZM17.1194 32.8475H23.2312L16.4797 33.4872C16.4797 33.3176 16.5471 33.1549 16.6671 33.0349C16.7871 32.9149 16.9498 32.8475 17.1194 32.8475Z" fill="#5CB9EA" stroke="#5CB9EA" stroke-width="0.3"></path> <path d="M11.9224 39.4753L11.9226 39.4753C13.5106 39.4736 15.0331 38.842 16.1561 37.719C17.279 36.5961 17.9106 35.0736 17.9123 33.4856V33.4854C17.9123 32.3007 17.561 31.1426 16.9028 30.1576C16.2447 29.1726 15.3092 28.4048 14.2147 27.9515C13.1201 27.4981 11.9158 27.3795 10.7539 27.6106C9.59192 27.8417 8.52463 28.4122 7.68692 29.2499C6.84922 30.0876 6.27874 31.1549 6.04762 32.3168C5.81649 33.4788 5.93511 34.6831 6.38848 35.7776C6.84184 36.8722 7.60958 37.8077 8.59461 38.4658C9.57965 39.124 10.7377 39.4753 11.9224 39.4753ZM9.47209 29.8182C10.1974 29.3336 11.0501 29.0749 11.9223 29.0749C13.0916 29.0764 14.2126 29.5416 15.0394 30.3684C15.8663 31.1953 16.3314 32.3163 16.3329 33.4856C16.3329 34.3578 16.0742 35.2105 15.5896 35.9357C15.105 36.661 14.4162 37.2264 13.6102 37.5602C12.8043 37.894 11.9175 37.9813 11.062 37.8111C10.2064 37.641 9.42056 37.2209 8.80374 36.6041C8.18692 35.9873 7.76687 35.2014 7.59669 34.3459C7.42651 33.4903 7.51385 32.6035 7.84767 31.7976C8.18149 30.9917 8.74679 30.3029 9.47209 29.8182Z" fill="#5CB9EA" stroke="#5CB9EA" stroke-width="0.3"></path> <path d="M49.1349 21.1171L49.1368 21.1171C49.6398 21.1107 50.1196 20.905 50.4712 20.5453C50.8226 20.1857 51.0171 19.7015 51.0121 19.1988V16.2176C51.0178 15.7144 50.8236 15.2295 50.4722 14.8693C50.1206 14.509 49.6402 14.303 49.1368 14.2965V14.2965H49.1349H34.2987V14.2965L34.2968 14.2965C33.7934 14.303 33.3131 14.509 32.9614 14.8693C32.61 15.2295 32.4158 15.7143 32.4215 16.2175V19.1988C32.4166 19.7015 32.611 20.1857 32.9624 20.5453C33.314 20.905 33.7939 21.1107 34.2968 21.1171L34.2968 21.1171H34.2987L49.1349 21.1171ZM34.001 16.214H34.0011L34.0008 16.2082C33.9975 16.1237 34.0277 16.0414 34.0848 15.9792C34.1412 15.9177 34.2194 15.8807 34.3026 15.876H49.1312C49.172 15.8782 49.2121 15.8883 49.2492 15.9057C49.2872 15.9235 49.3213 15.9486 49.3496 15.9796C49.378 16.0106 49.3999 16.0469 49.4141 16.0864L49.5552 16.0354L49.4141 16.0864C49.4284 16.1259 49.4348 16.1678 49.4328 16.2097L49.4327 16.2097V16.2166V19.1996H49.4325L49.4328 19.2057C49.4362 19.2901 49.4061 19.3724 49.349 19.4346C49.2926 19.4961 49.2144 19.5331 49.1311 19.5377H34.3026C34.2194 19.5329 34.1412 19.4959 34.0848 19.4345C34.0277 19.3722 33.9975 19.2899 34.0008 19.2054L34.001 19.2055V19.1996V16.214Z" fill="#5CB9EA" stroke="#5CB9EA" stroke-width="0.3"></path> <path d="M34.4578 46.9928L34.4578 46.993C34.4593 48.9189 35.2249 50.7656 36.5866 52.1277C37.9482 53.4898 39.7946 54.2561 41.7205 54.2583H41.721C43.6459 54.255 45.4908 53.4882 46.8509 52.126C48.2109 50.7639 48.975 48.9177 48.9753 46.9929V20.3272C48.9753 20.1178 48.8921 19.9169 48.744 19.7688C48.5959 19.6207 48.3951 19.5375 48.1856 19.5375H35.2475C35.0381 19.5375 34.8372 19.6207 34.6891 19.7688C34.541 19.9169 34.4578 20.1178 34.4578 20.3272L34.4578 46.9928ZM36.0372 46.9944V46.9928V21.1213L47.3959 21.117L47.3959 46.9928L47.3959 46.9944C47.4038 47.7452 47.2627 48.4902 46.9808 49.1861C46.6989 49.8821 46.2818 50.5152 45.7537 51.0489C45.2255 51.5827 44.5968 52.0064 43.9038 52.2955C43.2108 52.5847 42.4674 52.7336 41.7166 52.7336C40.9657 52.7336 40.2223 52.5847 39.5293 52.2955C38.8363 52.0064 38.2076 51.5827 37.6794 51.0489C37.1513 50.5152 36.7342 49.8821 36.4523 49.1861C36.1704 48.4902 36.0293 47.7452 36.0372 46.9944Z" fill="#5CB9EA" stroke="#5CB9EA" stroke-width="0.3"></path> <path d="M42.4255 34.4381L42.4226 34.4382C42.1311 34.4385 41.8398 34.4194 41.5507 34.3812L41.5444 34.3803L41.5444 34.3802C40.5889 34.2122 39.6574 33.9285 38.7705 33.5354L38.3556 33.3708L38.348 33.3678L38.3481 33.3676C37.4884 32.9716 36.5547 32.7616 35.6082 32.7513C35.6001 32.7518 35.5919 32.7524 35.5837 32.753C35.5088 32.7581 35.4305 32.7635 35.3526 32.7734C35.3518 32.7735 35.3511 32.7736 35.3504 32.7737L35.3313 32.6249C35.2469 32.6384 35.1606 32.6349 35.0776 32.6145C34.9946 32.5942 34.9165 32.5573 34.8479 32.5063C34.7793 32.4552 34.7217 32.3909 34.6784 32.3172C34.6351 32.2435 34.6071 32.1618 34.5958 32.0771C34.5846 31.9923 34.5905 31.9062 34.6132 31.8238C34.6358 31.7413 34.6748 31.6643 34.7277 31.5971C34.7807 31.53 34.8465 31.4742 34.9214 31.4329C34.9963 31.3917 35.0787 31.3659 35.1637 31.357L42.4255 34.4381ZM42.4255 34.4381C43.7728 34.4107 45.096 34.0764 46.2946 33.4605C47.1198 33.0491 47.907 32.5655 48.647 32.0154C48.7321 31.9556 48.8046 31.8797 48.8603 31.7918C48.9164 31.7033 48.9544 31.6045 48.9719 31.5011C48.9894 31.3978 48.9862 31.292 48.9625 31.1899C48.9387 31.0878 48.8948 30.9915 48.8335 30.9065C48.7721 30.8216 48.6944 30.7497 48.605 30.695C48.5155 30.6404 48.4161 30.6041 48.3125 30.5883C48.2088 30.5725 48.1031 30.5774 48.0014 30.6029C47.8998 30.6284 47.8042 30.6738 47.7202 30.7366V30.7366C47.0535 31.2337 46.3437 31.6704 45.5995 32.0416L45.5995 32.0415L45.5964 32.0432C44.4195 32.6645 43.0882 32.9323 41.7627 32.8145L42.4255 34.4381Z" fill="#5CB9EA" stroke="#5CB9EA" stroke-width="0.3"></path> <path d="M11.9224 36.5014H11.9226C12.7221 36.5004 13.4885 36.1823 14.0539 35.617C14.6192 35.0516 14.9372 34.2852 14.9383 33.4857V33.4855C14.9383 32.889 14.7614 32.3059 14.43 31.81C14.0986 31.314 13.6276 30.9275 13.0765 30.6992C12.5255 30.4709 11.9191 30.4112 11.334 30.5276C10.749 30.6439 10.2116 30.9312 9.78986 31.353C9.36807 31.7747 9.08084 32.3121 8.96447 32.8972C8.8481 33.4822 8.90783 34.0886 9.13609 34.6397C9.36436 35.1907 9.75091 35.6618 10.2469 35.9932C10.7428 36.3245 11.3259 36.5014 11.9224 36.5014ZM11.1244 32.2911C11.3605 32.1333 11.6382 32.0491 11.9223 32.049C12.3031 32.0497 12.6681 32.2012 12.9374 32.4705C13.2067 32.7398 13.3582 33.1048 13.3589 33.4855C13.3589 33.7696 13.2746 34.0474 13.1168 34.2836C12.959 34.5198 12.7346 34.7039 12.4721 34.8127C12.2097 34.9214 11.9208 34.9498 11.6422 34.8944C11.3635 34.839 11.1076 34.7022 10.9067 34.5013C10.7058 34.3004 10.569 34.0444 10.5135 33.7658C10.4581 33.4871 10.4866 33.1983 10.5953 32.9358C10.704 32.6733 10.8881 32.449 11.1244 32.2911Z" fill="#5CB9EA" stroke="#5CB9EA" stroke-width="0.3"></path> </svg> 