<?xml version="1.0" encoding="UTF-8"?> <svg xmlns="http://www.w3.org/2000/svg" width="67" height="67" viewBox="0 0 67 67" fill="none"> <rect x="0.970947" y="0.505127" width="65.64" height="65.64" rx="32.82" fill="white"></rect> <path d="M50.0618 49.9384H37.0115C37.3109 49.4389 37.4836 48.855 37.4836 48.2316V42.7805L37.6012 42.4637L37.6214 42.5677C37.6385 42.6561 37.6702 42.7411 37.7152 42.8191L40.5136 47.6661C41.4316 49.2561 43.4721 49.8028 45.0622 48.8849C45.8325 48.4402 46.3834 47.7221 46.6136 46.8629C46.8438 46.0038 46.7257 45.1064 46.281 44.3362L43.5555 39.6154L42.802 35.1861V23.758C42.802 22.2571 41.9553 20.9544 40.6909 20.3213C41.3052 19.4235 41.6427 18.3541 41.6427 17.2467C41.6425 14.2424 39.1983 11.7981 36.1939 11.7981C33.1896 11.7981 30.7453 14.2424 30.7453 17.2467C30.7453 19.1325 31.6959 20.8357 33.2366 21.8249L29.505 26.3113L25.5755 29.0882C25.0206 29.4804 24.6516 30.0651 24.5365 30.7349C24.4579 31.1919 24.5043 31.6511 24.6661 32.073L22.0651 30.7724V29.6511C22.0651 29.3017 21.8416 28.9916 21.5102 28.8812L16.6412 27.2582C16.3938 27.176 16.1217 27.2174 15.9102 27.3698C15.6985 27.5224 15.5732 27.7672 15.5732 28.0281V31.2741C15.5732 31.6235 15.7967 31.9335 16.1281 32.044L16.3489 32.1176L15.6048 49.9737C14.6643 50.1499 13.9502 50.9764 13.9502 51.9673C13.9502 53.0859 14.8603 53.996 15.9789 53.996H50.0617C51.1804 53.996 52.0904 53.0859 52.0904 51.9673C52.0906 50.8485 51.1805 49.9384 50.0618 49.9384ZM26.1361 31.0097C26.1778 30.7673 26.3114 30.5555 26.5123 30.4136L30.3684 27.6886C30.4767 27.6385 30.5737 27.5646 30.6515 27.471L34.8647 22.4053C34.8888 22.3763 34.9109 22.3457 34.9307 22.3135C34.9765 22.2396 35.032 22.1655 35.0954 22.0932C35.098 22.0904 35.0999 22.0871 35.1024 22.0843C35.4132 21.7358 35.8578 21.536 36.3243 21.536C36.7725 21.536 37.1358 21.1726 37.1358 20.7245C37.1358 20.2764 36.7725 19.913 36.3243 19.913C35.5996 19.913 34.9021 20.1555 34.3364 20.5908C33.1267 19.9224 32.3682 18.6576 32.3682 17.2466C32.3682 15.1372 34.0844 13.421 36.1939 13.421C38.3034 13.421 40.0195 15.1372 40.0195 17.2466C40.0195 18.3496 39.542 19.3996 38.7094 20.1274C38.4651 20.3408 38.3715 20.6792 38.4712 20.9878C38.5709 21.2965 38.8448 21.5161 39.1677 21.5464C40.3143 21.6539 41.1788 22.6046 41.1788 23.758V35.2546C41.1788 35.3003 41.1826 35.3458 41.1904 35.3907L41.9798 40.0312C41.9959 40.1262 42.0289 40.2176 42.077 40.3009L44.8753 45.1478C45.1033 45.5426 45.1638 46.0025 45.0459 46.4429C44.9278 46.8833 44.6454 47.2514 44.2506 47.4793C43.4355 47.9497 42.3896 47.6696 41.9191 46.8546L39.1889 42.1255L38.687 39.5356L39.8404 36.4249C39.9963 36.0047 39.7819 35.5377 39.3618 35.3819C38.9416 35.2264 38.4745 35.4404 38.3188 35.8606L37.0862 39.1846L35.9114 42.3528C35.8778 42.4431 35.8608 42.5387 35.8608 42.635V48.2316C35.8608 49.1728 35.0951 49.9384 34.154 49.9384C33.2128 49.9384 32.4472 49.1727 32.4472 48.2316V42.771L34.6426 36.4073C34.672 36.3221 34.687 36.2328 34.687 36.1426V28.0377L36.4811 25.8807C36.7678 25.5361 36.7208 25.0245 36.3762 24.7379C36.0316 24.4513 35.52 24.4982 35.2334 24.8429L33.2517 27.2253L32.1023 28.6072L31.5104 29.1371L27.5755 31.9178C27.4227 32.0259 27.2479 32.0802 27.0735 32.0855H27.0416C26.7538 32.0843 26.4704 31.9496 26.2919 31.6972C26.1497 31.4963 26.0944 31.2521 26.1361 31.0097ZM21.2536 33.7085C21.4218 33.7085 21.5883 33.6561 21.7282 33.5553C21.9398 33.4027 22.0652 33.1578 22.0652 32.897V32.587L24.1368 33.6229C24.2495 33.6791 24.3737 33.7086 24.4996 33.7086H30.9916C31.4398 33.7086 31.8031 33.3452 31.8031 32.8971C31.8031 32.449 31.4398 32.0856 30.9916 32.0856H30.15L32.4847 30.4358C32.5101 30.4177 32.5345 30.3984 32.5575 30.3777L33.0637 29.9246V36.0067L30.8682 42.3704C30.8389 42.4556 30.8238 42.545 30.8238 42.6351V48.2318C30.8238 48.8554 30.9965 49.4391 31.296 49.9386H19.6652L20.3521 33.4521L20.9971 33.667C21.0809 33.6948 21.1675 33.7085 21.2536 33.7085ZM17.1962 29.1539L20.4422 30.236V31.7712L19.8431 31.5715H19.843L19.5224 31.4647L17.1962 30.6891V29.1539ZM18.7499 32.9178L18.0407 49.9384H17.2307L17.9509 32.6515L18.7499 32.9178ZM50.0618 52.3729H15.979C15.7552 52.3729 15.5732 52.191 15.5732 51.9672C15.5732 51.7434 15.7552 51.5614 15.979 51.5614H50.0618C50.2856 51.5614 50.4675 51.7434 50.4675 51.9672C50.4675 52.1909 50.2856 52.3729 50.0618 52.3729Z" fill="#5CB9EA"></path> </svg> 