<?xml version="1.0" encoding="UTF-8"?> <svg xmlns="http://www.w3.org/2000/svg" width="66" height="67" viewBox="0 0 66 67" fill="none"> <rect x="0.157227" y="0.505005" width="65.6401" height="65.6401" rx="32.8201" fill="white"></rect> <path d="M46.8011 20.7469H41.1005V17.738C41.1005 15.5646 39.3323 13.7965 37.159 13.7965H28.7957C26.6224 13.7965 24.8543 15.5646 24.8543 17.738V20.7468H19.1536C15.9202 20.7469 13.2897 23.3774 13.2897 26.6108V44.9913C13.2897 48.2247 15.9202 50.8552 19.1536 50.8552H46.8011C50.0345 50.8552 52.665 48.2247 52.665 44.9913V26.6108C52.665 23.3774 50.0345 20.7469 46.8011 20.7469ZM27.1614 17.738C27.1614 16.8368 27.8946 16.1037 28.7957 16.1037H37.159C38.0602 16.1037 38.7933 16.8368 38.7933 17.738V20.7468H27.1614V17.738ZM15.5968 44.9912V26.6108C15.5968 25.0533 16.6035 23.7274 18 23.2471V48.355C16.6035 47.8746 15.5968 46.5487 15.5968 44.9912ZM20.3072 48.548V23.054H45.6475V48.548H20.3072ZM50.3579 44.9912C50.3579 46.5487 49.3512 47.8746 47.9547 48.3549V23.2471C49.3512 23.7274 50.3579 25.0533 50.3579 26.6108V44.9912Z" fill="#5CB9EA"></path> <path d="M39.9277 32.3306H36.4477V28.8506C36.4477 28.2135 35.9312 27.697 35.2942 27.697H30.6606C30.0236 27.697 29.5071 28.2135 29.5071 28.8506V32.3306H26.0271C25.39 32.3306 24.8735 32.847 24.8735 33.4841V38.1177C24.8735 38.7547 25.39 39.2712 26.0271 39.2712H29.5071V42.7512C29.5071 43.3883 30.0236 43.9048 30.6606 43.9048H35.2942C35.9312 43.9048 36.4477 43.3883 36.4477 42.7512V39.2712H39.9277C40.5648 39.2712 41.0813 38.7547 41.0813 38.1177V33.4841C41.0813 32.847 40.5648 32.3306 39.9277 32.3306ZM38.7741 36.9641H35.2942C34.6571 36.9641 34.1406 37.4806 34.1406 38.1177V41.5976H31.8142V38.1177C31.8142 37.4806 31.2977 36.9641 30.6606 36.9641H27.1807V34.6377H30.6606C31.2977 34.6377 31.8142 34.1212 31.8142 33.4841V30.0042H34.1406V33.4841C34.1406 34.1212 34.6571 34.6377 35.2942 34.6377H38.7741V36.9641Z" fill="#5CB9EA"></path> </svg> 