<?xml version="1.0" encoding="UTF-8"?> <svg xmlns="http://www.w3.org/2000/svg" width="95" height="96" viewBox="0 0 95 96" fill="none"> <path d="M91.5576 41.1194L71.3121 40.8068L62.1406 43.9935L63.7904 34.0949L64.3403 6.04906L93.486 5.49915V38.4943L91.5576 41.1194Z" fill="white"></path> <path d="M21.2847 92.5095H1.06836V96H21.2847V92.5095Z" fill="#5CB9EA"></path> <path d="M19.8359 38.8373V42.4606C19.8359 42.861 19.6768 43.245 19.3937 43.5282C19.1106 43.8113 18.7266 43.9704 18.3261 43.9704C17.9257 43.9704 17.5417 43.8113 17.2586 43.5282C16.9755 43.245 16.8164 42.861 16.8164 42.4606V38.8373C16.8164 38.4368 16.9755 38.0528 17.2586 37.7697C17.5417 37.4866 17.9257 37.3275 18.3261 37.3275C18.7266 37.3275 19.1106 37.4866 19.3937 37.7697C19.6768 38.0528 19.8359 38.4368 19.8359 38.8373Z" fill="#5CB9EA"></path> <path d="M39.0029 38.8373V42.4606C39.0029 42.861 38.8438 43.245 38.5607 43.5282C38.2775 43.8113 37.8935 43.9704 37.4931 43.9704C37.0927 43.9704 36.7087 43.8113 36.4256 43.5282C36.1425 43.245 35.9834 42.861 35.9834 42.4606V38.8373C35.9834 38.4368 36.1425 38.0528 36.4256 37.7697C36.7087 37.4866 37.0927 37.3275 37.4931 37.3275C37.8935 37.3275 38.2775 37.4866 38.5607 37.7697C38.8438 38.0528 39.0029 38.4368 39.0029 38.8373Z" fill="#5CB9EA"></path> <path d="M33.5867 50.3979C33.5867 51.904 32.9885 53.3484 31.9235 54.4133C30.8586 55.4783 29.4142 56.0765 27.9081 56.0765C26.4021 56.0765 24.9577 55.4783 23.8927 54.4133C22.8278 53.3484 22.2295 51.904 22.2295 50.3979C22.2295 49.9975 22.3886 49.6135 22.6717 49.3304C22.9548 49.0472 23.3388 48.8882 23.7392 48.8882C24.1396 48.8882 24.5236 49.0472 24.8068 49.3304C25.0899 49.6135 25.249 49.9975 25.249 50.3979C25.249 51.1032 25.5291 51.7795 26.0278 52.2782C26.5265 52.7769 27.2029 53.0571 27.9081 53.0571C28.6134 53.0571 29.2897 52.7769 29.7884 52.2782C30.2871 51.7795 30.5673 51.1032 30.5673 50.3979C30.5673 49.9975 30.7263 49.6135 31.0095 49.3304C31.2926 49.0472 31.6766 48.8882 32.077 48.8882C32.4774 48.8882 32.8614 49.0472 33.1445 49.3304C33.4277 49.6135 33.5867 49.9975 33.5867 50.3979Z" fill="#5CB9EA"></path> <path d="M78.6387 6.599C77.6599 6.599 76.703 6.82476 75.8891 7.24775C75.0752 7.67073 74.4408 8.27192 74.0662 8.97532C73.6916 9.67871 73.5936 10.4527 73.7846 11.1994C73.9755 11.9461 74.4469 12.632 75.1391 13.1704C75.8312 13.7087 76.7131 14.0754 77.6732 14.2239C78.6332 14.3724 79.6284 14.2962 80.5327 14.0048C81.4371 13.7135 82.2101 13.2201 82.7539 12.5871C83.2977 11.954 83.588 11.2098 83.588 10.4484C83.5866 9.42782 83.0648 8.44931 82.1369 7.72763C81.209 7.00595 79.9509 6.60005 78.6387 6.599ZM78.6387 12.3102C78.1673 12.3089 77.707 12.199 77.3159 11.9943C76.9248 11.7897 76.6204 11.4995 76.4412 11.1604C76.262 10.8213 76.2159 10.4485 76.3089 10.0891C76.4019 9.72966 76.6298 9.39973 76.9637 9.14094C77.2976 8.88216 77.7226 8.70613 78.185 8.63508C78.6475 8.56404 79.1266 8.60116 79.562 8.74177C79.9973 8.88237 80.3693 9.12015 80.631 9.42508C80.8928 9.73002 81.0324 10.0884 81.0324 10.4551C81.0288 10.9474 80.7752 11.4186 80.3268 11.7661C79.8785 12.1136 79.2717 12.3092 78.6387 12.3102Z" fill="#5CB9EA"></path> <path d="M89.0233 25.2963H69.3524C69.044 25.2963 68.7482 25.4121 68.5301 25.6184C68.312 25.8247 68.1895 26.1044 68.1895 26.3961C68.1895 26.6878 68.312 26.9675 68.5301 27.1738C68.7482 27.3801 69.044 27.4959 69.3524 27.4959H89.0233C89.3317 27.4959 89.6275 27.3801 89.8456 27.1738C90.0637 26.9675 90.1862 26.6878 90.1862 26.3961C90.1862 26.1044 90.0637 25.8247 89.8456 25.6184C89.6275 25.4121 89.3317 25.2963 89.0233 25.2963Z" fill="#5CB9EA"></path> <path d="M89.0233 29.6956H69.3524C69.044 29.6956 68.7482 29.8114 68.5301 30.0177C68.312 30.224 68.1895 30.5037 68.1895 30.7954C68.1895 31.0871 68.312 31.3668 68.5301 31.5731C68.7482 31.7794 69.044 31.8952 69.3524 31.8952H89.0233C89.3317 31.8952 89.6275 31.7794 89.8456 31.5731C90.0637 31.3668 90.1862 31.0871 90.1862 30.7954C90.1862 30.5037 90.0637 30.224 89.8456 30.0177C89.6275 29.8114 89.3317 29.6956 89.0233 29.6956Z" fill="#5CB9EA"></path> <path d="M89.0233 34.095H69.3524C69.044 34.095 68.7482 34.2108 68.5301 34.4171C68.312 34.6234 68.1895 34.9031 68.1895 35.1948C68.1895 35.4865 68.312 35.7663 68.5301 35.9725C68.7482 36.1788 69.044 36.2946 69.3524 36.2946H89.0233C89.3317 36.2946 89.6275 36.1788 89.8456 35.9725C90.0637 35.7663 90.1862 35.4865 90.1862 35.1948C90.1862 34.9031 90.0637 34.6234 89.8456 34.4171C89.6275 34.2108 89.3317 34.095 89.0233 34.095Z" fill="#5CB9EA"></path> <path d="M30.1825 39.0204H25.6352C25.6352 35.8399 25.6352 36.1077 25.6211 35.8782H30.1946C30.1765 36.1077 30.1825 35.8399 30.1825 39.0204Z" fill="white"></path> <path d="M52.6983 41.0273C52.6965 42.2177 52.2836 43.3709 51.5295 44.292C50.7753 45.213 49.7262 45.8453 48.5596 46.0819C48.7047 45.7083 48.7791 45.3111 48.779 44.9103V36.1498C48.779 36.1055 48.779 36.0633 48.779 36.021C49.8972 36.2986 50.8904 36.9422 51.6006 37.8493C52.3108 38.7565 52.6972 39.8752 52.6983 41.0273Z" fill="white"></path> <path d="M2.39867 41.0785C2.40102 42.3182 2.95113 43.5192 3.95596 44.4784C4.96078 45.4375 6.35864 46.096 7.91309 46.3424C7.71973 45.9534 7.62059 45.5397 7.62074 45.1223V35.9992C7.62074 35.953 7.62074 35.909 7.62074 35.865C6.13088 36.1541 4.80752 36.8243 3.86124 37.769C2.91496 38.7138 2.40013 39.8787 2.39867 41.0785Z" fill="white"></path> <path d="M45.3925 32.8586H39.6797C41.2422 31.5284 42.4563 29.8368 43.2165 27.9308C44.1851 29.4548 44.9187 31.116 45.3925 32.8586Z" fill="white"></path> <path d="M50.7097 22.5402V32.8588H48.5055C47.7385 29.6133 46.2272 26.5907 44.091 24.0299C44.091 24.0097 44.091 23.9916 44.091 23.9715C44.1252 23.3676 44.1132 23.6132 44.1132 15.9195C44.1095 15.0753 44.0007 14.2347 43.7891 13.4174C43.7891 13.4174 43.7891 13.4053 43.7891 13.3993C45.7758 13.9699 47.5241 15.1691 48.7718 16.8171C50.0195 18.4651 50.6995 20.4732 50.7097 22.5402Z" fill="url(#paint0_linear)"></path> <path d="M41.0994 15.9115V23.2388C41.0968 25.789 40.0827 28.2341 38.2796 30.0375C36.4765 31.841 34.0316 32.8556 31.4814 32.8588H5.11133V22.3309C5.11559 18.8252 6.51012 15.4643 8.98905 12.9854C11.468 10.5065 14.8289 9.11193 18.3346 9.10767H34.3036C36.1062 9.1114 37.8338 9.82969 39.1077 11.1051C40.3816 12.3805 41.0978 14.1089 41.0994 15.9115Z" fill="url(#paint1_linear)"></path> <path d="M22.3439 35.8782H10.3284C10.2563 35.8782 10.1872 35.9068 10.1362 35.9578C10.0853 36.0087 10.0566 36.0779 10.0566 36.1499V44.9104C10.0566 44.9825 10.0853 45.0516 10.1362 45.1026C10.1872 45.1535 10.2563 45.1822 10.3284 45.1822H22.3439C22.416 45.1822 22.4851 45.1535 22.536 45.1026C22.587 45.0516 22.6156 44.9825 22.6156 44.9104V36.1499C22.6156 36.0779 22.587 36.0087 22.536 35.9578C22.4851 35.9068 22.416 35.8782 22.3439 35.8782ZM19.8357 42.4526C19.8357 42.853 19.6766 43.237 19.3935 43.5201C19.1104 43.8033 18.7264 43.9623 18.326 43.9623C17.9256 43.9623 17.5416 43.8033 17.2584 43.5201C16.9753 43.237 16.8162 42.853 16.8162 42.4526V38.8292C16.8162 38.4288 16.9753 38.0448 17.2584 37.7617C17.5416 37.4785 17.9256 37.3195 18.326 37.3195C18.7264 37.3195 19.1104 37.4785 19.3935 37.7617C19.6766 38.0448 19.8357 38.4288 19.8357 38.8292V42.4526Z" fill="#E7F5FC"></path> <path d="M45.4874 35.8782H33.474C33.4381 35.8779 33.4026 35.8847 33.3693 35.8983C33.3361 35.9118 33.3059 35.9318 33.2805 35.9571C33.2551 35.9823 33.2349 36.0124 33.2211 36.0455C33.2073 36.0786 33.2002 36.1141 33.2002 36.1499V44.9104C33.2002 44.9463 33.2073 44.9818 33.2211 45.0149C33.2349 45.048 33.2551 45.078 33.2805 45.1033C33.3059 45.1286 33.3361 45.1485 33.3693 45.1621C33.4026 45.1756 33.4381 45.1825 33.474 45.1822H45.4874C45.5232 45.1825 45.5587 45.1756 45.5918 45.162C45.6248 45.1485 45.6549 45.1285 45.6802 45.1032C45.7055 45.0779 45.7255 45.0478 45.7391 45.0147C45.7526 44.9817 45.7595 44.9462 45.7592 44.9104V36.1499C45.7595 36.1142 45.7526 36.0787 45.7391 36.0456C45.7255 36.0125 45.7055 35.9825 45.6802 35.9572C45.6549 35.9319 45.6248 35.9119 45.5918 35.8983C45.5587 35.8848 45.5232 35.8779 45.4874 35.8782ZM39.0016 42.4526C39.0016 42.853 38.8426 43.237 38.5594 43.5201C38.2763 43.8033 37.8923 43.9623 37.4919 43.9623C37.0915 43.9623 36.7075 43.8033 36.4243 43.5201C36.1412 43.237 35.9821 42.853 35.9821 42.4526V38.8292C35.9821 38.4288 36.1412 38.0448 36.4243 37.7617C36.7075 37.4785 37.0915 37.3195 37.4919 37.3195C37.8923 37.3195 38.2763 37.4785 38.5594 37.7617C38.8426 38.0448 39.0016 38.4288 39.0016 38.8292V42.4526Z" fill="#E7F5FC"></path> <path d="M45.4874 48.2017H33.4739C32.6012 48.2011 31.7644 47.8542 31.1473 47.2371C30.5302 46.62 30.1832 45.7832 30.1827 44.9104V42.0399H25.6354V44.9104C25.6343 45.783 25.2872 46.6195 24.6702 47.2365C24.0532 47.8535 23.2167 48.2006 22.3441 48.2017H10.3286C10.2783 48.2017 10.23 48.2017 10.1797 48.2017C11.0359 52.2694 13.265 55.9189 16.4929 58.5381C19.7208 61.1573 23.7512 62.5867 27.908 62.5867C32.0649 62.5867 36.0953 61.1573 39.3232 58.5381C42.5511 55.9189 44.7801 52.2694 45.6364 48.2017C45.586 48.1976 45.5377 48.2017 45.4874 48.2017ZM27.908 56.0764C26.4026 56.0743 24.9595 55.4754 23.895 54.4109C22.8305 53.3464 22.2315 51.9032 22.2294 50.3978C22.2294 49.9974 22.3885 49.6134 22.6716 49.3303C22.9547 49.0471 23.3387 48.8881 23.7391 48.8881C24.1395 48.8881 24.5236 49.0471 24.8067 49.3303C25.0898 49.6134 25.2489 49.9974 25.2489 50.3978C25.2489 51.1031 25.529 51.7794 26.0277 52.2781C26.5264 52.7768 27.2028 53.057 27.908 53.057C28.6133 53.057 29.2896 52.7768 29.7883 52.2781C30.287 51.7794 30.5672 51.1031 30.5672 50.3978C30.5672 49.9974 30.7262 49.6134 31.0094 49.3303C31.2925 49.0471 31.6765 48.8881 32.0769 48.8881C32.4773 48.8881 32.8613 49.0471 33.1445 49.3303C33.4276 49.6134 33.5866 49.9974 33.5866 50.3978C33.5851 51.9034 32.9863 53.3468 31.9217 54.4114C30.857 55.4761 29.4136 56.0749 27.908 56.0764Z" fill="white"></path> <path d="M34.5317 64.5049V66.0207L27.907 70.4371L21.2822 66.0207V64.5049C25.585 65.9221 30.2289 65.9221 34.5317 64.5049Z" fill="white"></path> <path d="M25.573 72.5083L22.4328 75.7875L15.6953 70.7651L19.6951 68.5911L25.573 72.5083Z" fill="url(#paint2_linear)"></path> <path d="M31.0802 92.9804H24.7373L26.4926 84.0367H29.3229L31.0802 92.9804Z" fill="white"></path> <path d="M30.4104 77.0436L29.3939 81.0173H26.4247L25.4102 77.0436L27.9083 74.4348L30.4104 77.0436Z" fill="white"></path> <path d="M40.1248 70.7653L33.3854 75.7877L30.2451 72.5085L36.123 68.5933L40.1248 70.7653Z" fill="url(#paint3_linear)"></path> <path d="M52.8571 79.3767V92.9804H34.1585L32.1133 82.5733L32.9527 79.2821C33.1558 79.317 33.364 79.3106 33.5646 79.2633C33.7652 79.2159 33.9542 79.1285 34.1202 79.0063L43.4202 72.0736H45.554C47.4902 72.0757 49.3466 72.8459 50.7157 74.215C52.0848 75.5841 52.8549 77.4405 52.8571 79.3767Z" fill="url(#paint4_linear)"></path> <path d="M2.94629 79.3767V92.9804H21.6449L23.6901 82.5733L22.8547 79.2821C22.6515 79.317 22.4434 79.3106 22.2428 79.2633C22.0422 79.2159 21.8532 79.1285 21.6872 79.0063L12.3872 72.0736H10.2534C8.31647 72.0747 6.4591 72.8443 5.0891 74.2136C3.71909 75.5828 2.94842 77.4398 2.94629 79.3767Z" fill="url(#paint5_linear)"></path> <path d="M93.4667 28.9008C93.6137 28.901 93.7594 28.8721 93.8953 28.8158C94.0312 28.7596 94.1547 28.677 94.2587 28.5728C94.3627 28.4687 94.4452 28.345 94.5014 28.2089C94.5576 28.0728 94.5864 27.9269 94.5862 27.7796V7.0944C94.5862 6.19932 94.2316 5.34079 93.6003 4.70717C92.969 4.07356 92.1125 3.7166 91.2187 3.71462H86.7869L85.2943 2.21981C84.9455 1.87102 84.4728 1.67511 83.98 1.67511C83.4871 1.67511 83.0144 1.87102 82.6657 2.21981L82.1134 2.78784C82.0089 2.7415 81.9029 2.69815 81.7969 2.65629V1.86105C81.7965 1.61614 81.748 1.3737 81.654 1.1476C81.56 0.921494 81.4224 0.716158 81.2491 0.543324C81.0758 0.370491 80.8702 0.233548 80.6441 0.140322C80.4179 0.0470965 80.1756 -0.000584123 79.9311 5.40052e-06H77.2517C76.7596 0.00158559 76.2881 0.198262 75.9404 0.547019C75.5928 0.895776 75.3971 1.36823 75.3963 1.86105V2.65629C75.2903 2.69665 75.1859 2.7415 75.0799 2.78784L74.5142 2.21981C74.1652 1.87138 73.6926 1.67573 73.1999 1.67573C72.7071 1.67573 72.2345 1.87138 71.8856 2.21981L70.3929 3.71462H66.291C65.3971 3.71541 64.54 4.07148 63.9081 4.70463C63.2761 5.33777 62.9209 6.19621 62.9205 7.09141V34.9996L60.6084 42.0432C60.4735 42.4516 60.4547 42.8895 60.5539 43.308C60.6531 43.7265 60.8664 44.1092 61.1702 44.4134C61.4739 44.7176 61.8561 44.9313 62.274 45.0306C62.6919 45.1299 63.1292 45.111 63.537 44.976L64.4998 44.6576L70.5586 42.6635H91.2187C92.1112 42.6615 92.9666 42.3056 93.5977 41.6736C94.2288 41.0416 94.5842 40.185 94.5862 39.2912V33.013C94.5862 32.7157 94.4682 32.4305 94.2583 32.2203C94.0483 32.01 93.7636 31.8919 93.4667 31.8919C93.1698 31.8919 92.885 32.01 92.6751 32.2203C92.4651 32.4305 92.3472 32.7157 92.3472 33.013V39.2912C92.3468 39.5916 92.2274 39.8796 92.0153 40.092C91.8032 40.3044 91.5157 40.4239 91.2157 40.4243H70.3839C70.2652 40.4245 70.1473 40.4437 70.0346 40.4811L64.4998 42.2973C63.5191 42.6202 62.8011 42.8549 62.7952 42.8549C62.6354 42.8549 62.5623 43.2046 64.4998 37.333L65.0969 35.5318C65.1332 35.4187 65.1518 35.3007 65.1521 35.182V7.0944C65.1519 6.9447 65.1812 6.79645 65.2384 6.65815C65.2956 6.51985 65.3796 6.39424 65.4854 6.28853C65.5912 6.18282 65.7169 6.09909 65.8552 6.04217C65.9934 5.98525 66.1415 5.95625 66.291 5.95684H69.5286C69.7003 6.55477 70.1182 6.87167 70.5601 7.31414C70.5138 7.41877 70.4705 7.5249 70.4287 7.63104H69.6361C69.3912 7.63025 69.1485 7.67788 68.9219 7.77121C68.6954 7.86453 68.4895 8.00171 68.316 8.17488C68.1426 8.34805 68.0049 8.55381 67.911 8.78035C67.8171 9.0069 67.7688 9.24978 67.7688 9.49507V12.1857C67.7691 12.6796 67.9652 13.1531 68.3139 13.5023C68.6626 13.8515 69.1355 14.0479 69.6286 14.0483H70.4212C70.463 14.1544 70.5063 14.259 70.5526 14.3652C69.9854 14.9317 69.8928 15.0065 69.754 15.2172V15.2262C69.556 15.5287 69.4505 15.8825 69.4505 16.2442C69.4505 16.6059 69.556 16.9597 69.754 17.2621C70.0048 17.6418 71.1661 18.73 71.887 19.4505C71.8993 19.4633 71.9122 19.4752 71.9259 19.4864C72.2767 19.8197 72.7438 20.0025 73.2273 19.9958C73.7108 19.989 74.1726 19.7934 74.5142 19.4505L75.0754 18.8885C75.1814 18.9348 75.2859 18.9782 75.3919 19.02C75.3919 19.7824 75.3919 19.8571 75.4023 20.0051C75.4499 20.463 75.665 20.8871 76.0062 21.1957C76.3473 21.5043 76.7905 21.6755 77.2502 21.6763H79.9371C80.4299 21.6755 80.9024 21.479 81.2508 21.1298C81.5992 20.7807 81.795 20.3074 81.7954 19.8138V19.02C81.9014 18.9782 82.0074 18.9348 82.1119 18.8885C82.6881 19.4655 83.0821 19.9961 83.9867 19.9961C85.0047 19.9961 85.339 19.4132 87.1959 17.5521C87.2392 17.5088 87.281 17.4639 87.3198 17.4176C87.3586 17.3713 87.3527 17.3713 87.3721 17.3458C87.612 17.026 87.7414 16.6367 87.7408 16.2367C87.7408 15.3293 87.2049 14.9287 86.6347 14.3592C86.681 14.2546 86.7243 14.1484 86.766 14.0423H87.5601C88.0523 14.0399 88.5234 13.8425 88.8706 13.4932C89.2177 13.1439 89.4126 12.6711 89.4126 12.1783V9.4876C89.4118 8.99426 89.2157 8.52135 88.8674 8.17251C88.519 7.82367 88.0468 7.62734 87.5542 7.62655H86.7601C86.7183 7.52042 86.675 7.41429 86.6287 7.30965C87.0765 6.86121 87.4855 6.55477 87.6602 5.95236H91.2187C91.5188 5.95315 91.8064 6.07299 92.0184 6.28563C92.2305 6.49827 92.3498 6.7864 92.3501 7.08692V27.7811C92.3505 28.0777 92.4683 28.362 92.6775 28.5719C92.8868 28.7817 93.1705 28.9 93.4667 28.9008ZM87.1735 9.87625V11.7986H85.957C85.7131 11.7985 85.4759 11.8782 85.2813 12.0255C85.0868 12.1728 84.9456 12.3797 84.8793 12.6148C84.7396 13.1075 84.5428 13.5821 84.2927 14.0288C84.1723 14.2425 84.1252 14.4898 84.1587 14.7328C84.1921 14.9758 84.3042 15.2011 84.4778 15.3742L85.3376 16.2367L83.9807 17.5955L83.1209 16.733C82.9478 16.5596 82.7227 16.4478 82.4801 16.4146C82.2375 16.3814 81.9908 16.4286 81.7775 16.5491C81.3306 16.8 80.8556 16.9972 80.3625 17.1366C80.1278 17.203 79.9212 17.3444 79.774 17.5392C79.6269 17.734 79.5474 17.9716 79.5475 18.2158V19.4341H77.6353V18.2143C77.6346 18.1598 77.6302 18.1053 77.6219 18.0514C77.6227 18.0439 77.6227 18.0364 77.6219 18.029C77.5875 17.8186 77.4937 17.6224 77.3517 17.4635C77.2097 17.3046 77.0254 17.1896 76.8203 17.1321C76.3278 16.9925 75.8533 16.7953 75.4068 16.5446C75.1935 16.4241 74.9468 16.3769 74.7042 16.4101C74.4616 16.4433 74.2365 16.5551 74.0634 16.7285L73.2036 17.591L71.8467 16.2322L72.7095 15.3742C72.8835 15.2014 72.9959 14.976 73.0294 14.7329C73.0628 14.4897 73.0155 14.2424 72.8946 14.0288C72.6437 13.5814 72.4468 13.1057 72.308 12.6118C72.2417 12.3766 72.1006 12.1695 71.9061 12.0219C71.7116 11.8743 71.4743 11.7943 71.2303 11.7941H70.0078V9.87625H71.2243C71.4684 9.8765 71.706 9.7967 71.9006 9.64905C72.0952 9.50141 72.2362 9.29402 72.302 9.05859C72.4415 8.56485 72.6383 8.08922 72.8886 7.6415C73.0095 7.428 73.0569 7.1806 73.0234 6.93747C72.99 6.69434 72.8776 6.46899 72.7035 6.29617L71.8438 5.43366L73.2006 4.07487L74.0604 4.93738C74.2334 5.11098 74.4583 5.22309 74.7009 5.25656C74.9435 5.29003 75.1904 5.24303 75.4038 5.12274C75.8506 4.87147 76.3256 4.67427 76.8189 4.53527C77.0531 4.46932 77.2595 4.32874 77.4068 4.13481C77.5541 3.94089 77.6344 3.70417 77.6353 3.4605V2.24223H79.5549V3.4605C79.5547 3.705 79.6344 3.94286 79.7818 4.13774C79.9292 4.33262 80.1363 4.47382 80.3714 4.53976C80.8642 4.67876 81.3387 4.87596 81.785 5.12722C81.9984 5.24751 82.2453 5.29452 82.4879 5.26104C82.7304 5.22757 82.9554 5.11547 83.1284 4.94186L83.9882 4.07936L85.3465 5.43964L84.4852 6.30065C84.3119 6.47387 84.1999 6.69917 84.1665 6.94211C84.1331 7.18505 84.18 7.43228 84.3001 7.64598C84.5516 8.09315 84.7485 8.56891 84.8868 9.06307C84.9531 9.2981 85.0943 9.50501 85.2888 9.65233C85.4833 9.79965 85.7206 9.87933 85.9645 9.87924L87.1735 9.87625Z" fill="#5CB9EA"></path> <path d="M78.6381 21.9968C85.0161 21.9968 90.1864 17.0726 90.1864 10.9984C90.1864 4.92414 85.0161 0 78.6381 0C72.2602 0 67.0898 4.92414 67.0898 10.9984C67.0898 17.0726 72.2602 21.9968 78.6381 21.9968Z" fill="white"></path> <path d="M78.6412 3.92988e-07C76.357 -0.000581028 74.1239 0.644005 72.2243 1.85223C70.3248 3.06046 68.8441 4.77806 67.9697 6.78778C67.0952 8.79751 66.8661 11.0091 67.3115 13.1428C67.7569 15.2765 68.8566 17.2365 70.4717 18.7749C72.0868 20.3133 74.1447 21.3609 76.385 21.7854C78.6253 22.2098 80.9475 21.992 83.0578 21.1594C85.1682 20.3268 86.9718 18.9169 88.2407 17.108C89.5096 15.299 90.1867 13.1724 90.1864 10.9969C90.1832 8.08155 88.9658 5.28648 86.8014 3.22488C84.637 1.16327 81.7023 0.00350183 78.6412 3.92988e-07ZM87.9225 10.9969C87.9221 12.7454 87.3774 14.4546 86.3572 15.9083C85.3369 17.362 83.8869 18.4949 82.1906 19.1638C80.4943 19.8326 78.6278 20.0074 76.8272 19.666C75.0266 19.3246 73.3727 18.4823 72.0747 17.2457C70.7767 16.0091 69.8929 14.4337 69.535 12.7187C69.1771 11.0037 69.3612 9.2262 70.0641 7.61087C70.767 5.99555 71.957 4.61501 73.4837 3.64382C75.0104 2.67263 76.8053 2.15441 78.6412 2.1547C81.1024 2.15742 83.4619 3.08998 85.202 4.74771C86.942 6.40544 87.9204 8.65291 87.9225 10.9969Z" fill="#5CB9EA"></path> <path d="M81.3685 8.79864V5.44432C81.3687 5.30703 81.3417 5.17105 81.2891 5.04418C81.2365 4.91731 81.1592 4.80203 81.0618 4.70496C80.9644 4.60788 80.8488 4.53091 80.7215 4.47846C80.5942 4.42601 80.4577 4.39911 80.32 4.39929H78.0515C77.7734 4.39929 77.5067 4.50939 77.3101 4.70537C77.1135 4.90135 77.003 5.16716 77.003 5.44432V8.79864H73.636C73.3581 8.79902 73.0918 8.90929 72.8955 9.10523C72.6991 9.30117 72.5889 9.56676 72.5889 9.84367V12.153C72.5887 12.2901 72.6156 12.426 72.6682 12.5528C72.7207 12.6796 72.7978 12.7948 72.8951 12.8918C72.9923 12.9889 73.1078 13.0659 73.2349 13.1184C73.3621 13.171 73.4983 13.198 73.636 13.198H77.003V16.5523C77.003 16.8295 77.1135 17.0953 77.3101 17.2913C77.5067 17.4872 77.7734 17.5973 78.0515 17.5973H80.32C80.5981 17.5973 80.8648 17.4872 81.0614 17.2913C81.2581 17.0953 81.3685 16.8295 81.3685 16.5523V13.198H84.7341C84.8722 13.1987 85.0091 13.1723 85.1369 13.1201C85.2647 13.0679 85.3809 12.991 85.4787 12.8938C85.5766 12.7967 85.6542 12.6812 85.7071 12.5541C85.76 12.4269 85.7871 12.2906 85.7869 12.153V9.84367C85.7871 9.70638 85.7601 9.5704 85.7075 9.44353C85.6549 9.31666 85.5776 9.20138 85.4802 9.10431C85.3828 9.00723 85.2672 8.93026 85.1399 8.87781C85.0126 8.82536 84.8761 8.79846 84.7384 8.79864H81.3685Z" fill="#5CB9EA"></path> <path d="M45.5538 69.0542H43.3013L37.5522 65.93V63.2326C40.2976 61.8264 42.702 59.8364 44.5966 57.4021C46.4911 54.9679 47.8299 52.1484 48.5189 49.1418C50.0332 48.9603 51.4664 48.3586 52.6564 47.4048C53.8465 46.451 54.7458 45.1832 55.2527 43.7449C55.7596 42.3065 55.8538 40.755 55.5247 39.2658C55.1956 37.7767 54.4562 36.4094 53.3903 35.3186C53.611 35.0496 53.7312 34.7123 53.7305 34.3645V22.5402C53.7149 19.3913 52.5193 16.3626 50.3798 14.0521C48.2403 11.7416 45.3124 10.317 42.174 10.0597C41.2607 8.83106 40.0729 7.83298 38.7052 7.14513C37.3376 6.45729 35.8281 6.09875 34.2972 6.09814H18.3282C14.0218 6.10294 9.89321 7.81577 6.84814 10.8608C3.80307 13.9059 2.09025 18.0345 2.08545 22.3409V34.3725C2.0856 34.7158 2.20276 35.0488 2.41759 35.3166C1.35392 36.4097 0.616825 37.7782 0.28945 39.2679C-0.0379252 40.7575 0.057442 42.309 0.564795 43.7473C1.07215 45.1857 1.9713 46.4536 3.16084 47.4082C4.35038 48.3628 5.78298 48.966 7.29706 49.1498C7.98712 52.1561 9.3263 54.975 11.2207 57.4091C13.1152 59.8433 15.519 61.8336 18.2638 63.2407V65.9381L12.5147 69.0542H10.3226C7.58584 69.0574 4.96211 70.146 3.02694 72.0811C1.09178 74.0163 0.0031965 76.64 0 79.3768V94.4902C0 94.8906 0.159061 95.2747 0.442192 95.5578C0.725322 95.8409 1.10933 96 1.50974 96H7.70167C8.10208 96 8.48609 95.8409 8.76922 95.5578C9.05235 95.2747 9.21141 94.8906 9.21141 94.4902C9.21141 94.0898 9.05235 93.7058 8.76922 93.4227C8.48609 93.1396 8.10208 92.9805 7.70167 92.9805H3.01947V79.3768C3.02161 77.4407 3.79179 75.5846 5.16098 74.2158C6.53017 72.8469 8.38651 72.0773 10.3226 72.0757H12.3959L21.6959 79.0064C21.8616 79.1292 22.0506 79.2169 22.2513 79.2643C22.452 79.3118 22.6603 79.3178 22.8635 79.2822L23.7029 82.5714L21.6677 92.9805H14.7471C14.3467 92.9805 13.9627 93.1396 13.6796 93.4227C13.3964 93.7058 13.2374 94.0898 13.2374 94.4902C13.2374 94.8906 13.3964 95.2747 13.6796 95.5578C13.9627 95.8409 14.3467 96 14.7471 96H54.3666C54.767 96 55.1511 95.8409 55.4342 95.5578C55.7173 95.2747 55.8764 94.8906 55.8764 94.4902V79.3768C55.8732 76.64 54.7846 74.0163 52.8494 72.0811C50.9143 70.146 48.2905 69.0574 45.5538 69.0542ZM40.1187 70.7652L33.3793 75.7876L30.239 72.5085L36.123 68.5932L40.1187 70.7652ZM30.4081 77.0477L29.4016 81.0214H26.4224L25.4159 77.0477L27.908 74.4309L30.4081 77.0477ZM21.2833 66.0246V64.5089C25.5861 65.9261 30.2299 65.9261 34.5327 64.5089V66.0246L27.908 70.4371L21.2833 66.0246ZM45.7591 44.9105C45.7594 44.9462 45.7525 44.9817 45.739 45.0148C45.7254 45.0479 45.7054 45.0779 45.6801 45.1032C45.6548 45.1285 45.6248 45.1485 45.5917 45.1621C45.5586 45.1756 45.5231 45.1825 45.4874 45.1822H33.4739C33.438 45.1825 33.4025 45.1757 33.3693 45.1621C33.3361 45.1486 33.3059 45.1286 33.2804 45.1033C33.255 45.0781 33.2348 45.048 33.221 45.0149C33.2072 44.9818 33.2001 44.9463 33.2001 44.9105V36.15C33.2001 36.1141 33.2072 36.0786 33.221 36.0455C33.2348 36.0124 33.255 35.9824 33.2804 35.9571C33.3059 35.9318 33.3361 35.9119 33.3693 35.8983C33.4025 35.8848 33.438 35.8779 33.4739 35.8782H45.4874C45.5231 35.8779 45.5586 35.8848 45.5917 35.8984C45.6248 35.9119 45.6548 35.9319 45.6801 35.9572C45.7054 35.9825 45.7254 36.0126 45.739 36.0457C45.7525 36.0788 45.7594 36.1142 45.7591 36.15V44.9105ZM52.6979 41.0274C52.6961 42.2178 52.2832 43.3711 51.5291 44.2921C50.7749 45.2131 49.7258 45.8454 48.5592 46.082C48.7043 45.7085 48.7787 45.3112 48.7786 44.9105V36.15C48.7786 36.1057 48.7786 36.0634 48.7786 36.0211C49.8968 36.2987 50.89 36.9423 51.6002 37.8495C52.3104 38.7567 52.6968 39.8753 52.6979 41.0274ZM50.7111 22.5402V32.8587H48.5068C47.7398 29.6133 46.2285 26.5907 44.0924 24.0298C44.0924 24.0097 44.0924 23.9916 44.0924 23.9714C44.1266 23.3675 44.1145 23.6131 44.1145 15.9195C44.1109 15.0752 44.002 14.2347 43.7904 13.4174C43.7904 13.4174 43.7904 13.4053 43.7904 13.3992C45.7772 13.9698 47.5255 15.169 48.7732 16.8171C50.0209 18.4651 50.7008 20.4731 50.7111 22.5402ZM43.2167 27.931C44.185 29.4538 44.9185 31.1136 45.3928 32.8547H39.6799C41.2419 31.5257 42.456 29.8355 43.2167 27.931ZM3.11811 41.0153C3.11484 39.861 3.50031 38.7392 4.2124 37.8306C4.92449 36.922 5.92173 36.2797 7.04343 36.007C7.04343 36.0513 7.04343 36.0936 7.04343 36.1379V44.8984C7.04429 45.299 7.11866 45.6961 7.26284 46.0699C6.09711 45.835 5.04815 45.205 4.29304 44.2863C3.53793 43.3677 3.12294 42.2166 3.11811 41.0274V41.0153ZM5.10492 32.8467V22.3188C5.10919 18.813 6.50372 15.4521 8.98264 12.9732C11.4616 10.4943 14.8225 9.09974 18.3282 9.09548H34.2972C36.1009 9.09761 37.83 9.81519 39.1052 11.0908C40.3804 12.3663 41.0975 14.0957 41.0991 15.8994V23.2266C41.0964 25.7768 40.0823 28.2219 38.2792 30.0254C36.4761 31.8288 34.0313 32.8435 31.481 32.8467H5.10492ZM30.1827 39.0205H25.6353C25.6353 35.84 25.6353 36.1077 25.6212 35.8782H30.1947C30.1766 36.1077 30.1827 35.84 30.1827 39.0205ZM10.0528 44.9105V36.15C10.0528 36.0779 10.0815 36.0088 10.1324 35.9578C10.1834 35.9068 10.2525 35.8782 10.3246 35.8782H22.3401C22.4122 35.8782 22.4813 35.9068 22.5322 35.9578C22.5832 36.0088 22.6118 36.0779 22.6118 36.15V44.9105C22.6118 44.9825 22.5832 45.0517 22.5322 45.1026C22.4813 45.1536 22.4122 45.1822 22.3401 45.1822H10.3286C10.2565 45.1822 10.1874 45.1536 10.1365 45.1026C10.0855 45.0517 10.0569 44.9825 10.0569 44.9105H10.0528ZM10.1756 48.1957C10.226 48.1957 10.2743 48.1957 10.3246 48.1957H22.3401C23.2126 48.1946 24.0492 47.8475 24.6662 47.2305C25.2831 46.6135 25.6302 45.777 25.6313 44.9044V42.04H30.1827V44.9105C30.1832 45.7832 30.5301 46.62 31.1472 47.2371C31.7643 47.8542 32.6012 48.2012 33.4739 48.2017H45.4874C45.5377 48.2017 45.586 48.2017 45.6363 48.2017C44.7801 52.2694 42.5511 55.9189 39.3232 58.5381C36.0953 61.1573 32.0648 62.5868 27.908 62.5868C23.7511 62.5868 19.7207 61.1573 16.4928 58.5381C13.2649 55.9189 11.0359 52.2694 10.1797 48.2017L10.1756 48.1957ZM22.4266 75.7876L15.6932 70.7652L19.695 68.5932L25.5709 72.5105L22.4266 75.7876ZM24.7315 92.9805L26.4989 84.0368H29.3171L31.0744 92.9805H24.7315ZM52.8529 92.9805H34.1583L32.1131 82.5734L32.9525 79.2822C33.1557 79.3171 33.3638 79.3107 33.5644 79.2633C33.765 79.2159 33.954 79.1285 34.1201 79.0064L43.42 72.0737H45.5538C47.49 72.0758 49.3464 72.8459 50.7155 74.215C52.0847 75.5842 52.8548 77.4405 52.8569 79.3768L52.8529 92.9805Z" fill="#5CB9EA"></path> <defs> <linearGradient id="paint0_linear" x1="38.5159" y1="13.256" x2="50.9233" y2="30.3507" gradientUnits="userSpaceOnUse"> <stop stop-color="white"></stop> <stop offset="1" stop-color="#E7F5FC"></stop> </linearGradient> <linearGradient id="paint1_linear" x1="30.7975" y1="27.3178" x2="11.2213" y2="11.8775" gradientUnits="userSpaceOnUse"> <stop stop-color="#E7F5FC"></stop> <stop offset="1" stop-color="white"></stop> </linearGradient> <linearGradient id="paint2_linear" x1="22.7454" y1="74.1086" x2="16.9753" y2="69.9859" gradientUnits="userSpaceOnUse"> <stop stop-color="#E7F5FC"></stop> <stop offset="1" stop-color="white"></stop> </linearGradient> <linearGradient id="paint3_linear" x1="37.2967" y1="74.1093" x2="31.5273" y2="69.9851" gradientUnits="userSpaceOnUse"> <stop stop-color="#E7F5FC"></stop> <stop offset="1" stop-color="white"></stop> </linearGradient> <linearGradient id="paint4_linear" x1="42.6537" y1="84.9434" x2="38.2007" y2="72.4946" gradientUnits="userSpaceOnUse"> <stop stop-color="#E7F5FC"></stop> <stop offset="1" stop-color="white"></stop> </linearGradient> <linearGradient id="paint5_linear" x1="17.5622" y1="88.252" x2="11.2188" y2="73.2964" gradientUnits="userSpaceOnUse"> <stop stop-color="#E7F5FC"></stop> <stop offset="1" stop-color="white"></stop> </linearGradient> </defs> </svg> 