<?xml version="1.0" encoding="UTF-8"?> <svg xmlns="http://www.w3.org/2000/svg" width="81" height="96" viewBox="0 0 81 96" fill="none"> <path d="M71.8119 2.25H11.3057V55.6875H71.8119V2.25Z" fill="white"></path> <path d="M40.3125 52.5C33.9562 52.5 27.9938 55.9313 24.7688 61.425C24.375 62.1 24.6 62.9625 25.275 63.3562C25.95 63.75 26.8125 63.525 27.2063 62.85C29.925 58.2 34.95 55.3125 40.3313 55.3125C48.7125 55.3125 55.5188 62.1188 55.5188 70.5C55.5188 78.8812 48.7125 85.6875 40.3313 85.6875C31.95 85.6875 25.1438 78.8812 25.1438 70.5C25.1438 69.8438 25.1813 69.1875 25.275 68.5312C25.3688 67.7625 24.825 67.05 24.0563 66.9563C23.2875 66.8625 22.575 67.4062 22.4812 68.175C22.3875 68.9437 22.3313 69.7312 22.3313 70.5C22.3313 80.4187 30.4125 88.5 40.3313 88.5C50.25 88.5 58.3313 80.4187 58.3313 70.5C58.3125 60.5812 50.2313 52.5 40.3125 52.5ZM50.1562 66.2812H44.5312V60.6562C44.5312 59.2687 43.3875 58.125 42 58.125H38.625C37.2375 58.125 36.0938 59.2687 36.0938 60.6562V66.2812H30.4688C29.0812 66.2812 27.9375 67.425 27.9375 68.8125V72.1875C27.9375 73.575 29.0812 74.7188 30.4688 74.7188H36.0938V80.3438C36.0938 81.7312 37.2375 82.875 38.625 82.875H42C43.3875 82.875 44.5312 81.7312 44.5312 80.3438V74.7188H50.1562C51.5438 74.7188 52.6875 73.575 52.6875 72.1875V68.8125C52.6875 67.425 51.5438 66.2812 50.1562 66.2812ZM49.875 71.9062H43.6875C42.6 71.9062 41.7188 72.7875 41.7188 73.875V80.0625H38.9062V73.875C38.9062 72.7875 38.025 71.9062 36.9375 71.9062H30.75V69.0938H36.9375C38.025 69.0938 38.9062 68.2125 38.9062 67.125V60.9375H41.7188V67.125C41.7188 68.2125 42.6 69.0938 43.6875 69.0938H49.875V71.9062ZM57.8438 8.4375H22.7812C20.9625 8.4375 19.5 9.9 19.5 11.7188V15.0938C19.5 16.9125 20.9625 18.375 22.7812 18.375H57.8438C59.6625 18.375 61.125 16.9125 61.125 15.0938V11.7188C61.125 9.9 59.6625 8.4375 57.8438 8.4375ZM58.3125 15.0938C58.3125 15.3562 58.1063 15.5625 57.8438 15.5625H22.7812C22.5187 15.5625 22.3125 15.3562 22.3125 15.0938V11.7188C22.3125 11.4563 22.5187 11.25 22.7812 11.25H57.8438C58.1063 11.25 58.3125 11.4563 58.3125 11.7188V15.0938ZM50.1562 66.2812H44.5312V60.6562C44.5312 59.2687 43.3875 58.125 42 58.125H38.625C37.2375 58.125 36.0938 59.2687 36.0938 60.6562V66.2812H30.4688C29.0812 66.2812 27.9375 67.425 27.9375 68.8125V72.1875C27.9375 73.575 29.0812 74.7188 30.4688 74.7188H36.0938V80.3438C36.0938 81.7312 37.2375 82.875 38.625 82.875H42C43.3875 82.875 44.5312 81.7312 44.5312 80.3438V74.7188H50.1562C51.5438 74.7188 52.6875 73.575 52.6875 72.1875V68.8125C52.6875 67.425 51.5438 66.2812 50.1562 66.2812ZM49.875 71.9062H43.6875C42.6 71.9062 41.7188 72.7875 41.7188 73.875V80.0625H38.9062V73.875C38.9062 72.7875 38.025 71.9062 36.9375 71.9062H30.75V69.0938H36.9375C38.025 69.0938 38.9062 68.2125 38.9062 67.125V60.9375H41.7188V67.125C41.7188 68.2125 42.6 69.0938 43.6875 69.0938H49.875V71.9062ZM40.3125 52.5C33.9562 52.5 27.9938 55.9313 24.7688 61.425C24.375 62.1 24.6 62.9625 25.275 63.3562C25.95 63.75 26.8125 63.525 27.2063 62.85C29.925 58.2 34.95 55.3125 40.3313 55.3125C48.7125 55.3125 55.5188 62.1188 55.5188 70.5C55.5188 78.8812 48.7125 85.6875 40.3313 85.6875C31.95 85.6875 25.1438 78.8812 25.1438 70.5C25.1438 69.8438 25.1813 69.1875 25.275 68.5312C25.3688 67.7625 24.825 67.05 24.0563 66.9563C23.2875 66.8625 22.575 67.4062 22.4812 68.175C22.3875 68.9437 22.3313 69.7312 22.3313 70.5C22.3313 80.4187 30.4125 88.5 40.3313 88.5C50.25 88.5 58.3313 80.4187 58.3313 70.5C58.3125 60.5812 50.2313 52.5 40.3125 52.5ZM40.3125 52.5C33.9562 52.5 27.9938 55.9313 24.7688 61.425C24.375 62.1 24.6 62.9625 25.275 63.3562C25.95 63.75 26.8125 63.525 27.2063 62.85C29.925 58.2 34.95 55.3125 40.3313 55.3125C48.7125 55.3125 55.5188 62.1188 55.5188 70.5C55.5188 78.8812 48.7125 85.6875 40.3313 85.6875C31.95 85.6875 25.1438 78.8812 25.1438 70.5C25.1438 69.8438 25.1813 69.1875 25.275 68.5312C25.3688 67.7625 24.825 67.05 24.0563 66.9563C23.2875 66.8625 22.575 67.4062 22.4812 68.175C22.3875 68.9437 22.3313 69.7312 22.3313 70.5C22.3313 80.4187 30.4125 88.5 40.3313 88.5C50.25 88.5 58.3313 80.4187 58.3313 70.5C58.3125 60.5812 50.2313 52.5 40.3125 52.5ZM50.1562 66.2812H44.5312V60.6562C44.5312 59.2687 43.3875 58.125 42 58.125H38.625C37.2375 58.125 36.0938 59.2687 36.0938 60.6562V66.2812H30.4688C29.0812 66.2812 27.9375 67.425 27.9375 68.8125V72.1875C27.9375 73.575 29.0812 74.7188 30.4688 74.7188H36.0938V80.3438C36.0938 81.7312 37.2375 82.875 38.625 82.875H42C43.3875 82.875 44.5312 81.7312 44.5312 80.3438V74.7188H50.1562C51.5438 74.7188 52.6875 73.575 52.6875 72.1875V68.8125C52.6875 67.425 51.5438 66.2812 50.1562 66.2812ZM49.875 71.9062H43.6875C42.6 71.9062 41.7188 72.7875 41.7188 73.875V80.0625H38.9062V73.875C38.9062 72.7875 38.025 71.9062 36.9375 71.9062H30.75V69.0938H36.9375C38.025 69.0938 38.9062 68.2125 38.9062 67.125V60.9375H41.7188V67.125C41.7188 68.2125 42.6 69.0938 43.6875 69.0938H49.875V71.9062ZM50.1562 66.2812H44.5312V60.6562C44.5312 59.2687 43.3875 58.125 42 58.125H38.625C37.2375 58.125 36.0938 59.2687 36.0938 60.6562V66.2812H30.4688C29.0812 66.2812 27.9375 67.425 27.9375 68.8125V72.1875C27.9375 73.575 29.0812 74.7188 30.4688 74.7188H36.0938V80.3438C36.0938 81.7312 37.2375 82.875 38.625 82.875H42C43.3875 82.875 44.5312 81.7312 44.5312 80.3438V74.7188H50.1562C51.5438 74.7188 52.6875 73.575 52.6875 72.1875V68.8125C52.6875 67.425 51.5438 66.2812 50.1562 66.2812ZM49.875 71.9062H43.6875C42.6 71.9062 41.7188 72.7875 41.7188 73.875V80.0625H38.9062V73.875C38.9062 72.7875 38.025 71.9062 36.9375 71.9062H30.75V69.0938H36.9375C38.025 69.0938 38.9062 68.2125 38.9062 67.125V60.9375H41.7188V67.125C41.7188 68.2125 42.6 69.0938 43.6875 69.0938H49.875V71.9062ZM40.3125 52.5C33.9562 52.5 27.9938 55.9313 24.7688 61.425C24.375 62.1 24.6 62.9625 25.275 63.3562C25.95 63.75 26.8125 63.525 27.2063 62.85C29.925 58.2 34.95 55.3125 40.3313 55.3125C48.7125 55.3125 55.5188 62.1188 55.5188 70.5C55.5188 78.8812 48.7125 85.6875 40.3313 85.6875C31.95 85.6875 25.1438 78.8812 25.1438 70.5C25.1438 69.8438 25.1813 69.1875 25.275 68.5312C25.3688 67.7625 24.825 67.05 24.0563 66.9563C23.2875 66.8625 22.575 67.4062 22.4812 68.175C22.3875 68.9437 22.3313 69.7312 22.3313 70.5C22.3313 80.4187 30.4125 88.5 40.3313 88.5C50.25 88.5 58.3313 80.4187 58.3313 70.5C58.3125 60.5812 50.2313 52.5 40.3125 52.5ZM40.3125 52.5C33.9562 52.5 27.9938 55.9313 24.7688 61.425C24.375 62.1 24.6 62.9625 25.275 63.3562C25.95 63.75 26.8125 63.525 27.2063 62.85C29.925 58.2 34.95 55.3125 40.3313 55.3125C48.7125 55.3125 55.5188 62.1188 55.5188 70.5C55.5188 78.8812 48.7125 85.6875 40.3313 85.6875C31.95 85.6875 25.1438 78.8812 25.1438 70.5C25.1438 69.8438 25.1813 69.1875 25.275 68.5312C25.3688 67.7625 24.825 67.05 24.0563 66.9563C23.2875 66.8625 22.575 67.4062 22.4812 68.175C22.3875 68.9437 22.3313 69.7312 22.3313 70.5C22.3313 80.4187 30.4125 88.5 40.3313 88.5C50.25 88.5 58.3313 80.4187 58.3313 70.5C58.3125 60.5812 50.2313 52.5 40.3125 52.5ZM42 58.125H38.625C37.2375 58.125 36.0938 59.2687 36.0938 60.6562V66.2812H30.4688C29.0812 66.2812 27.9375 67.425 27.9375 68.8125V72.1875C27.9375 73.575 29.0812 74.7188 30.4688 74.7188H36.0938V80.3438C36.0938 81.7312 37.2375 82.875 38.625 82.875H42C43.3875 82.875 44.5312 81.7312 44.5312 80.3438V74.7188H50.1562C51.5438 74.7188 52.6875 73.575 52.6875 72.1875V68.8125C52.6875 67.425 51.5438 66.2812 50.1562 66.2812H44.5312V60.6562C44.5312 59.2687 43.3875 58.125 42 58.125ZM49.875 69.0938V71.9062H43.6875C42.6 71.9062 41.7188 72.7875 41.7188 73.875V80.0625H38.9062V73.875C38.9062 72.7875 38.025 71.9062 36.9375 71.9062H30.75V69.0938H36.9375C38.025 69.0938 38.9062 68.2125 38.9062 67.125V60.9375H41.7188V67.125C41.7188 68.2125 42.6 69.0938 43.6875 69.0938H49.875ZM73.5938 45H40.5188C39.1125 45 37.8 44.3063 37.0125 43.125L34.725 39.6937C33.4125 37.725 31.2375 36.5625 28.875 36.5625H11.3063V7.03125C11.3063 4.70625 13.2 2.8125 15.525 2.8125H65.1187C67.4437 2.8125 69.3375 4.70625 69.3375 7.03125V39.8438C69.3375 40.6125 69.975 41.25 70.7437 41.25C71.5125 41.25 72.15 40.6125 72.15 39.8438V7.03125C72.15 3.15 69 0 65.1187 0H15.525C11.6438 0 8.49375 3.15 8.49375 7.03125V36.5625H7.03125C3.15 36.5625 0 39.7125 0 43.5938V88.9688C0 92.85 3.15 96 7.03125 96H73.5938C77.475 96 80.625 92.85 80.625 88.9688V52.0312C80.625 48.15 77.475 45 73.5938 45ZM77.8125 88.9688C77.8125 91.2937 75.9187 93.1875 73.5938 93.1875H7.03125C4.70625 93.1875 2.8125 91.2937 2.8125 88.9688V43.5938C2.8125 41.2687 4.70625 39.375 7.03125 39.375H28.8562C30.2625 39.375 31.575 40.0687 32.3625 41.25L34.65 44.6813C35.9625 46.65 38.1375 47.8125 40.5 47.8125H73.575C75.9 47.8125 77.7937 49.7062 77.7937 52.0312V88.9688H77.8125ZM40.3125 52.5C33.9562 52.5 27.9938 55.9313 24.7688 61.425C24.375 62.1 24.6 62.9625 25.275 63.3562C25.95 63.75 26.8125 63.525 27.2063 62.85C29.925 58.2 34.95 55.3125 40.3313 55.3125C48.7125 55.3125 55.5188 62.1188 55.5188 70.5C55.5188 78.8812 48.7125 85.6875 40.3313 85.6875C31.95 85.6875 25.1438 78.8812 25.1438 70.5C25.1438 69.8438 25.1813 69.1875 25.275 68.5312C25.3688 67.7625 24.825 67.05 24.0563 66.9563C23.2875 66.8625 22.575 67.4062 22.4812 68.175C22.3875 68.9437 22.3313 69.7312 22.3313 70.5C22.3313 80.4187 30.4125 88.5 40.3313 88.5C50.25 88.5 58.3313 80.4187 58.3313 70.5C58.3125 60.5812 50.2313 52.5 40.3125 52.5ZM42 58.125H38.625C37.2375 58.125 36.0938 59.2687 36.0938 60.6562V66.2812H30.4688C29.0812 66.2812 27.9375 67.425 27.9375 68.8125V72.1875C27.9375 73.575 29.0812 74.7188 30.4688 74.7188H36.0938V80.3438C36.0938 81.7312 37.2375 82.875 38.625 82.875H42C43.3875 82.875 44.5312 81.7312 44.5312 80.3438V74.7188H50.1562C51.5438 74.7188 52.6875 73.575 52.6875 72.1875V68.8125C52.6875 67.425 51.5438 66.2812 50.1562 66.2812H44.5312V60.6562C44.5312 59.2687 43.3875 58.125 42 58.125ZM49.875 69.0938V71.9062H43.6875C42.6 71.9062 41.7188 72.7875 41.7188 73.875V80.0625H38.9062V73.875C38.9062 72.7875 38.025 71.9062 36.9375 71.9062H30.75V69.0938H36.9375C38.025 69.0938 38.9062 68.2125 38.9062 67.125V60.9375H41.7188V67.125C41.7188 68.2125 42.6 69.0938 43.6875 69.0938H49.875ZM50.1562 66.2812H44.5312V60.6562C44.5312 59.2687 43.3875 58.125 42 58.125H38.625C37.2375 58.125 36.0938 59.2687 36.0938 60.6562V66.2812H30.4688C29.0812 66.2812 27.9375 67.425 27.9375 68.8125V72.1875C27.9375 73.575 29.0812 74.7188 30.4688 74.7188H36.0938V80.3438C36.0938 81.7312 37.2375 82.875 38.625 82.875H42C43.3875 82.875 44.5312 81.7312 44.5312 80.3438V74.7188H50.1562C51.5438 74.7188 52.6875 73.575 52.6875 72.1875V68.8125C52.6875 67.425 51.5438 66.2812 50.1562 66.2812ZM49.875 71.9062H43.6875C42.6 71.9062 41.7188 72.7875 41.7188 73.875V80.0625H38.9062V73.875C38.9062 72.7875 38.025 71.9062 36.9375 71.9062H30.75V69.0938H36.9375C38.025 69.0938 38.9062 68.2125 38.9062 67.125V60.9375H41.7188V67.125C41.7188 68.2125 42.6 69.0938 43.6875 69.0938H49.875V71.9062ZM40.3125 52.5C33.9562 52.5 27.9938 55.9313 24.7688 61.425C24.375 62.1 24.6 62.9625 25.275 63.3562C25.95 63.75 26.8125 63.525 27.2063 62.85C29.925 58.2 34.95 55.3125 40.3313 55.3125C48.7125 55.3125 55.5188 62.1188 55.5188 70.5C55.5188 78.8812 48.7125 85.6875 40.3313 85.6875C31.95 85.6875 25.1438 78.8812 25.1438 70.5C25.1438 69.8438 25.1813 69.1875 25.275 68.5312C25.3688 67.7625 24.825 67.05 24.0563 66.9563C23.2875 66.8625 22.575 67.4062 22.4812 68.175C22.3875 68.9437 22.3313 69.7312 22.3313 70.5C22.3313 80.4187 30.4125 88.5 40.3313 88.5C50.25 88.5 58.3313 80.4187 58.3313 70.5C58.3125 60.5812 50.2313 52.5 40.3125 52.5ZM40.3125 52.5C33.9562 52.5 27.9938 55.9313 24.7688 61.425C24.375 62.1 24.6 62.9625 25.275 63.3562C25.95 63.75 26.8125 63.525 27.2063 62.85C29.925 58.2 34.95 55.3125 40.3313 55.3125C48.7125 55.3125 55.5188 62.1188 55.5188 70.5C55.5188 78.8812 48.7125 85.6875 40.3313 85.6875C31.95 85.6875 25.1438 78.8812 25.1438 70.5C25.1438 69.8438 25.1813 69.1875 25.275 68.5312C25.3688 67.7625 24.825 67.05 24.0563 66.9563C23.2875 66.8625 22.575 67.4062 22.4812 68.175C22.3875 68.9437 22.3313 69.7312 22.3313 70.5C22.3313 80.4187 30.4125 88.5 40.3313 88.5C50.25 88.5 58.3313 80.4187 58.3313 70.5C58.3125 60.5812 50.2313 52.5 40.3125 52.5ZM50.1562 66.2812H44.5312V60.6562C44.5312 59.2687 43.3875 58.125 42 58.125H38.625C37.2375 58.125 36.0938 59.2687 36.0938 60.6562V66.2812H30.4688C29.0812 66.2812 27.9375 67.425 27.9375 68.8125V72.1875C27.9375 73.575 29.0812 74.7188 30.4688 74.7188H36.0938V80.3438C36.0938 81.7312 37.2375 82.875 38.625 82.875H42C43.3875 82.875 44.5312 81.7312 44.5312 80.3438V74.7188H50.1562C51.5438 74.7188 52.6875 73.575 52.6875 72.1875V68.8125C52.6875 67.425 51.5438 66.2812 50.1562 66.2812ZM49.875 71.9062H43.6875C42.6 71.9062 41.7188 72.7875 41.7188 73.875V80.0625H38.9062V73.875C38.9062 72.7875 38.025 71.9062 36.9375 71.9062H30.75V69.0938H36.9375C38.025 69.0938 38.9062 68.2125 38.9062 67.125V60.9375H41.7188V67.125C41.7188 68.2125 42.6 69.0938 43.6875 69.0938H49.875V71.9062ZM50.1562 66.2812H44.5312V60.6562C44.5312 59.2687 43.3875 58.125 42 58.125H38.625C37.2375 58.125 36.0938 59.2687 36.0938 60.6562V66.2812H30.4688C29.0812 66.2812 27.9375 67.425 27.9375 68.8125V72.1875C27.9375 73.575 29.0812 74.7188 30.4688 74.7188H36.0938V80.3438C36.0938 81.7312 37.2375 82.875 38.625 82.875H42C43.3875 82.875 44.5312 81.7312 44.5312 80.3438V74.7188H50.1562C51.5438 74.7188 52.6875 73.575 52.6875 72.1875V68.8125C52.6875 67.425 51.5438 66.2812 50.1562 66.2812ZM49.875 71.9062H43.6875C42.6 71.9062 41.7188 72.7875 41.7188 73.875V80.0625H38.9062V73.875C38.9062 72.7875 38.025 71.9062 36.9375 71.9062H30.75V69.0938H36.9375C38.025 69.0938 38.9062 68.2125 38.9062 67.125V60.9375H41.7188V67.125C41.7188 68.2125 42.6 69.0938 43.6875 69.0938H49.875V71.9062ZM40.3125 52.5C33.9562 52.5 27.9938 55.9313 24.7688 61.425C24.375 62.1 24.6 62.9625 25.275 63.3562C25.95 63.75 26.8125 63.525 27.2063 62.85C29.925 58.2 34.95 55.3125 40.3313 55.3125C48.7125 55.3125 55.5188 62.1188 55.5188 70.5C55.5188 78.8812 48.7125 85.6875 40.3313 85.6875C31.95 85.6875 25.1438 78.8812 25.1438 70.5C25.1438 69.8438 25.1813 69.1875 25.275 68.5312C25.3688 67.7625 24.825 67.05 24.0563 66.9563C23.2875 66.8625 22.575 67.4062 22.4812 68.175C22.3875 68.9437 22.3313 69.7312 22.3313 70.5C22.3313 80.4187 30.4125 88.5 40.3313 88.5C50.25 88.5 58.3313 80.4187 58.3313 70.5C58.3125 60.5812 50.2313 52.5 40.3125 52.5ZM59.7188 29.625H20.9062C20.1375 29.625 19.5 30.2625 19.5 31.0312C19.5 31.8 20.1375 32.4375 20.9062 32.4375H59.7188C60.4875 32.4375 61.125 31.8 61.125 31.0312C61.125 30.2625 60.4875 29.625 59.7188 29.625ZM59.7188 24H20.9062C20.1375 24 19.5 24.6375 19.5 25.4062C19.5 26.175 20.1375 26.8125 20.9062 26.8125H59.7188C60.4875 26.8125 61.125 26.175 61.125 25.4062C61.125 24.6375 60.4875 24 59.7188 24Z" fill="#5CB9EA"></path> <path d="M58.3125 11.7188V15.0938C58.3125 15.3562 58.1063 15.5625 57.8438 15.5625H22.7812C22.5188 15.5625 22.3125 15.3562 22.3125 15.0938V11.7188C22.3125 11.4563 22.5188 11.25 22.7812 11.25H57.8438C58.1063 11.25 58.3125 11.4563 58.3125 11.7188Z" fill="url(#paint0_linear)"></path> <path d="M73.5938 47.8125H40.5188C38.1562 47.8125 35.9812 46.65 34.6687 44.6813L32.3812 41.25C31.5938 40.0687 30.2812 39.375 28.875 39.375H7.03125C4.70625 39.375 2.8125 41.2688 2.8125 43.5938V88.9688C2.8125 91.2938 4.70625 93.1875 7.03125 93.1875H73.5938C75.9187 93.1875 77.8125 91.2938 77.8125 88.9688V52.0312C77.8125 49.7063 75.9187 47.8125 73.5938 47.8125ZM40.3125 88.5C30.3937 88.5 22.3125 80.4188 22.3125 70.5C22.3125 69.7125 22.3688 68.9438 22.4625 68.175C22.5563 67.4063 23.2687 66.8625 24.0375 66.9563C24.8062 67.05 25.35 67.7625 25.2562 68.5312C25.1625 69.1875 25.125 69.8438 25.125 70.5C25.125 78.8812 31.9312 85.6875 40.3125 85.6875C48.6937 85.6875 55.5 78.8812 55.5 70.5C55.5 62.1187 48.6937 55.3125 40.3125 55.3125C34.95 55.3125 29.925 58.2 27.1875 62.85C26.7938 63.525 25.9312 63.75 25.2562 63.3562C24.5812 62.9625 24.3563 62.1 24.75 61.425C27.975 55.9125 33.9375 52.5 40.2937 52.5C50.2125 52.5 58.2937 60.5812 58.2937 70.5C58.3125 80.4188 50.2313 88.5 40.3125 88.5ZM50.1562 66.2812C51.5438 66.2812 52.6875 67.425 52.6875 68.8125V72.1875C52.6875 73.575 51.5438 74.7188 50.1562 74.7188H44.5312V80.3438C44.5312 81.7313 43.3875 82.875 42 82.875H38.625C37.2375 82.875 36.0938 81.7313 36.0938 80.3438V74.7188H30.4688C29.0812 74.7188 27.9375 73.575 27.9375 72.1875V68.8125C27.9375 67.425 29.0812 66.2812 30.4688 66.2812H36.0938V60.6562C36.0938 59.2687 37.2375 58.125 38.625 58.125H42C43.3875 58.125 44.5312 59.2687 44.5312 60.6562V66.2812H50.1562Z" fill="url(#paint1_linear)"></path> <path d="M49.875 69.0938V71.9062H43.6875C42.6 71.9062 41.7188 72.7875 41.7188 73.875V80.0625H38.9062V73.875C38.9062 72.7875 38.025 71.9062 36.9375 71.9062H30.75V69.0938H36.9375C38.025 69.0938 38.9062 68.2125 38.9062 67.125V60.9375H41.7188V67.125C41.7188 68.2125 42.6 69.0938 43.6875 69.0938H49.875Z" fill="white"></path> <defs> <linearGradient id="paint0_linear" x1="22.3125" y1="13.4063" x2="58.3125" y2="13.4063" gradientUnits="userSpaceOnUse"> <stop stop-color="white"></stop> <stop offset="1" stop-color="#E7F5FC"></stop> </linearGradient> <linearGradient id="paint1_linear" x1="73.4719" y1="95.8572" x2="47.9719" y2="76.3572" gradientUnits="userSpaceOnUse"> <stop stop-color="white"></stop> <stop offset="1" stop-color="#E7F5FC"></stop> </linearGradient> </defs> </svg> 