<?xml version="1.0" encoding="UTF-8"?> <svg xmlns="http://www.w3.org/2000/svg" width="78" height="97" viewBox="0 0 78 97" fill="none"> <path d="M9.32266 94.7969C13.535 94.7969 16.9315 91.4005 16.9315 87.2071V64.0961H1.71387V87.2261C1.71387 91.4005 5.12929 94.7969 9.32266 94.7969Z" fill="url(#paint0_linear)"></path> <path d="M1.71387 55.9369H16.9504V64.077H1.71387V55.9369Z" fill="url(#paint1_linear)"></path> <path d="M49.416 57.6636V81.8562C49.416 89.0476 55.2602 94.8538 62.4515 94.8538C69.6429 94.8538 75.4871 89.0286 75.4871 81.8562C75.4871 74.6838 69.6429 68.8586 62.4515 68.8586C61.9961 68.8586 59.6243 68.8776 59.1689 68.9345V22.6176C59.1689 16.1853 49.416 1.99231 49.416 1.99231V34.1162V57.6636ZM62.4515 86.9793C59.6243 86.9793 57.3284 84.6834 57.3284 81.8562C57.3284 79.029 59.6243 76.7331 62.4515 76.7331C65.2787 76.7331 67.5747 79.029 67.5747 81.8562C67.5747 84.6834 65.2787 86.9793 62.4515 86.9793Z" fill="url(#paint2_linear)"></path> <path d="M49.4158 34.1162V1.99231C49.4158 1.99231 39.6628 16.1853 39.6628 22.6176V68.9345C39.2264 68.8966 36.8356 68.8586 36.3802 68.8586C29.1889 68.8586 23.3447 74.6838 23.3447 81.8562C23.3447 89.0286 29.1889 94.8727 36.3802 94.8727C43.5716 94.8727 49.4158 89.0476 49.4158 81.8752V57.6636V34.1162ZM36.3613 86.9793C33.5341 86.9793 31.2381 84.6834 31.2381 81.8562C31.2381 79.029 33.5341 76.7331 36.3613 76.7331C39.1885 76.7331 41.4844 79.029 41.4844 81.8562C41.5034 84.6834 39.1885 86.9793 36.3613 86.9793Z" fill="url(#paint3_linear)"></path> <path d="M49.4164 57.0944H49.3974C44.0087 57.0944 39.6445 52.7302 39.6445 47.3415V44.3055C39.6445 38.9168 44.0087 34.5526 49.3974 34.5526H49.4164C54.8052 34.5526 59.1693 38.9168 59.1693 44.3055V47.3415C59.1693 52.7302 54.8052 57.0944 49.4164 57.0944Z" fill="url(#paint4_linear)"></path> <path d="M16.9504 20.4925V1.51794C8.54471 1.51794 1.71387 8.31083 1.71387 16.7166V55.9559H16.9504V37.6645" fill="white"></path> <path d="M50.9344 44.9696V46.6773C50.9344 47.5122 50.2513 48.1953 49.4164 48.1953C48.5815 48.1953 47.8984 47.5122 47.8984 46.6773V44.9696C47.8984 44.1347 48.5815 43.4517 49.4164 43.4517C50.2513 43.4517 50.9344 44.1347 50.9344 44.9696Z" fill="#5CB9EA"></path> <path d="M62.4507 75.234C58.7886 75.234 55.8096 78.213 55.8096 81.8751C55.8096 85.5372 58.7886 88.5162 62.4507 88.5162C66.1128 88.5162 69.0918 85.5372 69.0918 81.8751C69.0918 78.213 66.1128 75.234 62.4507 75.234ZM62.4507 85.4613C60.4583 85.4613 58.8455 83.8485 58.8455 81.8561C58.8455 79.8638 60.4583 78.251 62.4507 78.251C64.443 78.251 66.0558 79.8638 66.0558 81.8561C66.0558 83.8485 64.443 85.4613 62.4507 85.4613Z" fill="#5CB9EA"></path> <path d="M62.4511 67.3405C62.4321 67.3405 61.806 67.3405 61.0849 67.3595H60.7055V22.6175C60.6865 15.9195 51.6925 2.63731 50.6679 1.13832L50.6489 1.10037C50.3833 0.663959 49.9279 0.398315 49.4156 0.398315C48.9033 0.398315 48.4479 0.663959 48.1822 1.10037L48.1443 1.13832C47.1197 2.63731 38.1257 15.9005 38.1257 22.6175V67.3595H37.7462C37.0252 67.3595 36.399 67.3405 36.3611 67.3405C28.3349 67.3405 21.8076 73.8488 21.8076 81.8561C21.8076 89.8633 28.3349 96.3716 36.3611 96.3716C41.6171 96.3716 46.4935 93.5254 49.0741 88.9336L49.3966 88.3454L49.7382 88.9336C52.3187 93.5254 57.1952 96.3716 62.4511 96.3716C70.4773 96.3716 77.0046 89.8633 77.0046 81.8561C77.0046 73.8488 70.4773 67.3405 62.4511 67.3405ZM50.9336 7.13428L51.6356 8.32968C54.3869 12.9405 57.6505 19.1831 57.6505 22.6175V36.5638L57.0054 35.9756C55.3926 34.4956 53.3813 33.5279 51.2372 33.1674L50.9146 33.1104V7.13428H50.9336ZM41.1617 22.6175C41.1617 19.1641 44.4443 12.9405 47.1766 8.32968L47.8787 7.13428V33.1294L47.5561 33.1863C45.393 33.5279 43.4007 34.5146 41.7878 35.9946L41.1617 36.5828V22.6175ZM47.8976 81.875C47.8976 88.2125 42.7365 93.3547 36.3801 93.3547C30.0236 93.3547 24.8625 88.1936 24.8625 81.875C24.8625 75.5565 30.0236 70.3954 36.3801 70.3954C37.0442 70.3954 39.1314 70.4144 39.4919 70.4524C39.9283 70.4903 40.3458 70.3575 40.6683 70.0729C40.9909 69.7883 41.1617 69.3708 41.1617 68.9534V55.1019L41.7878 55.6902C43.4007 57.1702 45.412 58.1379 47.5561 58.4984L47.8787 58.5553V81.875H47.8976ZM49.4156 55.5763H49.3966C44.8617 55.5763 41.1617 51.8763 41.1617 47.3414V44.3054C41.1617 39.7705 44.8617 36.0705 49.3966 36.0705H49.4156C53.9505 36.0705 57.6505 39.7705 57.6505 44.3054V47.3414C57.6505 51.8763 53.9505 55.5763 49.4156 55.5763ZM62.4511 93.3547C56.0946 93.3547 50.9336 88.1936 50.9336 81.8561V58.5174L51.2561 58.4604C53.4002 58.0999 55.4116 57.1322 57.0244 55.6522L57.6695 55.064V68.9154C57.6695 69.3518 57.8593 69.7503 58.1629 70.0349C58.4854 70.3195 58.9029 70.4524 59.3393 70.4144C59.6998 70.3765 61.787 70.3575 62.4701 70.3575C68.8266 70.3575 73.9876 75.5186 73.9876 81.8371C73.9876 88.1556 68.8076 93.3547 62.4511 93.3547Z" fill="#5CB9EA"></path> <path d="M36.3794 75.234C32.7173 75.234 29.7383 78.213 29.7383 81.8751C29.7383 85.5372 32.7173 88.5162 36.3794 88.5162C40.0415 88.5162 43.0205 85.5372 43.0205 81.8751C43.0205 78.213 40.0415 75.234 36.3794 75.234ZM36.3794 85.4613C34.387 85.4613 32.7742 83.8485 32.7742 81.8561C32.7742 79.8638 34.387 78.251 36.3794 78.251C38.3717 78.251 39.9845 79.8638 39.9845 81.8561C39.9845 83.8485 38.3527 85.4613 36.3794 85.4613Z" fill="#5CB9EA"></path> <path d="M16.9498 22.0105C17.7847 22.0105 18.4678 21.3274 18.4678 20.4925V1.51796C18.4678 0.683084 17.7847 0 16.9498 0C7.70923 0 0.195312 7.49495 0.195312 16.7166V87.207C0.195312 92.2353 4.29382 96.3148 9.32207 96.3148C14.3503 96.3148 18.4488 92.2353 18.4488 87.207V37.6455C18.4488 37.247 18.297 36.8486 18.0124 36.564C17.7278 36.2793 17.3483 36.1275 16.9309 36.1275C16.096 36.1275 15.4129 36.8106 15.4129 37.6455V54.419H3.23124V16.7166C3.23124 9.96164 8.27847 4.13645 14.9955 3.18772L15.4319 3.1308V20.4925C15.4319 21.3274 16.115 22.0105 16.9498 22.0105ZM9.32207 93.2789C5.96358 93.2789 3.23124 90.5466 3.23124 87.207V65.614H15.4319V87.207C15.4319 90.5655 12.6995 93.2789 9.32207 93.2789ZM15.4319 57.4549V62.5591H3.23124V57.4549H15.4319Z" fill="#5CB9EA"></path> <path d="M17.7854 30.3592C17.2541 30.7197 16.533 30.7007 16.0207 30.3023C15.5274 29.9228 15.2997 29.2587 15.4894 28.6515C15.6792 28.0633 16.2294 27.6079 16.8556 27.5699C16.8746 27.5699 16.9125 27.5699 16.9315 27.5699C17.5387 27.5699 18.1079 27.9494 18.3356 28.4997C18.6202 29.1828 18.3736 29.9607 17.7854 30.3592Z" fill="#5CB9EA"></path> <defs> <linearGradient id="paint0_linear" x1="9.33025" y1="57.8654" x2="9.33025" y2="70.3545" gradientUnits="userSpaceOnUse"> <stop stop-color="white"></stop> <stop offset="1" stop-color="#E7F5FC"></stop> </linearGradient> <linearGradient id="paint1_linear" x1="9.33016" y1="57.8653" x2="9.33016" y2="70.3544" gradientUnits="userSpaceOnUse"> <stop stop-color="white"></stop> <stop offset="1" stop-color="#E7F5FC"></stop> </linearGradient> <linearGradient id="paint2_linear" x1="62.4464" y1="18.7356" x2="62.4464" y2="60.5355" gradientUnits="userSpaceOnUse"> <stop stop-color="white"></stop> <stop offset="1" stop-color="#E7F5FC"></stop> </linearGradient> <linearGradient id="paint3_linear" x1="36.3707" y1="18.7356" x2="36.3707" y2="60.5355" gradientUnits="userSpaceOnUse"> <stop stop-color="white"></stop> <stop offset="1" stop-color="#E7F5FC"></stop> </linearGradient> <linearGradient id="paint4_linear" x1="49.409" y1="18.7356" x2="49.409" y2="60.5355" gradientUnits="userSpaceOnUse"> <stop stop-color="white"></stop> <stop offset="1" stop-color="#E7F5FC"></stop> </linearGradient> </defs> </svg> 