<?xml version="1.0" encoding="UTF-8"?> <svg xmlns="http://www.w3.org/2000/svg" width="93" height="81" viewBox="0 0 93 81" fill="none"> <mask id="mask0" mask-type="alpha" maskUnits="userSpaceOnUse" x="0" y="0" width="93" height="81"> <rect width="93" height="81" fill="#C4C4C4"></rect> </mask> <g mask="url(#mask0)"> <path d="M48.8123 68.4799V79.2638H67.6842V68.4799H66.3362H50.1602H48.8123Z" fill="#E7F5FC"></path> <path d="M43.4203 68.4799H42.0723H25.8963H24.5483V79.2638H43.4203V68.4799Z" fill="#E7F5FC"></path> <path d="M63.2764 23.0123L64.2334 22.0552C65.3992 20.9374 66.3301 19.5982 66.9715 18.1159C67.6128 16.6336 67.9518 15.0383 67.9685 13.4233C67.9851 11.8083 67.6792 10.2062 67.0685 8.71108C66.4579 7.2159 65.5548 5.85771 64.4124 4.71613C63.2699 3.57456 61.911 2.67259 60.4153 2.06312C58.9197 1.45365 57.3174 1.14895 55.7024 1.16689C54.0875 1.18482 52.4923 1.52503 51.0106 2.16757C49.5288 2.8101 48.1903 3.74203 47.0735 4.90869L46.1164 5.86577L45.1593 4.90869C44.0425 3.74203 42.7039 2.8101 41.2222 2.16757C39.7404 1.52503 38.1453 1.18482 36.5303 1.16689C34.9154 1.14895 33.3131 1.45365 31.8174 2.06312C30.3218 2.67259 28.9629 3.57456 27.8204 4.71613C26.6779 5.85771 25.7749 7.2159 25.1643 8.71108C24.5536 10.2062 24.2477 11.8083 24.2643 13.4233C24.281 15.0383 24.6199 16.6336 25.2613 18.1159C25.9027 19.5982 26.8336 20.9374 27.9993 22.0552L28.9564 23.0123L46.1164 40.1722L63.2764 23.0123ZM38.0284 21.3003V15.9083H43.4204V10.5163H48.8124V15.9083H54.2044V21.3003H48.8124V26.6923H43.4204V21.3003H38.0284Z" fill="#E7F5FC"></path> <path d="M54.2043 14.5601H50.1604V10.5161C50.1604 10.1586 50.0183 9.81571 49.7655 9.56291C49.5127 9.31011 49.1699 9.16809 48.8124 9.16809H43.4204C43.0629 9.16809 42.72 9.31011 42.4672 9.56291C42.2144 9.81571 42.0724 10.1586 42.0724 10.5161V14.5601H38.0284C37.6709 14.5601 37.328 14.7021 37.0752 14.9549C36.8224 15.2077 36.6804 15.5506 36.6804 15.9081V21.3C36.6804 21.6575 36.8224 22.0004 37.0752 22.2532C37.328 22.506 37.6709 22.648 38.0284 22.648H42.0724V26.692C42.0724 27.0495 42.2144 27.3924 42.4672 27.6452C42.72 27.898 43.0629 28.04 43.4204 28.04H48.8124C49.1699 28.04 49.5127 27.898 49.7655 27.6452C50.0183 27.3924 50.1604 27.0495 50.1604 26.692V22.648H54.2043C54.5619 22.648 54.9047 22.506 55.1575 22.2532C55.4103 22.0004 55.5523 21.6575 55.5523 21.3V15.9081C55.5523 15.5506 55.4103 15.2077 55.1575 14.9549C54.9047 14.7021 54.5619 14.5601 54.2043 14.5601ZM52.8563 19.952H48.8124C48.4549 19.952 48.112 20.0941 47.8592 20.3469C47.6064 20.5997 47.4644 20.9425 47.4644 21.3V25.344H44.7684V21.3C44.7684 20.9425 44.6264 20.5997 44.3736 20.3469C44.1208 20.0941 43.7779 19.952 43.4204 19.952H39.3764V17.2561H43.4204C43.7779 17.2561 44.1208 17.114 44.3736 16.8612C44.6264 16.6084 44.7684 16.2656 44.7684 15.9081V11.8641H47.4644V15.9081C47.4644 16.2656 47.6064 16.6084 47.8592 16.8612C48.112 17.114 48.4549 17.2561 48.8124 17.2561H52.8563V19.952Z" fill="#5CB9EA"></path> <path d="M83.4962 21.7855C83.5235 21.5484 83.537 21.3098 83.5367 21.0711C83.5301 19.8355 83.1015 18.6392 82.3219 17.6806C81.5422 16.722 80.4584 16.0586 79.2501 15.8004C77.8832 15.5403 76.4686 15.809 75.2924 16.5522C74.1162 17.2955 73.2662 18.4578 72.9145 19.804L66.9833 36.8696C66.8954 36.9045 66.8099 36.945 66.7272 36.9909L54.8109 43.9735C52.9875 45.0446 51.475 46.5729 50.423 48.4074C49.371 50.2419 48.8158 52.3192 48.8123 54.4339V67.132C48.4548 67.132 48.112 67.2741 47.8592 67.5269C47.6064 67.7797 47.4644 68.1225 47.4644 68.48V79.264C47.4644 79.6215 47.6064 79.9644 47.8592 80.2172C48.112 80.47 48.4548 80.612 48.8123 80.612H67.6843C68.0418 80.612 68.3846 80.47 68.6374 80.2172C68.8902 79.9644 69.0323 79.6215 69.0323 79.264V68.48C69.0323 68.1225 68.8902 67.7797 68.6374 67.5269C68.3846 67.2741 68.0418 67.132 67.6843 67.132V64.1665C67.6868 63.5971 67.808 63.0345 68.0401 62.5146C68.2722 61.9948 68.6101 61.5289 69.0323 61.1469L78.1447 53.0455C79.1415 52.1734 79.855 51.0233 80.1937 49.7429L86.0439 27.865C86.1688 27.4081 86.2323 26.9367 86.2327 26.4631C86.2274 25.5118 85.9717 24.5787 85.4913 23.7576C85.011 22.9364 84.3229 22.2563 83.4962 21.7855V21.7855ZM75.4892 20.5993C75.6546 19.9022 76.0767 19.293 76.6714 18.8933C77.266 18.4936 77.9894 18.3326 78.6974 18.4425C79.3016 18.569 79.8441 18.8991 80.2342 19.3775C80.6243 19.856 80.8384 20.4538 80.8407 21.0711V21.098C79.6366 21.1204 78.4728 21.5354 77.5262 22.28C76.5797 23.0246 75.9023 24.0579 75.597 25.2229L71.8361 36.8291C71.2667 36.559 70.6562 36.3859 70.0298 36.3169L75.4892 20.5993ZM66.3363 77.916H50.1603V69.828H66.3363V77.916ZM83.4423 27.164L77.5785 49.0554C77.3757 49.8161 76.9538 50.5005 76.3653 51.0235L67.2394 59.125C66.5333 59.7618 65.9682 60.5393 65.5805 61.4075C65.1928 62.2758 64.9911 63.2156 64.9883 64.1665V67.132H51.5083V54.4339C51.515 52.7893 51.9483 51.1745 52.7658 49.7474C53.5833 48.3203 54.7571 47.1298 56.1724 46.2921L68.0752 39.3229C68.3821 39.1441 68.7213 39.0277 69.0733 38.9804C69.4253 38.9331 69.7833 38.9558 70.1265 39.0473C70.4697 39.1387 70.7915 39.2971 71.0733 39.5132C71.3551 39.7294 71.5914 39.9992 71.7687 40.307C72.1188 40.9298 72.2154 41.6637 72.0383 42.3559C71.9447 42.6977 71.7846 43.0177 71.5671 43.2976C71.3497 43.5775 71.0792 43.8117 70.7712 43.987L63.0472 48.4488C62.7538 48.6354 62.5438 48.928 62.461 49.2657C62.3783 49.6034 62.4293 49.96 62.6033 50.261C62.7773 50.562 63.0608 50.7842 63.3948 50.8811C63.7287 50.9779 64.0871 50.942 64.3952 50.7809L72.1192 46.319C72.7366 45.9687 73.2776 45.4985 73.7105 44.9359C74.1434 44.3734 74.4594 43.7299 74.6399 43.0434C75.0069 41.6641 74.813 40.1957 74.1007 38.959L74.0198 38.8376L78.1851 25.9913C78.3506 25.2941 78.7727 24.685 79.3673 24.2853C79.9619 23.8855 80.6854 23.7246 81.3934 23.8345C81.9976 23.961 82.54 24.2911 82.9302 24.7695C83.3203 25.2479 83.5344 25.8457 83.5367 26.4631C83.5412 26.7002 83.5094 26.9366 83.4423 27.164V27.164Z" fill="#5CB9EA"></path> <path d="M43.4203 67.1318V54.4337C43.4168 52.3189 42.8616 50.2417 41.8096 48.4072C40.7576 46.5727 39.2452 45.0444 37.4217 43.9733L25.5055 36.9772C25.4246 36.9367 25.3302 36.9098 25.2494 36.8693L19.3586 19.8981C19.0162 18.5323 18.1663 17.3483 16.9818 16.587C15.7973 15.8257 14.3672 15.5443 12.9826 15.8002C11.7743 16.0584 10.6904 16.7217 9.91078 17.6804C9.13114 18.639 8.70253 19.8352 8.69599 21.0708C8.69564 21.3096 8.70914 21.5481 8.73643 21.7853C7.90979 22.2561 7.22169 22.9362 6.74133 23.7573C6.26097 24.5784 6.00529 25.5115 6 26.4628C6.00262 26.9354 6.06144 27.406 6.17524 27.8647L12.039 49.7292C12.3741 51.015 13.088 52.1703 14.088 53.0453L23.1869 61.1467C23.6133 61.5261 23.955 61.991 24.1896 62.5113C24.4242 63.0316 24.5464 63.5955 24.5484 64.1662V67.1318C24.1909 67.1318 23.848 67.2738 23.5952 67.5266C23.3424 67.7794 23.2004 68.1223 23.2004 68.4798V79.2637C23.2004 79.6213 23.3424 79.9641 23.5952 80.2169C23.848 80.4697 24.1909 80.6117 24.5484 80.6117H43.4203C43.7778 80.6117 44.1207 80.4697 44.3735 80.2169C44.6263 79.9641 44.7683 79.6213 44.7683 79.2637V68.4798C44.7683 68.1223 44.6263 67.7794 44.3735 67.5266C44.1207 67.2738 43.7778 67.1318 43.4203 67.1318V67.1318ZM11.392 21.0708C11.3936 20.4554 11.6058 19.8591 11.9933 19.3809C12.3807 18.9027 12.9201 18.5715 13.5218 18.4423C14.2493 18.3367 14.9897 18.51 15.5948 18.9275C16.1998 19.345 16.6246 19.9758 16.784 20.6934L22.2029 36.3167C21.5765 36.3857 20.966 36.5588 20.3966 36.8289L16.6626 25.2901C16.3588 24.1136 15.68 23.0681 14.729 22.3117C13.7781 21.5553 12.6067 21.1292 11.392 21.0978V21.0708ZM24.9798 59.1247L15.8673 51.0233C15.2756 50.4975 14.8534 49.8078 14.6541 49.0417L8.77687 27.1638C8.72107 26.9344 8.6939 26.6989 8.69599 26.4628C8.69765 25.8474 8.90983 25.251 9.29727 24.7729C9.68472 24.2947 10.2241 23.9635 10.8258 23.8342C11.5482 23.7258 12.2848 23.8949 12.8875 24.3076C13.4902 24.7202 13.9143 25.3458 14.0745 26.0584L18.2128 38.8374L18.1319 38.9587C17.4197 40.1955 17.2258 41.6639 17.5927 43.0431C17.7732 43.7297 18.0892 44.3731 18.5221 44.9357C18.955 45.4982 19.4961 45.9685 20.1135 46.3188L27.8375 50.7806C28.1456 50.9418 28.504 50.9777 28.8379 50.8808C29.1718 50.7839 29.4554 50.5618 29.6294 50.2608C29.8034 49.9598 29.8543 49.6032 29.7716 49.2655C29.6889 48.9278 29.4789 48.6351 29.1855 48.4486L21.4615 43.9867C21.1534 43.8115 20.883 43.5772 20.6655 43.2974C20.4481 43.0175 20.288 42.6975 20.1944 42.3557C20.0173 41.6634 20.1138 40.9296 20.464 40.3067C20.6401 39.9996 20.875 39.7301 21.1553 39.5138C21.4355 39.2974 21.7557 39.1384 22.0974 39.0458C22.4391 38.9531 22.7957 38.9287 23.1469 38.9739C23.4981 39.0191 23.8369 39.1331 24.144 39.3092L36.0603 46.2918C37.4756 47.1295 38.6494 48.3201 39.4669 49.7472C40.2844 51.1743 40.7176 52.7891 40.7243 54.4337V67.1318H27.2444V64.1662C27.2421 63.214 27.0392 62.2729 26.6491 61.4043C26.2589 60.5356 25.6901 59.7589 24.9798 59.1247V59.1247ZM42.0723 77.9158H25.8964V69.8278H42.0723V77.9158Z" fill="#5CB9EA"></path> <path d="M65.1864 3.95415C63.935 2.70056 62.4487 1.70606 60.8125 1.02756C59.1763 0.349055 57.4224 -0.000125172 55.6511 3.36596e-08C53.8798 0.00012524 52.1259 0.349553 50.4898 1.02829C48.8537 1.70702 47.3675 2.70173 46.1163 3.95549C44.8652 2.7017 43.3791 1.70698 41.7431 1.02828C40.107 0.349579 38.3532 0.000228861 36.5819 0.000228861C34.8107 0.000228861 33.0569 0.349579 31.4208 1.02828C29.7848 1.70698 28.2987 2.7017 27.0476 3.95549C24.5246 6.4839 23.1077 9.9099 23.1077 13.4818C23.1077 17.0536 24.5246 20.4796 27.0476 23.008L45.1646 41.1251C45.4174 41.3778 45.7602 41.5198 46.1177 41.5198C46.4751 41.5198 46.8179 41.3778 47.0707 41.1251L65.1877 23.008C67.7106 20.4792 69.1273 17.0529 69.1271 13.4808C69.1268 9.90873 67.7096 6.4826 65.1864 3.95415V3.95415ZM46.1163 38.266L28.9523 21.102C27.4454 19.593 26.4197 17.6712 26.0049 15.5795C25.5901 13.4877 25.8048 11.3199 26.6218 9.35011C27.4388 7.38033 28.8215 5.697 30.5951 4.51293C32.3687 3.32886 34.4535 2.6972 36.586 2.69782C38.0026 2.69295 39.4059 2.9702 40.7143 3.51338C42.0226 4.05656 43.2096 4.8548 44.2062 5.86156L45.1633 6.81863C45.4161 7.07134 45.7589 7.21331 46.1163 7.21331C46.4737 7.21331 46.8166 7.07134 47.0693 6.81863L48.0291 5.85886C49.0299 4.8563 50.2185 4.06091 51.527 3.51823C52.8355 2.97554 54.2382 2.6962 55.6547 2.6962C57.0713 2.6962 58.4739 2.97554 59.7824 3.51823C61.0909 4.06091 62.2796 4.8563 63.2803 5.85886C65.2995 7.88082 66.4337 10.6215 66.4337 13.4791C66.4337 16.3366 65.2995 19.0773 63.2803 21.0993L46.1163 38.266Z" fill="#5CB9EA"></path> </g> </svg> 