<?xml version="1.0" encoding="UTF-8"?> <svg xmlns="http://www.w3.org/2000/svg" width="93" height="81" viewBox="0 0 93 81" fill="none"> <mask id="mask0" mask-type="alpha" maskUnits="userSpaceOnUse" x="0" y="0" width="93" height="81"> <rect width="93" height="81" fill="#C4C4C4"></rect> </mask> <g mask="url(#mask0)"> <path d="M57.7039 28.1376H80.7854V43.2497H57.7039V28.1376Z" fill="#E7F5FC"></path> <path d="M57.7039 59.8732H80.7854V64.4068H57.7039V59.8732Z" fill="#E7F5FC"></path> <path d="M57.7039 55.3395H80.7854V59.8731H57.7039V55.3395Z" fill="#E7F5FC"></path> <path d="M57.7039 64.4069H80.7854V79.519H57.7039V64.4069Z" fill="#E7F5FC"></path> <path d="M25.9668 68.9406H40.3927V74.9854H25.9668V68.9406Z" fill="#E7F5FC"></path> <path d="M88.7197 50.8059C89.917 50.8059 90.8836 51.8184 90.8836 53.0727C90.8836 54.327 89.917 55.3396 88.7197 55.3396H80.7854H57.7039H28.1307C26.9333 55.3396 25.9668 54.327 25.9668 53.0727C25.9668 51.8184 26.9333 50.8059 28.1307 50.8059H88.7197Z" fill="#E7F5FC"></path> <path d="M25.9668 32.6714H40.3927V38.7163H25.9668V32.6714Z" fill="#E7F5FC"></path> <path d="M5.77041 38.7162L6.01565 38.8975C3.13046 43.0987 1.44263 48.2671 1.44263 53.8284V11.5143H5.77041V38.7162Z" fill="#E7F5FC"></path> <path d="M40.3927 28.1376V32.6712H25.9668C14.8155 32.6712 5.77041 42.1466 5.77041 53.8283C5.77041 65.51 14.8155 74.9853 25.9668 74.9853H40.3927V79.519H25.9668C12.4208 79.519 1.44263 68.0186 1.44263 53.8283C1.44263 48.267 3.13046 43.0986 6.01565 38.8974C10.4588 32.3841 17.744 28.1376 25.9668 28.1376H40.3927Z" fill="#E7F5FC"></path> <path d="M25.9667 81.0332C11.649 81.0332 0 68.8301 0 53.8313C0 38.8325 11.649 26.6294 25.9667 26.6294C26.7645 26.6294 27.4093 27.3049 27.4093 28.1406C27.4093 28.9763 26.7645 29.6518 25.9667 29.6518C13.2401 29.6518 2.88519 40.4993 2.88519 53.8313C2.88519 67.1633 13.2401 78.0108 25.9667 78.0108C26.7645 78.0108 27.4093 78.6863 27.4093 79.522C27.4093 80.3577 26.7645 81.0332 25.9667 81.0332Z" fill="#5CB9EA"></path> <path d="M25.9668 76.4996C14.0351 76.4996 4.32788 66.3306 4.32788 53.8313C4.32788 41.3321 14.0351 31.1631 25.9668 31.1631C26.7646 31.1631 27.4094 31.8386 27.4094 32.6743C27.4094 33.51 26.7646 34.1855 25.9668 34.1855C15.6263 34.1855 7.21307 42.9989 7.21307 53.8313C7.21307 64.6637 15.6263 73.4772 25.9668 73.4772C26.7646 73.4772 27.4094 74.1527 27.4094 74.9884C27.4094 75.8241 26.7646 76.4996 25.9668 76.4996Z" fill="#5CB9EA"></path> <path d="M40.3956 29.6518H25.9668C25.169 29.6518 24.5242 28.9763 24.5242 28.1406C24.5242 27.3049 25.169 26.6294 25.9668 26.6294H40.3956C41.1934 26.6294 41.8382 27.3049 41.8382 28.1406C41.8382 28.9763 41.1934 29.6518 40.3956 29.6518V29.6518Z" fill="#5CB9EA"></path> <path d="M40.3955 34.1855C39.5977 34.1855 38.9529 33.51 38.9529 32.6743V28.1406C38.9529 27.3049 39.5977 26.6294 40.3955 26.6294C41.1932 26.6294 41.8381 27.3049 41.8381 28.1406V32.6743C41.8381 33.51 41.1932 34.1855 40.3955 34.1855Z" fill="#5CB9EA"></path> <path d="M40.3956 34.1855H25.9668C25.169 34.1855 24.5242 33.51 24.5242 32.6743C24.5242 31.8386 25.169 31.1631 25.9668 31.1631H40.3956C41.1934 31.1631 41.8382 31.8386 41.8382 32.6743C41.8382 33.51 41.1934 34.1855 40.3956 34.1855V34.1855Z" fill="#5CB9EA"></path> <path d="M40.3956 76.4996H25.9668C25.169 76.4996 24.5242 75.8241 24.5242 74.9884C24.5242 74.1527 25.169 73.4772 25.9668 73.4772H40.3956C41.1934 73.4772 41.8382 74.1527 41.8382 74.9884C41.8382 75.8241 41.1934 76.4996 40.3956 76.4996V76.4996Z" fill="#5CB9EA"></path> <path d="M40.3956 70.4548H25.9668C25.169 70.4548 24.5242 69.7793 24.5242 68.9436C24.5242 68.1079 25.169 67.4324 25.9668 67.4324H40.3956C41.1934 67.4324 41.8382 68.1079 41.8382 68.9436C41.8382 69.7793 41.1934 70.4548 40.3956 70.4548V70.4548Z" fill="#5CB9EA"></path> <path d="M40.3955 81.0333C39.5977 81.0333 38.9529 80.3577 38.9529 79.522V74.9884C38.9529 74.1527 39.5977 73.4772 40.3955 73.4772C41.1932 73.4772 41.8381 74.1527 41.8381 74.9884V79.522C41.8381 80.3577 41.1932 81.0333 40.3955 81.0333Z" fill="#5CB9EA"></path> <path d="M40.3956 81.0332H25.9668C25.169 81.0332 24.5242 80.3577 24.5242 79.522C24.5242 78.6863 25.169 78.0107 25.9668 78.0107H40.3956C41.1934 78.0107 41.8382 78.6863 41.8382 79.522C41.8382 80.3577 41.1934 81.0332 40.3956 81.0332V81.0332Z" fill="#5CB9EA"></path> <path d="M25.9668 76.4997C25.169 76.4997 24.5242 75.8242 24.5242 74.9885V68.9436C24.5242 68.1079 25.169 67.4324 25.9668 67.4324C26.7645 67.4324 27.4094 68.1079 27.4094 68.9436V74.9885C27.4094 75.8242 26.7645 76.4997 25.9668 76.4997Z" fill="#5CB9EA"></path> <path d="M40.3955 76.4997C39.5977 76.4997 38.9529 75.8242 38.9529 74.9885V68.9436C38.9529 68.1079 39.5977 67.4324 40.3955 67.4324C41.1932 67.4324 41.8381 68.1079 41.8381 68.9436V74.9885C41.8381 75.8242 41.1932 76.4997 40.3955 76.4997Z" fill="#5CB9EA"></path> <path d="M40.3956 40.2243H25.9668C25.169 40.2243 24.5242 39.5488 24.5242 38.7131C24.5242 37.8774 25.169 37.2019 25.9668 37.2019H40.3956C41.1934 37.2019 41.8382 37.8774 41.8382 38.7131C41.8382 39.5488 41.1934 40.2243 40.3956 40.2243V40.2243Z" fill="#5CB9EA"></path> <path d="M40.3955 40.2243C39.5977 40.2243 38.9529 39.5488 38.9529 38.7131V32.6682C38.9529 31.8325 39.5977 31.157 40.3955 31.157C41.1932 31.157 41.8381 31.8325 41.8381 32.6682V38.7131C41.8381 39.5488 41.1932 40.2243 40.3955 40.2243Z" fill="#5CB9EA"></path> <path d="M25.9668 40.2243C25.169 40.2243 24.5242 39.5488 24.5242 38.7131V32.6682C24.5242 31.8325 25.169 31.157 25.9668 31.157C26.7645 31.157 27.4094 31.8325 27.4094 32.6682V38.7131C27.4094 39.5488 26.7645 40.2243 25.9668 40.2243Z" fill="#5CB9EA"></path> <path d="M1.44284 55.3428C0.645084 55.3428 0.000244141 54.6673 0.000244141 53.8316V11.5115C0.000244141 10.6758 0.645084 10.0002 1.44284 10.0002C2.24059 10.0002 2.88543 10.6758 2.88543 11.5115V53.8316C2.88543 54.6673 2.24059 55.3428 1.44284 55.3428Z" fill="#5CB9EA"></path> <path d="M5.77048 40.2213C4.97272 40.2213 4.32788 39.5458 4.32788 38.7101V11.5112C4.32788 10.6755 4.97272 10 5.77048 10C6.56823 10 7.21307 10.6755 7.21307 11.5112V38.7101C7.21307 39.5458 6.56823 40.2213 5.77048 40.2213Z" fill="#5CB9EA"></path> <path d="M28.1307 56.8447C26.1413 56.8447 24.5242 55.1506 24.5242 53.0666C24.5242 50.9826 26.1413 49.2886 28.1307 49.2886C28.9284 49.2886 29.5733 49.9641 29.5733 50.7998C29.5733 51.6355 28.9284 52.311 28.1307 52.311C27.7339 52.311 27.4094 52.651 27.4094 53.0666C27.4094 53.4822 27.7339 53.8222 28.1307 53.8222C28.9284 53.8222 29.5733 54.4977 29.5733 55.3334C29.5733 56.1691 28.9284 56.8447 28.1307 56.8447Z" fill="#5CB9EA"></path> <path d="M88.7197 56.8447C87.9219 56.8447 87.2771 56.1691 87.2771 55.3334C87.2771 54.4977 87.9219 53.8222 88.7197 53.8222C89.1164 53.8222 89.441 53.4822 89.441 53.0666C89.441 52.651 89.1164 52.311 88.7197 52.311C87.9219 52.311 87.2771 51.6355 87.2771 50.7998C87.2771 49.9641 87.9219 49.2886 88.7197 49.2886C90.709 49.2886 92.3262 50.9826 92.3262 53.0666C92.3262 55.1506 90.709 56.8447 88.7197 56.8447Z" fill="#5CB9EA"></path> <path d="M88.7196 56.8447H28.1306C27.3328 56.8447 26.688 56.1692 26.688 55.3335C26.688 54.4978 27.3328 53.8223 28.1306 53.8223H88.7196C89.5173 53.8223 90.1622 54.4978 90.1622 55.3335C90.1622 56.1692 89.5173 56.8447 88.7196 56.8447Z" fill="#5CB9EA"></path> <path d="M88.7196 52.311H28.1306C27.3328 52.311 26.688 51.6355 26.688 50.7998C26.688 49.9641 27.3328 49.2886 28.1306 49.2886H88.7196C89.5173 49.2886 90.1622 49.9641 90.1622 50.7998C90.1622 51.6355 89.5173 52.311 88.7196 52.311Z" fill="#5CB9EA"></path> <path d="M80.781 81.0272C79.9832 81.0272 79.3384 80.3517 79.3384 79.516V55.3335C79.3384 54.4978 79.9832 53.8223 80.781 53.8223C81.5787 53.8223 82.2236 54.4978 82.2236 55.3335V79.516C82.2236 80.3517 81.5787 81.0272 80.781 81.0272V81.0272Z" fill="#5CB9EA"></path> <path d="M80.781 81.0272H57.6994C56.9017 81.0272 56.2568 80.3517 56.2568 79.516C56.2568 78.6803 56.9017 78.0048 57.6994 78.0048H80.781C81.5787 78.0048 82.2236 78.6803 82.2236 79.516C82.2236 80.3517 81.5787 81.0272 80.781 81.0272Z" fill="#5CB9EA"></path> <path d="M57.6994 81.0272C56.9017 81.0272 56.2568 80.3517 56.2568 79.516V55.3335C56.2568 54.4978 56.9017 53.8223 57.6994 53.8223C58.4972 53.8223 59.142 54.4978 59.142 55.3335V79.516C59.142 80.3517 58.4972 81.0272 57.6994 81.0272V81.0272Z" fill="#5CB9EA"></path> <path d="M82.2249 61.3753H56.2553C55.4576 61.3753 54.8127 60.6998 54.8127 59.8641C54.8127 59.0284 55.4576 58.3529 56.2553 58.3529H82.2249C83.0227 58.3529 83.6675 59.0284 83.6675 59.8641C83.6675 60.6998 83.0227 61.3753 82.2249 61.3753V61.3753Z" fill="#5CB9EA"></path> <path d="M82.2249 65.909H56.2553C55.4576 65.909 54.8127 65.2335 54.8127 64.3978C54.8127 63.5621 55.4576 62.8866 56.2553 62.8866H82.2249C83.0227 62.8866 83.6675 63.5621 83.6675 64.3978C83.6675 65.2335 83.0227 65.909 82.2249 65.909V65.909Z" fill="#5CB9EA"></path> <path d="M90.8838 13.0227H1.44284C0.645084 13.0227 0.000244141 12.3472 0.000244141 11.5115C0.000244141 10.6758 0.645084 10.0002 1.44284 10.0002H90.8838C91.6815 10.0002 92.3263 10.6758 92.3263 11.5115C92.3263 12.3472 91.6815 13.0227 90.8838 13.0227Z" fill="#5CB9EA"></path> <path d="M90.8835 81.0272H1.4426C0.64484 81.0272 0 80.3517 0 79.516C0 78.6803 0.64484 78.0048 1.4426 78.0048H90.8835C91.6813 78.0048 92.3261 78.6803 92.3261 79.516C92.3261 80.3517 91.6813 81.0272 90.8835 81.0272Z" fill="#5CB9EA"></path> <path d="M69.3051 29.6443C68.5074 29.6443 67.8625 28.9688 67.8625 28.1331V11.5112C67.8625 10.6755 68.5074 10 69.3051 10C70.1029 10 70.7477 10.6755 70.7477 11.5112V28.1331C70.7477 28.9688 70.1029 29.6443 69.3051 29.6443Z" fill="#5CB9EA"></path> <path d="M80.7826 44.7518H57.7097C56.9119 44.7518 56.2671 44.0763 56.2671 43.2406V28.1315C56.2671 27.2958 56.9119 26.6202 57.7097 26.6202H80.7826C81.5803 26.6202 82.2252 27.2958 82.2252 28.1315V43.2406C82.2252 44.0763 81.5803 44.7518 80.7826 44.7518ZM59.1523 41.7294H79.34V29.6427H59.1523V41.7294Z" fill="#5CB9EA"></path> </g> </svg> 