<?xml version="1.0" encoding="UTF-8"?> <svg xmlns="http://www.w3.org/2000/svg" width="83" height="81" viewBox="0 0 83 81" fill="none"> <mask id="mask0" mask-type="alpha" maskUnits="userSpaceOnUse" x="0" y="0" width="83" height="81"> <rect width="83" height="81" fill="#C4C4C4"></rect> </mask> <g mask="url(#mask0)"> <path d="M40.1645 42.8125H26.3093V64.2377H36.3858C34.295 64.2377 32.6071 62.5372 32.6071 60.459C32.6071 58.3681 34.295 56.6803 36.3858 56.6803C38.4641 56.6803 40.1645 58.3681 40.1645 60.459C40.1645 58.3681 41.8523 56.6803 43.9432 56.6803C46.0341 56.6803 47.7219 58.3681 47.7219 60.459C47.7219 62.5372 46.0341 64.2377 43.9432 64.2377H54.0197V42.8125H40.1645Z" fill="#E7F5FC"></path> <path d="M40.1645 30.2294C41.9656 30.2294 43.6912 29.8011 45.2027 29.0454V32.7485L42.6836 35.2676L40.1645 34.0081L37.6453 35.2676L35.1262 32.7485V29.0454C36.6377 29.8011 38.3507 30.2294 40.1645 30.2294Z" fill="#E7F5FC"></path> <path d="M51.5005 13.8803L47.7218 11.336C47.7218 11.336 45.1901 12.5956 40.7942 12.5956C36.3983 12.5956 32.6071 11.336 32.6071 11.336L28.8284 13.8803V12.5956C28.8284 6.32296 33.9044 1.25952 40.1644 1.25952C46.4245 1.25952 51.4879 6.31037 51.5005 12.583V12.5956V13.8803Z" fill="#E7F5FC"></path> <path d="M40.1645 1.25952C39.5183 1.25952 38.8898 1.32628 38.2751 1.42956C43.2378 2.26213 47.1034 6.30155 47.6488 11.37C47.679 11.3562 47.7219 11.336 47.7219 11.336L51.5006 13.8803V12.5956V12.583C51.488 6.31037 46.4245 1.25952 40.1645 1.25952V1.25952Z" fill="#E7F5FC"></path> <path d="M47.7218 11.3361L51.5005 13.8804V18.8934C51.5005 23.3397 48.931 27.1939 45.2027 29.0455C43.6912 29.8012 41.9656 30.2295 40.1644 30.2295C38.3507 30.2295 36.6377 29.8012 35.1262 29.0455C31.3979 27.1939 28.8284 23.3409 28.8284 18.8934V13.8804L32.6071 11.3361C32.6071 11.3361 36.3983 12.5956 40.7942 12.5956C45.1901 12.5956 47.7218 11.3361 47.7218 11.3361V11.3361Z" fill="white"></path> <path d="M71.0237 20.1531C69.2855 20.1531 67.8748 21.5512 67.8748 23.302V23.9318C67.8748 28.7937 63.9324 32.7487 59.0579 32.7487H45.2027L42.6836 35.2678L40.1644 34.0083L37.6453 35.2678L35.1262 32.7487H21.271C16.3965 32.7487 12.4541 28.7937 12.4541 23.9318V23.302C12.4541 21.5512 11.0434 20.1531 9.30516 20.1531C7.56696 20.1531 6.15625 21.5512 6.15625 23.302V23.9318C6.15625 32.2827 12.9201 39.0465 21.271 39.0465H24.7852C24.8608 39.0339 24.9489 39.0339 25.0371 39.0339H42.6836H55.2918C55.3799 39.0339 55.4694 39.0339 55.5437 39.0465H59.0579C67.4088 39.0465 74.1726 32.2827 74.1726 23.9318V23.302C74.1726 21.5512 72.7619 20.1531 71.0237 20.1531Z" fill="#E7F5FC"></path> <path d="M43.9432 56.6803C46.0341 56.6803 47.7219 58.3681 47.7219 60.459C47.7219 62.5373 46.0341 64.2377 43.9432 64.2377H40.1646V60.459C40.1646 58.3681 41.8524 56.6803 43.9432 56.6803Z" fill="white"></path> <path d="M40.1646 60.459V64.2377H36.3859C34.295 64.2377 32.6072 62.5373 32.6072 60.459C32.6072 58.3681 34.295 56.6803 36.3859 56.6803C38.4641 56.6803 40.1646 58.3681 40.1646 60.459Z" fill="white"></path> <path d="M54.0196 42.8125H40.1644H26.3092V64.2377H36.3857H40.1644H43.9431H54.0196V42.8125ZM22.5305 65.5098V41.5529C22.5305 40.2556 23.513 39.1711 24.7851 39.0464C24.8607 39.0338 24.9489 39.0338 25.037 39.0338H42.6835H55.2917C55.3799 39.0338 55.4693 39.0338 55.5436 39.0464C56.8158 39.1724 57.7983 40.2556 57.7983 41.5529V65.5098C57.7983 66.8953 56.6772 68.0163 55.2917 68.0163H50.3165H40.1644H30.0123H25.037C23.6515 68.0163 22.5305 66.8953 22.5305 65.5098V65.5098Z" fill="#E7F5FC"></path> <path d="M50.3166 68.0164L48.9815 79.3524H40.1646V68.0164H50.3166Z" fill="white"></path> <path d="M40.1645 68.0164V79.3524H31.3476L30.0125 68.0164H40.1645Z" fill="white"></path> <path d="M40.1645 31.4891C33.2192 31.4891 27.5688 25.8387 27.5688 18.8935C27.5688 18.1982 28.1319 17.6339 28.8284 17.6339C29.5249 17.6339 30.088 18.1982 30.088 18.8935C30.088 24.4494 34.6085 28.97 40.1645 28.97C45.7204 28.97 50.241 24.4494 50.241 18.8935C50.241 18.1982 50.804 17.6339 51.5005 17.6339C52.1971 17.6339 52.7601 18.1982 52.7601 18.8935C52.7601 25.8387 47.1097 31.4891 40.1645 31.4891Z" fill="#5CB9EA"></path> <path d="M28.8284 20.153C28.1319 20.153 27.5688 19.5887 27.5688 18.8934V12.5956C27.5688 11.9003 28.1319 11.3361 28.8284 11.3361C29.5249 11.3361 30.088 11.9003 30.088 12.5956V18.8934C30.088 19.5887 29.5249 20.153 28.8284 20.153Z" fill="#5CB9EA"></path> <path d="M51.5005 20.153C50.804 20.153 50.241 19.5888 50.241 18.8935V12.5944C50.241 11.8991 50.804 11.3348 51.5005 11.3348C52.1971 11.3348 52.7601 11.8991 52.7601 12.5944V18.8935C52.7601 19.5888 52.1971 20.153 51.5005 20.153Z" fill="#5CB9EA"></path> <path d="M51.503 13.8552C50.8064 13.8552 50.2434 13.2909 50.2434 12.5956C50.2434 7.03969 45.7228 2.51912 40.1669 2.51912C34.611 2.51912 30.0904 7.03969 30.0904 12.5956C30.0904 13.2909 29.5274 13.8552 28.8309 13.8552C28.1343 13.8552 27.5713 13.2909 27.5713 12.5956C27.5713 5.6504 33.2217 0 40.1669 0C47.1121 0 52.7625 5.6504 52.7625 12.5956C52.7625 13.2909 52.1995 13.8552 51.503 13.8552Z" fill="#5CB9EA"></path> <path d="M35.1263 34.0083C34.4297 34.0083 33.8667 33.444 33.8667 32.7487V29.0494C33.8667 28.3541 34.4297 27.7898 35.1263 27.7898C35.8228 27.7898 36.3858 28.3541 36.3858 29.0494V32.7487C36.3858 33.444 35.8228 34.0083 35.1263 34.0083Z" fill="#5CB9EA"></path> <path d="M45.2027 34.0083C44.5061 34.0083 43.9431 33.444 43.9431 32.7487V29.0494C43.9431 28.3541 44.5061 27.7898 45.2027 27.7898C45.8992 27.7898 46.4622 28.3541 46.4622 29.0494V32.7487C46.4622 33.444 45.8992 34.0083 45.2027 34.0083Z" fill="#5CB9EA"></path> <path d="M59.0579 34.0082C58.3614 34.0082 57.7983 33.4439 57.7983 32.7486C57.7983 32.0533 58.3614 31.4891 59.0579 31.4891C63.2258 31.4891 66.6153 28.0996 66.6153 23.9317C66.6153 23.2364 67.1783 22.6721 67.8748 22.6721C68.5714 22.6721 69.1344 23.2364 69.1344 23.9317C69.1344 29.4876 64.6138 34.0082 59.0579 34.0082Z" fill="#5CB9EA"></path> <path d="M59.0579 40.306C58.3614 40.306 57.7983 39.7417 57.7983 39.0464C57.7983 38.3512 58.3614 37.7869 59.0579 37.7869C66.6971 37.7869 72.9131 31.5709 72.9131 23.9317C72.9131 23.2364 73.4761 22.6721 74.1726 22.6721C74.8692 22.6721 75.4322 23.2364 75.4322 23.9317C75.4322 32.9602 68.0864 40.306 59.0579 40.306Z" fill="#5CB9EA"></path> <path d="M74.1726 24.5613C73.4761 24.5613 72.913 23.9971 72.913 23.3018C72.913 22.2601 72.0654 21.4124 71.0237 21.4124C69.982 21.4124 69.1344 22.2601 69.1344 23.3018C69.1344 23.9971 68.5713 24.5613 67.8748 24.5613C67.1783 24.5613 66.6152 23.9971 66.6152 23.3018C66.6152 20.8708 68.5927 18.8933 71.0237 18.8933C73.4547 18.8933 75.4322 20.8708 75.4322 23.3018C75.4322 23.9971 74.8691 24.5613 74.1726 24.5613Z" fill="#5CB9EA"></path> <path d="M74.1726 25.1913C73.4761 25.1913 72.9131 24.627 72.9131 23.9317V23.3019C72.9131 22.6066 73.4761 22.0424 74.1726 22.0424C74.8692 22.0424 75.4322 22.6066 75.4322 23.3019V23.9317C75.4322 24.627 74.8692 25.1913 74.1726 25.1913Z" fill="#5CB9EA"></path> <path d="M67.8748 25.1913C67.1783 25.1913 66.6152 24.627 66.6152 23.9317V23.3019C66.6152 22.6066 67.1783 22.0424 67.8748 22.0424C68.5713 22.0424 69.1344 22.6066 69.1344 23.3019V23.9317C69.1344 24.627 68.5713 25.1913 67.8748 25.1913Z" fill="#5CB9EA"></path> <path d="M59.0579 34.0095H45.2027C44.5061 34.0095 43.9431 33.4452 43.9431 32.7499C43.9431 32.0546 44.5061 31.4904 45.2027 31.4904H59.0579C59.7544 31.4904 60.3174 32.0546 60.3174 32.7499C60.3174 33.4452 59.7544 34.0095 59.0579 34.0095Z" fill="#5CB9EA"></path> <path d="M59.0581 40.306H51.5826C50.886 40.306 50.323 39.7417 50.323 39.0464C50.323 38.3511 50.886 37.7869 51.5826 37.7869H59.0581C59.7546 37.7869 60.3176 38.3511 60.3176 39.0464C60.3176 39.7417 59.7546 40.306 59.0581 40.306Z" fill="#5CB9EA"></path> <path d="M21.2711 34.0082C15.7151 34.0082 11.1946 29.4876 11.1946 23.9317C11.1946 23.2364 11.7576 22.6721 12.4541 22.6721C13.1507 22.6721 13.7137 23.2364 13.7137 23.9317C13.7137 28.0996 17.1032 31.4891 21.2711 31.4891C21.9676 31.4891 22.5306 32.0533 22.5306 32.7486C22.5306 33.4439 21.9676 34.0082 21.2711 34.0082Z" fill="#5CB9EA"></path> <path d="M21.271 40.306C12.2425 40.306 4.89673 32.9602 4.89673 23.9317C4.89673 23.2364 5.45975 22.6721 6.15629 22.6721C6.85283 22.6721 7.41585 23.2364 7.41585 23.9317C7.41585 31.5709 13.6318 37.7869 21.271 37.7869C21.9676 37.7869 22.5306 38.3512 22.5306 39.0464C22.5306 39.7417 21.9676 40.306 21.271 40.306Z" fill="#5CB9EA"></path> <path d="M12.4541 24.5613C11.7576 24.5613 11.1945 23.9971 11.1945 23.3018C11.1945 22.2601 10.3469 21.4124 9.3052 21.4124C8.26354 21.4124 7.41585 22.2601 7.41585 23.3018C7.41585 23.9971 6.85283 24.5613 6.15629 24.5613C5.45975 24.5613 4.89673 23.9971 4.89673 23.3018C4.89673 20.8708 6.87424 18.8933 9.3052 18.8933C11.7362 18.8933 13.7137 20.8708 13.7137 23.3018C13.7137 23.9971 13.1506 24.5613 12.4541 24.5613Z" fill="#5CB9EA"></path> <path d="M6.15629 25.1913C5.45975 25.1913 4.89673 24.627 4.89673 23.9317V23.3019C4.89673 22.6066 5.45975 22.0424 6.15629 22.0424C6.85283 22.0424 7.41585 22.6066 7.41585 23.3019V23.9317C7.41585 24.627 6.85283 25.1913 6.15629 25.1913Z" fill="#5CB9EA"></path> <path d="M12.4541 25.1913C11.7576 25.1913 11.1946 24.627 11.1946 23.9317V23.3019C11.1946 22.6066 11.7576 22.0424 12.4541 22.0424C13.1507 22.0424 13.7137 22.6066 13.7137 23.3019V23.9317C13.7137 24.627 13.1507 25.1913 12.4541 25.1913Z" fill="#5CB9EA"></path> <path d="M35.1262 34.0095H21.271C20.5745 34.0095 20.0115 33.4452 20.0115 32.7499C20.0115 32.0546 20.5745 31.4904 21.271 31.4904H35.1262C35.8228 31.4904 36.3858 32.0546 36.3858 32.7499C36.3858 33.4452 35.8228 34.0095 35.1262 34.0095Z" fill="#5CB9EA"></path> <path d="M28.7465 40.306H21.271C20.5745 40.306 20.0115 39.7417 20.0115 39.0464C20.0115 38.3511 20.5745 37.7869 21.271 37.7869H28.7465C29.4431 37.7869 30.0061 38.3511 30.0061 39.0464C30.0061 39.7417 29.4418 40.306 28.7465 40.306Z" fill="#5CB9EA"></path> <path d="M51.4993 15.1462C51.2574 15.1462 51.0118 15.077 50.7952 14.9309L47.0165 12.3802C46.4396 11.991 46.2885 11.2076 46.6764 10.632C47.0669 10.0551 47.8478 9.90269 48.4259 10.2932L52.2046 12.8438C52.7815 13.233 52.9327 14.0164 52.5447 14.592C52.3016 14.9523 51.9036 15.1462 51.4993 15.1462V15.1462Z" fill="#5CB9EA"></path> <path d="M40.7942 13.8552C36.2447 13.8552 32.3716 12.5856 32.2103 12.5314C31.5516 12.3122 31.1939 11.6006 31.4118 10.9406C31.6309 10.2818 32.3413 9.91906 33.0039 10.1407C33.0404 10.1533 36.6667 11.3361 40.7942 11.3361C44.7971 11.3361 47.1424 10.2176 47.1664 10.2062C47.7886 9.90143 48.5443 10.1584 48.8504 10.7819C49.1565 11.4041 48.9046 12.1548 48.2849 12.4634C48.169 12.5201 45.437 13.8552 40.7942 13.8552Z" fill="#5CB9EA"></path> <path d="M28.8296 15.1463C28.4253 15.1463 28.0272 14.9523 27.7841 14.5921C27.3949 14.0152 27.5473 13.233 28.1242 12.8438L31.9029 10.2932C32.4823 9.90272 33.262 10.0564 33.6524 10.632C34.0416 11.2089 33.8892 11.9911 33.3124 12.3803L29.5337 14.9309C29.317 15.077 29.0714 15.1463 28.8296 15.1463Z" fill="#5CB9EA"></path> <path d="M31.3476 80.612C30.7178 80.612 30.1737 80.1409 30.0981 79.4998L28.7567 68.1675C28.6761 67.4772 29.1686 66.8512 29.8601 66.7694C30.5289 66.6862 31.1763 67.1812 31.2582 67.8727L32.5996 79.205C32.6802 79.8953 32.1877 80.5213 31.4962 80.6031C31.4471 80.6094 31.3967 80.612 31.3476 80.612V80.612Z" fill="#5CB9EA"></path> <path d="M48.9813 80.6121C48.9322 80.6121 48.8831 80.6096 48.8327 80.6033C48.1412 80.5214 47.6487 79.8941 47.7293 79.2052L49.0708 67.8729C49.1526 67.1814 49.7799 66.6889 50.4689 66.7695C51.1604 66.8514 51.6529 67.4786 51.5723 68.1676L50.2308 79.4999C50.1553 80.141 49.6111 80.6121 48.9813 80.6121Z" fill="#5CB9EA"></path> <path d="M40.1646 80.612C39.4681 80.612 38.905 80.049 38.905 79.3525V68.0164C38.905 67.3199 39.4681 66.7568 40.1646 66.7568C40.8611 66.7568 41.4242 67.3199 41.4242 68.0164V79.3525C41.4242 80.049 40.8611 80.612 40.1646 80.612Z" fill="#5CB9EA"></path> <path d="M55.2905 69.2797H25.0371C22.9601 69.2797 21.2698 67.5894 21.2698 65.5124V41.553C21.2698 39.476 22.9601 37.7856 25.0371 37.7856H55.2905C57.3676 37.7856 59.0579 39.476 59.0579 41.553V65.5111C59.0579 67.5894 57.3676 69.2797 55.2905 69.2797ZM25.0371 40.3048C24.3481 40.3048 23.7889 40.8653 23.7889 41.553V65.5111C23.7889 66.2001 24.3481 66.7594 25.0371 66.7594H55.2905C55.9795 66.7594 56.5388 66.2001 56.5388 65.5111V41.553C56.5388 40.8653 55.9795 40.3048 55.2905 40.3048H25.0371Z" fill="#5CB9EA"></path> <path d="M54.0196 65.4973H26.3067C25.6101 65.4973 25.0471 64.9342 25.0471 64.2377V42.8201C25.0471 42.1236 25.6101 41.5605 26.3067 41.5605H54.0196C54.7161 41.5605 55.2791 42.1236 55.2791 42.8201V64.2377C55.2791 64.9342 54.7161 65.4973 54.0196 65.4973ZM27.5662 62.9781H52.76V44.0797H27.5662V62.9781Z" fill="#5CB9EA"></path> <path d="M40.1646 65.4973C39.4681 65.4973 38.905 64.9342 38.905 64.2377V42.8201C38.905 42.1236 39.4681 41.5605 40.1646 41.5605C40.8611 41.5605 41.4242 42.1236 41.4242 42.8201V64.2377C41.4242 64.9342 40.8611 65.4973 40.1646 65.4973Z" fill="#5CB9EA"></path> <path d="M47.7218 51.6408H32.6058C31.9092 51.6408 31.3462 51.0778 31.3462 50.3813C31.3462 49.6847 31.9092 49.1217 32.6058 49.1217H47.7218C48.4183 49.1217 48.9813 49.6847 48.9813 50.3813C48.9813 51.0778 48.4183 51.6408 47.7218 51.6408Z" fill="#5CB9EA"></path> <path d="M47.7218 47.8584H32.6058C31.9092 47.8584 31.3462 47.2953 31.3462 46.5988C31.3462 45.9023 31.9092 45.3392 32.6058 45.3392H47.7218C48.4183 45.3392 48.9813 45.9023 48.9813 46.5988C48.9813 47.2953 48.4183 47.8584 47.7218 47.8584Z" fill="#5CB9EA"></path> <path d="M36.3832 65.4998C33.6046 65.4998 31.345 63.2402 31.345 60.4616C31.345 57.683 33.6046 55.4233 36.3832 55.4233C39.1618 55.4233 41.4215 57.683 41.4215 60.4616C41.4215 61.1581 40.8584 61.7212 40.1619 61.7212C39.4654 61.7212 38.9023 61.1581 38.9023 60.4616C38.9023 59.0723 37.7725 57.9425 36.3832 57.9425C34.9939 57.9425 33.8641 59.0723 33.8641 60.4616C33.8641 61.8509 34.9939 62.9807 36.3832 62.9807C37.0798 62.9807 37.6428 63.5437 37.6428 64.2403C37.6428 64.9368 37.0798 65.4998 36.3832 65.4998V65.4998Z" fill="#5CB9EA"></path> <path d="M43.9418 65.4998C43.2453 65.4998 42.6823 64.9368 42.6823 64.2403C42.6823 63.5437 43.2453 62.9807 43.9418 62.9807C45.3311 62.9807 46.4609 61.8509 46.4609 60.4616C46.4609 59.0723 45.3311 57.9425 43.9418 57.9425C42.5525 57.9425 41.4227 59.0723 41.4227 60.4616C41.4227 61.1581 40.8597 61.7212 40.1631 61.7212C39.4666 61.7212 38.9036 61.1581 38.9036 60.4616C38.9036 57.683 41.1632 55.4233 43.9418 55.4233C46.7204 55.4233 48.9801 57.683 48.9801 60.4616C48.9801 63.2402 46.7204 65.4998 43.9418 65.4998Z" fill="#5CB9EA"></path> <path d="M42.6822 36.5286C42.3598 36.5286 42.0373 36.4051 41.7917 36.1595C41.2992 35.667 41.2992 34.871 41.7917 34.3785L44.3109 31.8594C44.8033 31.3669 45.5994 31.3669 46.0919 31.8594C46.5844 32.3518 46.5844 33.1479 46.0919 33.6404L43.5728 36.1595C43.3271 36.4051 43.0047 36.5286 42.6822 36.5286Z" fill="#5CB9EA"></path> <path d="M42.681 36.5286C42.4921 36.5286 42.2994 36.4858 42.1193 36.3964L39.6002 35.1368C38.9779 34.8257 38.726 34.0687 39.0371 33.4465C39.3495 32.8242 40.1065 32.5723 40.7275 32.8834L43.2466 34.143C43.8688 34.4541 44.1207 35.2111 43.8096 35.8333C43.5879 36.2742 43.1433 36.5286 42.681 36.5286V36.5286Z" fill="#5CB9EA"></path> <path d="M37.6454 36.5285C37.1832 36.5285 36.7385 36.2741 36.5169 35.832C36.2058 35.2098 36.4577 34.4528 37.0799 34.1417L39.599 32.8821C40.22 32.571 40.977 32.8229 41.2893 33.4451C41.6005 34.0673 41.3485 34.8243 40.7263 35.1355L38.2072 36.395C38.0271 36.4857 37.8344 36.5285 37.6454 36.5285V36.5285Z" fill="#5CB9EA"></path> <path d="M37.644 36.5286C37.3215 36.5286 36.9991 36.4051 36.7535 36.1595L34.2344 33.6404C33.7419 33.1479 33.7419 32.3518 34.2344 31.8594C34.7268 31.3669 35.5229 31.3669 36.0154 31.8594L38.5345 34.3785C39.027 34.871 39.027 35.667 38.5345 36.1595C38.2889 36.4051 37.9664 36.5286 37.644 36.5286Z" fill="#5CB9EA"></path> </g> </svg> 